<!DOCTYPE svg PUBLIC "-//W3C//DTD SVG 20010904//EN" "http://www.w3.org/TR/2001/REC-SVG-20010904/DTD/svg10.dtd">
<svg version="1.0" xmlns="http://www.w3.org/2000/svg" width="128px" height="128px" viewBox="0 0 1280 1280" preserveAspectRatio="xMidYMid meet">
<g id="layer101" fill="#91dc5a" stroke="none">
 <path d="M450 1260 c-17 -17 -20 -33 -20 -125 l0 -105 -50 0 c-41 0 -56 -5 -75 -25 l-25 -24 0 -281 0 -280 360 0 360 0 0 280 0 281 -25 24 c-19 20 -34 25 -75 25 l-50 0 0 105 c0 124 -12 145 -80 145 -68 0 -80 -21 -80 -145 l0 -105 -50 0 -50 0 0 105 c0 124 -12 145 -80 145 -27 0 -47 -7 -60 -20z"/>
 <path d="M135 899 c-43 -25 -45 -35 -45 -240 0 -221 4 -235 71 -245 29 -5 41 -1 65 19 l29 25 0 201 c0 187 -1 202 -20 220 -25 25 -74 35 -100 20z"/>
 <path d="M1075 900 c-47 -19 -50 -31 -50 -242 l0 -200 29 -25 c24 -20 36 -24 65 -19 67 10 71 24 71 241 0 106 -3 201 -6 210 -7 17 -55 45 -76 44 -7 0 -22 -4 -33 -9z"/>
 <path d="M283 346 c9 -86 51 -152 136 -217 l34 -25 -26 -39 c-31 -45 -34 -65 -12 -65 9 0 28 20 43 45 25 41 29 44 57 37 39 -9 211 -9 250 0 28 7 32 4 57 -37 15 -25 34 -45 43 -45 22 0 19 20 -12 65 l-26 39 34 25 c85 65 127 131 136 217 l6 54 -363 0 -363 0 6 -54z m215 -100 c4 -21 -14 -37 -35 -29 -14 5 -18 35 -6 47 12 12 38 1 41 -18z m330 0 c4 -21 -14 -37 -35 -29 -14 5 -18 35 -6 47 12 12 38 1 41 -18z"/>
 </g>

</svg>