<!DOCTYPE svg PUBLIC "-//W3C//DTD SVG 20010904//EN" "http://www.w3.org/TR/2001/REC-SVG-20010904/DTD/svg10.dtd">
<svg version="1.0" xmlns="http://www.w3.org/2000/svg" width="120px" height="120px" viewBox="0 0 1200 1200" preserveAspectRatio="xMidYMid meet">
<g id="layer101" fill="#000000" stroke="none">
 <path d="M345 1179 c-46 -33 -120 -131 -160 -212 -55 -112 -78 -220 -73 -341 5 -125 33 -192 109 -260 89 -80 186 -95 310 -49 l72 26 86 -28 c129 -43 234 -33 318 31 59 45 59 57 4 112 -49 49 -81 120 -81 177 0 77 62 181 131 222 16 10 29 24 29 32 0 27 -69 156 -115 214 -25 32 -60 67 -78 77 -42 26 -112 26 -177 0 -28 -11 -73 -20 -100 -20 -27 0 -72 9 -100 20 -68 27 -137 26 -175 -1z"/>
 <path d="M590 257 c0 -47 31 -124 66 -165 39 -46 118 -92 159 -92 23 0 25 4 25 43 0 113 -115 237 -220 237 -25 0 -30 -4 -30 -23z"/>
 </g>

</svg>