<!DOCTYPE svg PUBLIC "-//W3C//DTD SVG 20010904//EN" "http://www.w3.org/TR/2001/REC-SVG-20010904/DTD/svg10.dtd">
<svg version="1.0" xmlns="http://www.w3.org/2000/svg" width="1600px" height="1041px" viewBox="0 0 16000 10410" preserveAspectRatio="xMidYMid meet">
<g id="layer101" fill="#116b1c" stroke="none">
 <path d="M7800 10379 c-61 -29 -288 -254 -3892 -3859 -2105 -2106 -3838 -3846 -3852 -3867 -44 -67 -58 -127 -54 -227 6 -167 -76 -75 1112 -1263 1204 -1205 1091 -1107 1281 -1107 106 -1 112 1 175 34 58 31 369 339 2738 2710 l2673 2674 2707 -2704 c1490 -1488 2715 -2709 2723 -2715 15 -11 45 -25 92 -44 15 -6 73 -11 129 -11 91 0 106 3 167 31 73 35 -59 -94 1448 1419 565 568 706 715 724 755 19 40 24 72 27 153 4 102 1 116 -35 202 -20 45 -7750 7780 -7802 7806 -73 36 -107 44 -201 44 -85 0 -102 -4 -160 -31z"/>
 </g>
<g id="layer102" fill="#51c511" stroke="none">
 <path d="M4442 5967 c-1931 -1931 -3512 -3517 -3512 -3522 0 -6 328 -339 730 -740 l730 -730 2687 2686 c2442 2440 2693 2688 2742 2709 103 42 219 43 321 0 50 -21 298 -266 2773 -2739 l2718 -2716 724 730 724 730 -3552 3553 c-1953 1953 -3556 3552 -3562 3552 -6 0 -1591 -1581 -3523 -3513z"/>
 <path d="M14220 423 l-85 -88 88 85 c48 46 87 86 87 87 0 8 -11 -3 -90 -84z"/>
 </g>

</svg>