<!DOCTYPE svg PUBLIC "-//W3C//DTD SVG 20010904//EN" "http://www.w3.org/TR/2001/REC-SVG-20010904/DTD/svg10.dtd">
<svg version="1.0" xmlns="http://www.w3.org/2000/svg" width="472px" height="720px" viewBox="0 0 4720 7200" preserveAspectRatio="xMidYMid meet">
<g id="layer101" fill="#0a3d91" stroke="none">
 <path d="M1705 7180 c-147 -31 -405 -114 -392 -126 2 -2 38 10 81 26 127 49 372 111 430 109 11 0 -28 -11 -89 -23 -289 -59 -547 -165 -780 -321 -53 -35 -93 -60 -90 -55 13 20 186 128 309 192 72 37 128 68 123 68 -14 0 -210 -102 -289 -151 -133 -82 -276 -198 -405 -327 -68 -68 -123 -128 -123 -134 0 -6 7 -5 18 3 9 7 6 1 -7 -14 -27 -30 -41 -37 -20 -9 11 14 10 13 -9 -2 -23 -20 -31 -42 -9 -30 6 4 3 -2 -7 -14 -23 -26 -34 -29 -15 -4 11 14 10 13 -9 -2 -23 -20 -31 -42 -9 -30 7 4 9 3 4 -2 -5 -5 -14 -9 -19 -9 -6 0 -13 -6 -16 -14 -3 -8 0 -11 7 -7 17 11 13 0 -6 -15 -15 -12 -16 -12 -8 1 8 13 7 13 -8 1 -19 -15 -23 -36 -5 -25 7 4 8 3 4 -5 -4 -6 -11 -9 -16 -6 -12 7 -33 -32 -25 -45 4 -6 1 -9 -6 -8 -6 2 -14 -3 -17 -11 -3 -9 0 -11 8 -6 9 5 11 4 6 -4 -4 -6 -11 -9 -16 -6 -12 8 -43 -53 -34 -67 4 -7 3 -8 -4 -4 -7 4 -28 -26 -57 -84 -83 -165 -144 -339 -184 -522 -20 -94 -21 -113 -21 -1899 l0 -1804 26 -113 c14 -62 41 -161 60 -220 41 -125 179 -416 193 -408 5 4 13 1 17 -5 4 -8 3 -9 -4 -5 -17 10 -15 2 9 -38 12 -20 25 -34 29 -31 5 3 12 0 16 -6 5 -8 3 -9 -6 -4 -8 5 -11 3 -8 -6 3 -8 10 -14 16 -14 5 0 14 -4 19 -9 5 -5 2 -6 -6 -1 -9 5 -12 3 -9 -6 3 -8 10 -14 16 -14 6 0 17 -7 24 -15 11 -12 11 -12 -4 -1 -11 8 -18 9 -18 3 0 -11 19 -27 32 -27 3 0 10 -4 15 -9 5 -5 3 -6 -4 -2 -19 11 -16 -9 4 -25 15 -12 16 -12 8 1 -5 9 0 8 13 -4 25 -21 31 -36 7 -16 -27 22 -16 -6 12 -31 20 -18 24 -19 13 -4 -15 20 -14 20 8 1 23 -20 30 -32 12 -21 -67 41 171 -205 290 -301 83 -67 184 -139 245 -174 64 -37 28 -9 -80 63 -55 36 -120 85 -145 107 -43 39 -42 39 14 -5 83 -65 239 -166 314 -204 34 -17 60 -36 57 -41 -3 -5 0 -7 7 -5 8 3 49 -10 91 -30 140 -65 437 -152 534 -156 23 -1 24 -2 6 -6 -55 -11 -345 68 -505 137 -50 22 -93 38 -95 36 -7 -7 146 -70 257 -106 241 -79 235 -79 880 -79 541 0 581 1 670 21 317 68 637 222 901 435 89 72 309 289 309 306 0 5 -8 3 -17 -4 -10 -7 -7 -1 6 14 27 30 41 37 20 10 -11 -15 -10 -14 9 1 23 20 31 42 10 30 -9 -5 -9 -2 1 9 16 20 26 23 15 5 -5 -9 -2 -9 9 1 20 16 23 36 4 25 -8 -5 -8 -2 2 9 16 20 26 23 15 5 -5 -9 -2 -9 9 1 20 16 23 36 4 25 -8 -5 -8 -2 2 9 16 20 26 23 15 5 -5 -9 -2 -9 9 1 20 16 23 36 5 25 -8 -4 -10 -3 -5 2 5 5 14 9 19 9 6 0 13 6 16 14 3 9 0 11 -8 6 -9 -5 -11 -4 -6 4 4 6 11 9 16 6 5 -3 14 3 19 14 14 26 14 34 -2 25 -7 -4 -9 -3 -4 2 5 5 14 9 19 9 6 0 13 6 16 14 3 9 0 11 -8 6 -9 -5 -11 -4 -6 4 4 6 12 9 17 5 14 -8 141 262 188 398 22 64 51 167 65 230 l25 113 0 1805 0 1805 -25 113 c-14 63 -43 166 -65 230 -47 137 -164 386 -178 378 -5 -4 -13 -1 -17 5 -4 8 -3 9 4 5 15 -9 15 -1 1 25 -5 11 -14 17 -19 14 -5 -3 -12 0 -16 6 -4 8 -3 9 4 5 15 -9 15 -1 1 25 -5 11 -14 17 -19 14 -5 -3 -12 0 -16 6 -5 8 -3 9 6 4 8 -5 11 -3 8 6 -3 8 -10 14 -16 14 -5 0 -14 4 -19 9 -5 5 -3 6 5 2 18 -11 15 9 -5 25 -11 10 -14 10 -9 2 11 -19 1 -16 -15 4 -10 11 -10 14 -1 9 18 -11 15 9 -5 25 -11 10 -14 10 -9 2 11 -19 1 -16 -15 4 -10 11 -10 14 -1 9 18 -11 15 9 -5 25 -11 10 -14 10 -9 2 11 -19 1 -16 -15 4 -10 11 -10 14 -1 9 21 -12 13 10 -10 30 -22 19 -23 19 -8 -1 15 -20 14 -20 -8 -1 -23 20 -30 32 -12 21 6 -3 10 -2 10 4 0 5 -55 65 -123 133 -129 130 -271 244 -409 330 -89 55 -327 173 -368 182 -14 3 -7 -2 15 -11 22 -9 101 -47 175 -84 231 -116 397 -237 580 -425 l105 -108 -130 125 c-194 187 -338 290 -555 399 -177 89 -329 141 -545 187 -92 19 -100 22 -50 19 43 -3 52 -2 32 4 -16 5 -288 8 -605 8 -502 -1 -587 -3 -657 -18z m-900 -442 c-27 -23 -106 -96 -175 -162 -107 -103 -112 -107 -35 -27 84 87 244 231 255 231 3 -1 -17 -19 -45 -42z m1335 -1418 c0 -668 2 -1211 5 -1208 3 2 5 543 5 1201 0 658 2 1197 3 1197 2 0 14 -12 28 -27 13 -14 18 -23 12 -19 -22 12 -14 -10 9 -30 19 -15 20 -16 9 -1 -21 27 -7 20 20 -10 13 -15 16 -21 7 -14 -29 22 -21 -3 9 -30 15 -13 21 -16 14 -6 -19 24 -8 21 15 -5 10 -12 13 -18 7 -14 -23 13 -13 -10 14 -35 15 -13 21 -16 14 -6 -19 24 -8 21 15 -5 10 -12 13 -18 7 -14 -22 12 -14 -10 9 -30 19 -15 20 -16 9 -1 -21 27 -7 20 20 -10 13 -15 16 -21 7 -14 -29 22 -21 -3 9 -30 15 -13 21 -16 14 -6 -21 27 -7 20 20 -10 13 -15 16 -21 7 -14 -29 22 -21 -3 9 -30 15 -13 21 -16 14 -6 -19 24 -8 21 15 -5 10 -12 13 -18 7 -14 -23 13 -13 -10 14 -35 15 -13 21 -16 14 -6 -19 24 -8 21 15 -5 10 -12 13 -18 7 -14 -23 13 -13 -10 14 -35 25 -22 26 -22 9 -1 -27 31 -15 28 15 -5 13 -14 18 -23 12 -19 -22 12 -14 -10 9 -30 19 -15 20 -16 9 -1 -21 27 -7 20 20 -10 13 -15 16 -21 7 -14 -29 22 -21 -3 9 -30 15 -13 21 -16 14 -6 -19 24 -8 21 15 -5 10 -12 13 -18 7 -14 -23 13 -13 -10 14 -35 15 -13 21 -16 14 -6 -19 24 -8 21 15 -5 10 -12 13 -18 7 -14 -23 13 -13 -10 14 -35 25 -22 26 -22 9 -1 -27 31 -15 28 15 -5 13 -14 18 -23 12 -19 -22 12 -14 -10 9 -30 19 -15 20 -16 9 -1 -21 27 -7 20 20 -10 13 -15 16 -21 7 -14 -29 22 -21 -3 9 -30 15 -13 21 -16 14 -6 -19 24 -8 21 15 -5 10 -12 13 -18 7 -14 -23 13 -13 -10 14 -35 15 -13 21 -16 14 -6 -19 24 -8 21 15 -5 10 -12 13 -18 7 -14 -22 12 -14 -10 9 -30 19 -15 20 -16 9 -1 -21 27 -7 20 20 -10 13 -15 16 -21 7 -14 -29 22 -21 -3 9 -30 15 -13 21 -16 14 -6 -19 24 -8 21 15 -5 10 -12 13 -18 7 -14 -23 13 -13 -10 14 -35 15 -13 21 -16 14 -6 -19 24 -8 21 15 -5 10 -12 13 -18 7 -14 -22 12 -14 -10 9 -30 19 -15 20 -16 9 -1 -21 27 -7 20 20 -10 13 -15 16 -21 7 -14 -29 22 -21 -3 9 -30 15 -13 21 -16 14 -6 -19 24 -8 21 15 -5 10 -12 13 -18 7 -14 -23 13 -13 -10 14 -35 15 -13 21 -16 14 -6 -19 24 -8 21 15 -5 10 -12 13 -18 7 -14 -22 12 -14 -10 9 -30 19 -15 20 -16 9 -1 -21 27 -7 20 20 -10 13 -15 16 -21 7 -14 -29 22 -21 -3 9 -30 15 -13 21 -16 14 -6 -19 24 -8 21 15 -5 10 -12 13 -18 7 -14 -22 12 -14 -10 9 -30 19 -15 20 -16 9 -1 -21 27 -7 20 20 -10 13 -15 16 -21 7 -14 -29 22 -21 -3 9 -30 15 -13 21 -16 14 -6 -19 24 -8 21 15 -5 10 -12 13 -18 7 -14 -23 13 -13 -10 14 -35 15 -13 21 -16 14 -6 -19 24 -8 21 15 -5 10 -12 13 -18 7 -14 -22 12 -14 -10 9 -30 19 -15 20 -16 9 -1 -21 27 -7 20 20 -10 13 -15 16 -21 7 -14 -29 22 -21 -3 9 -30 15 -13 21 -16 14 -6 -19 24 -8 21 15 -5 10 -12 13 -18 7 -14 -23 13 -13 -10 14 -35 15 -13 21 -16 14 -6 -19 24 -8 21 15 -5 10 -12 13 -18 7 -14 -22 12 -14 -10 9 -30 19 -15 20 -16 9 -1 -21 27 -7 20 20 -10 13 -15 16 -21 7 -14 -29 22 -21 -3 9 -30 15 -13 21 -16 14 -6 -19 24 -8 21 15 -5 10 -12 13 -18 5 -13 -9 5 -12 3 -9 -6 3 -8 12 -13 19 -11 8 2 -101 -112 -241 -252 -140 -140 -256 -253 -259 -250 -7 6 -221 -208 -221 -221 0 -5 41 31 90 80 50 49 90 87 90 85 0 -3 -114 -118 -252 -255 -139 -138 -183 -178 -98 -90 85 87 151 156 145 152 -5 -4 -79 -76 -162 -160 l-153 -152 253 -252 c138 -139 256 -253 262 -253 5 0 -15 26 -45 58 -30 31 68 -64 217 -212 149 -148 271 -273 270 -276 -3 -11 101 -119 108 -112 3 3 -11 23 -32 44 -20 21 -35 38 -32 38 3 0 22 -17 42 -38 l37 -38 -32 -30 c-27 -24 -29 -25 -13 -4 l20 25 -28 -24 c-26 -23 -38 -49 -17 -36 19 12 10 -2 -17 -26 l-28 -24 20 25 c16 21 14 20 -13 -4 -30 -28 -45 -55 -22 -41 19 12 10 -2 -17 -26 l-28 -24 20 25 c12 16 5 12 -18 -9 -20 -19 -37 -39 -37 -45 0 -5 9 -1 20 9 11 10 20 16 20 13 0 -2 -14 -17 -32 -34 -18 -16 -26 -20 -18 -9 11 15 8 14 -13 -4 -26 -23 -38 -49 -17 -36 20 12 9 -2 -22 -31 l-33 -29 25 30 c22 27 21 27 -13 -4 -35 -33 -54 -68 -22 -41 28 24 15 4 -17 -26 -28 -24 -30 -25 -13 -4 17 21 15 20 -13 -4 -30 -28 -45 -55 -22 -41 20 12 9 -2 -22 -31 l-33 -29 25 30 25 30 -33 -29 c-30 -28 -45 -55 -22 -41 20 12 9 -2 -22 -31 l-33 -29 25 30 c22 27 21 27 -13 -4 -35 -33 -54 -68 -22 -41 28 24 15 4 -17 -26 -28 -24 -30 -25 -13 -4 17 21 15 20 -13 -4 -30 -28 -45 -55 -22 -41 20 12 9 -2 -22 -31 l-33 -29 25 30 c22 27 21 27 -13 -4 -35 -33 -54 -68 -22 -41 28 24 15 4 -17 -26 -28 -24 -30 -25 -13 -4 17 21 15 20 -13 -4 -31 -29 -47 -61 -17 -36 28 24 15 4 -17 -26 -28 -24 -30 -25 -13 -4 12 16 6 12 -18 -9 -35 -33 -54 -68 -22 -41 28 24 15 4 -17 -26 -28 -24 -30 -25 -13 -4 17 21 15 20 -13 -4 -31 -29 -47 -61 -17 -36 28 24 15 4 -17 -26 -28 -24 -30 -25 -13 -4 12 16 6 12 -18 -9 -20 -19 -37 -39 -37 -45 0 -5 9 -1 20 9 11 10 20 16 20 13 0 -2 -14 -17 -32 -34 -18 -16 -26 -20 -18 -9 11 15 8 14 -13 -4 -26 -23 -38 -49 -17 -36 20 12 9 -2 -22 -31 l-33 -29 25 30 c22 27 21 27 -13 -4 -37 -35 -52 -65 -19 -40 9 7 4 -1 -12 -19 -34 -36 -49 -44 -20 -9 10 12 4 9 -14 -7 -32 -29 -44 -54 -19 -40 6 4 -1 -7 -17 -24 -36 -39 -49 -43 -15 -5 23 27 23 27 -9 -1 -31 -29 -44 -54 -19 -40 6 4 -1 -7 -17 -24 -36 -39 -49 -43 -15 -4 15 17 11 15 -14 -7 -37 -35 -52 -65 -19 -40 9 7 4 -1 -12 -19 -34 -36 -49 -44 -20 -9 10 12 4 9 -14 -7 -32 -29 -44 -54 -19 -40 6 4 -1 -7 -17 -24 -36 -39 -49 -43 -15 -4 15 17 11 15 -14 -7 -37 -35 -52 -65 -19 -40 9 7 4 -1 -12 -19 -34 -36 -49 -44 -20 -9 10 12 4 9 -14 -7 -33 -31 -45 -58 -14 -35 9 7 4 -1 -12 -19 -34 -36 -49 -44 -20 -9 10 12 2 6 -19 -12 -37 -35 -52 -65 -19 -40 9 7 4 -1 -12 -19 -17 -18 -33 -29 -38 -24 -4 4 -9 518 -11 1142 l-2 1135 -3 -1153 c-2 -920 1 -1152 11 -1146 8 5 8 2 -2 -9 -7 -9 -15 -17 -17 -17 -2 0 -4 521 -4 1157 0 636 -3 1159 -5 1162 -3 3 -78 -67 -165 -154 -88 -88 -160 -155 -160 -150 0 5 -81 -71 -180 -170 -99 -99 -180 -184 -180 -190 0 -5 56 46 125 115 69 69 125 122 125 120 0 -3 -89 -93 -197 -200 -108 -107 -191 -187 -184 -177 14 18 3 23 -17 7 -6 -6 -9 -7 -7 -3 7 8 -175 193 -190 193 -5 0 24 -35 65 -78 42 -43 28 -31 -30 25 l-105 103 300 300 c164 164 301 297 304 294 7 -6 371 358 371 371 0 5 -63 -53 -140 -130 -77 -77 -140 -137 -140 -135 0 3 77 82 172 175 95 94 162 158 148 143 -31 -36 -19 -36 15 -1 31 35 31 40 -2 75 -37 39 -53 35 -18 -4 16 -18 -66 61 -182 177 -117 115 -210 211 -207 214 6 6 -138 151 -150 151 -6 0 16 -28 49 -62 33 -35 -70 65 -228 222 l-287 285 132 132 133 133 57 -57 c32 -31 55 -59 52 -62 -6 -6 127 -141 140 -141 6 0 -14 26 -44 58 -30 31 54 -51 187 -183 133 -131 240 -241 237 -244 -6 -6 128 -141 140 -141 6 0 -14 26 -44 58 -34 35 -25 28 23 -18 42 -41 77 -76 77 -79 0 -2 -9 4 -20 14 -11 10 -20 14 -20 9 1 -14 47 -44 47 -31 1 7 2 561 2 1231 1 670 4 1217 6 1214 3 -3 5 -551 5 -1218z m2439 535 c0 -5 -6 1 -14 15 -8 14 -14 30 -14 35 0 6 6 -1 14 -15 8 -14 14 -29 14 -35z m-4450 -54 c-6 -18 -13 -30 -15 -28 -2 2 1 18 7 36 6 18 13 30 15 28 2 -2 -1 -18 -7 -36z m4482 -27 c5 -15 8 -29 5 -31 -2 -2 -8 10 -14 26 -13 38 -5 41 9 5z m74 -259 c14 -62 25 -125 24 -141 0 -16 -7 7 -15 51 -8 44 -26 123 -40 175 -35 128 -38 145 -14 82 10 -30 31 -105 45 -167z m-4620 84 c-13 -52 -31 -130 -39 -174 -8 -44 -15 -68 -15 -53 -2 46 65 335 75 325 3 -2 -7 -46 -21 -98z m2745 -2174 c102 -102 183 -185 180 -185 -3 0 -88 83 -190 185 -102 102 -183 185 -180 185 3 0 88 -83 190 -185z m1885 -1693 c-20 -97 -56 -234 -61 -229 -2 2 10 56 26 121 17 65 33 144 37 175 4 31 9 46 11 33 2 -12 -4 -57 -13 -100z m-4621 -166 c10 -32 15 -60 13 -63 -10 -9 -78 276 -76 320 0 12 11 -27 23 -88 13 -60 31 -136 40 -169z m60 -186 c5 -17 4 -20 -2 -10 -5 8 -13 26 -16 40 -5 17 -4 20 2 10 5 -8 13 -26 16 -40z m85 -195 c0 -5 -6 1 -14 15 -8 14 -14 30 -14 35 0 6 6 -1 14 -15 8 -14 14 -29 14 -35z m4276 -24 c-21 -43 -29 -39 -8 4 9 19 18 33 21 31 2 -2 -4 -18 -13 -35z m-3865 -536 c69 -69 122 -125 120 -125 -3 0 -61 56 -130 125 -69 69 -122 125 -120 125 3 0 61 -56 130 -125z m3465 -5 c-66 -66 -122 -120 -125 -120 -2 0 49 54 115 120 66 66 122 120 125 120 2 0 -49 -54 -115 -120z m-140 -129 c-3 -5 -24 -24 -48 -41 l-42 -32 45 41 c46 41 56 48 45 32z m-120 -97 c-92 -77 -350 -216 -518 -278 -120 -45 -309 -94 -385 -101 -53 -5 -51 -4 18 10 208 40 395 102 572 191 104 52 258 144 308 184 36 29 41 24 5 -6z"/>
 <path d="M2526 5475 c16 -13 16 -14 2 -9 -17 6 -18 -31 -18 -690 0 -483 3 -696 11 -696 5 0 7 -6 3 -12 -3 -7 138 131 315 308 177 176 321 328 321 336 0 8 -16 32 -36 54 -20 21 -30 30 -23 19 14 -20 13 -20 -9 -1 -23 20 -30 32 -12 21 6 -3 10 -2 10 3 0 12 -25 33 -32 27 -3 -3 -13 5 -24 17 -15 18 -16 20 -1 9 28 -22 20 3 -10 30 -21 18 -24 19 -13 4 11 -15 8 -14 -13 4 -28 25 -38 43 -12 21 27 -22 16 6 -12 31 -21 18 -24 19 -13 4 11 -15 8 -14 -13 4 -28 25 -38 43 -12 21 27 -22 16 6 -12 31 -20 18 -24 19 -13 4 15 -20 14 -20 -8 -1 -23 20 -30 32 -12 21 21 -13 9 13 -17 36 -20 18 -24 19 -13 4 15 -20 14 -20 -8 -1 -23 20 -30 32 -12 21 19 -12 10 12 -12 31 -22 19 -23 19 -8 -1 11 -15 7 -14 -13 4 -28 25 -38 43 -12 21 27 -22 16 6 -12 31 -21 18 -24 19 -13 4 11 -15 8 -14 -13 4 -28 25 -38 43 -12 21 27 -22 16 6 -12 31 -20 18 -24 19 -13 4 15 -20 14 -20 -8 -1 -23 20 -30 32 -12 21 21 -13 9 13 -17 36 -20 18 -24 19 -13 4 15 -20 14 -20 -8 -1 -23 20 -30 32 -12 21 23 -14 6 13 -37 60 -25 28 -40 41 -32 30 10 -16 7 -15 -14 4 -28 25 -38 43 -12 21 8 -7 15 -8 15 -3 0 12 -43 53 -55 53 -5 0 0 -7 11 -15z m624 -768 c0 -1 -28 -29 -62 -62 l-63 -60 60 63 c55 58 65 67 65 59z m-180 -190 c0 -1 -100 -101 -222 -222 l-223 -220 220 223 c204 206 225 227 225 219z"/>
 <path d="M2495 4780 c0 -382 1 -539 2 -347 2 191 2 503 0 695 -1 191 -2 34 -2 -348z"/>
 <path d="M1167 4772 l-127 -127 225 -225 c124 -124 225 -222 225 -219 0 3 -97 101 -215 219 -118 118 -215 218 -215 223 0 5 53 62 117 128 l117 120 55 -53 56 -53 -55 58 c-30 31 -55 57 -55 57 0 0 -58 -57 -128 -128z"/>
 <path d="M3390 4433 l-245 -248 248 245 c136 135 247 246 247 247 0 8 -22 -15 -250 -244z"/>
 <path d="M1557 4638 c4 -7 88 -92 187 -188 l181 -175 -185 188 c-102 103 -186 187 -187 187 -1 0 1 -6 4 -12z"/>
 <path d="M1825 3872 c99 -100 181 -182 182 -182 12 0 -36 50 -186 195 l-176 170 180 -183z"/>
 <path d="M2523 3183 c5 -7 4 -13 -2 -13 -8 0 -11 -204 -11 -666 0 -769 -11 -712 108 -577 67 77 91 112 57 83 -28 -24 -15 -4 17 26 19 16 26 20 18 8 -8 -11 13 9 47 45 57 60 85 102 48 71 -28 -24 -15 -4 17 26 19 16 26 20 18 8 -8 -11 13 9 47 45 61 65 84 102 41 65 -13 -10 -10 -4 6 14 32 34 47 44 25 15 -7 -10 -1 -7 14 6 27 25 37 48 15 35 -7 -4 0 7 16 24 34 37 49 43 20 9 -10 -13 9 6 43 42 58 61 79 92 51 75 -6 -4 -3 4 8 18 10 14 21 24 23 22 2 -2 -2 -12 -10 -21 -12 -17 -12 -17 5 -1 21 18 15 54 -6 42 -7 -4 -10 -3 -5 1 8 9 -91 115 -107 115 -6 0 14 -26 44 -57 30 -32 -45 41 -168 162 -122 121 -222 222 -222 225 0 3 77 -72 170 -165 94 -93 170 -167 170 -164 0 9 -420 424 -433 428 -6 2 6 -16 28 -40 24 -26 15 -20 -23 16 -34 33 -62 61 -62 64 0 2 11 -6 25 -19 14 -13 25 -19 24 -14 0 5 -14 20 -32 34 -17 14 -28 19 -24 13z m577 -686 c0 -2 -15 -16 -32 -33 l-33 -29 29 33 c28 30 36 37 36 29z m-190 -220 c0 -2 -15 -16 -32 -33 l-33 -29 29 33 c28 30 36 37 36 29z m-130 -150 c0 -2 -15 -16 -32 -33 l-33 -29 29 33 c28 30 36 37 36 29z m-130 -150 c0 -2 -15 -16 -32 -33 l-33 -29 29 33 c28 30 36 37 36 29z m-60 -70 c0 -2 -15 -16 -32 -33 l-33 -29 29 33 c28 30 36 37 36 29z"/>
 <path d="M2495 2505 c0 -368 1 -518 2 -332 2 186 2 488 0 670 -1 183 -2 31 -2 -338z"/>
 <path d="M1330 2865 l-294 -294 24 -26 c13 -14 26 -23 28 -20 3 3 -5 15 -17 26 l-23 22 293 293 c162 162 292 294 289 294 -3 0 -138 -133 -300 -295z"/>
 <path d="M1955 2988 l-160 -163 165 160 c90 88 166 161 169 163 2 1 0 2 -5 2 -5 0 -81 -73 -169 -162z"/>
 <path d="M3110 3116 c0 -4 416 -417 428 -426 4 -2 -90 93 -208 213 -207 209 -220 222 -220 213z"/>
 <path d="M1375 2405 c-70 -77 -69 -79 3 -10 34 33 62 61 62 62 0 12 -23 -6 -65 -52z"/>
 <path d="M3020 7171 c37 -12 109 -22 85 -12 -11 5 -40 11 -65 15 -30 4 -36 3 -20 -3z"/>
 <path d="M3215 7120 c49 -16 91 -27 93 -25 5 4 -155 55 -171 54 -7 0 28 -13 78 -29z"/>
 <path d="M1070 265 c0 -2 23 -16 50 -30 28 -14 50 -23 50 -20 0 2 -22 16 -50 30 -27 14 -50 23 -50 20z"/>
 </g>

</svg>