<!DOCTYPE svg PUBLIC "-//W3C//DTD SVG 20010904//EN" "http://www.w3.org/TR/2001/REC-SVG-20010904/DTD/svg10.dtd">
<svg version="1.0" xmlns="http://www.w3.org/2000/svg" width="720px" height="720px" viewBox="0 0 7200 7200" preserveAspectRatio="xMidYMid meet">
<g id="layer101" fill="#009300" stroke="none">
 <path d="M3015 7188 c-77 -4 -148 -13 -157 -18 -10 -5 -42 -13 -73 -16 -31 -4 -58 -11 -61 -15 -3 -5 -24 -10 -47 -11 l-42 -1 38 -4 c21 -3 44 0 50 5 7 5 37 12 67 16 30 4 59 11 65 16 13 10 145 18 138 8 -2 -5 -33 -8 -68 -8 -35 0 -66 -4 -70 -9 -3 -5 -31 -13 -63 -17 -31 -3 -61 -10 -67 -14 -5 -4 -43 -10 -83 -14 -41 -3 -86 -13 -102 -21 -16 -8 -42 -15 -59 -15 -16 0 -33 -4 -36 -10 -3 -5 -16 -10 -29 -10 -12 0 -31 -7 -42 -15 -17 -13 -16 -13 16 -3 19 6 43 15 52 19 10 5 29 9 44 9 14 0 35 5 47 12 27 15 108 28 101 16 -3 -4 -20 -8 -37 -8 -18 -1 -43 -7 -57 -15 -14 -8 -37 -14 -53 -15 -15 0 -35 -4 -45 -9 -31 -15 -88 -31 -115 -31 -14 0 -29 -4 -32 -10 -3 -5 -15 -10 -26 -10 -10 0 -42 -11 -71 -25 -28 -14 -59 -25 -67 -25 -14 0 -14 -2 -1 -10 9 -6 20 -5 30 3 22 19 88 47 108 47 10 0 23 5 29 11 6 6 19 9 29 6 16 -4 16 -5 -3 -6 -12 0 -25 -5 -28 -11 -3 -5 -14 -10 -24 -10 -23 0 -108 -37 -116 -50 -4 -6 -11 -8 -16 -5 -5 4 -21 -3 -35 -14 -15 -12 -33 -21 -40 -21 -8 0 -22 -4 -32 -9 -51 -26 -71 -33 -81 -27 -7 5 -9 1 -5 -9 4 -10 2 -14 -8 -10 -7 3 -45 -10 -83 -29 -39 -20 -65 -35 -58 -36 6 0 28 9 47 21 20 12 36 19 36 16 0 -10 -72 -47 -91 -47 -11 0 -37 -11 -57 -25 -45 -31 -37 -33 15 -3 21 12 34 17 28 11 -13 -13 -121 -73 -132 -73 -4 1 3 7 17 15 14 8 20 14 13 15 -7 0 -25 -12 -40 -26 -15 -14 -22 -22 -14 -18 9 4 12 3 7 -4 -4 -6 -12 -9 -20 -6 -7 3 -42 -16 -77 -42 -77 -56 -93 -71 -59 -55 24 11 24 11 6 -3 -11 -9 -29 -16 -40 -16 -16 0 -17 -3 -8 -9 10 -6 9 -10 -7 -14 -14 -3 -19 -1 -14 6 4 7 -1 6 -10 -2 -19 -15 -23 -36 -5 -25 7 4 8 3 4 -5 -4 -6 -11 -9 -16 -6 -5 3 -20 1 -32 -6 -29 -15 -82 -59 -72 -59 4 0 19 10 33 23 l26 22 -20 -23 c-11 -13 -34 -30 -52 -37 -32 -14 -393 -360 -393 -377 0 -5 6 -6 13 -2 6 4 3 -2 -7 -14 -23 -26 -34 -29 -15 -4 7 9 1 6 -14 -7 -31 -28 -34 -36 -11 -27 8 3 12 2 9 -4 -3 -6 -12 -10 -20 -10 -22 0 -86 -73 -81 -93 2 -10 0 -14 -7 -10 -6 4 -8 0 -4 -9 6 -16 -10 -38 -27 -38 -5 0 -1 7 10 15 10 8 14 15 8 15 -17 0 -37 -27 -29 -40 4 -6 1 -9 -7 -8 -7 2 -12 -5 -12 -14 1 -10 -3 -16 -8 -15 -6 1 -13 -4 -16 -12 -3 -9 0 -11 9 -6 8 5 11 4 6 -1 -5 -5 -12 -9 -15 -9 -13 0 -32 -16 -32 -27 0 -6 7 -5 18 3 14 11 13 10 -2 -9 -20 -23 -32 -30 -21 -12 3 6 2 10 -3 10 -6 0 -13 -7 -16 -16 -9 -22 -8 -26 6 -18 7 4 8 3 4 -5 -4 -6 -11 -9 -16 -6 -12 8 -32 -33 -24 -48 4 -6 3 -9 -1 -4 -5 4 -15 -5 -22 -20 -7 -16 -11 -19 -8 -8 5 20 5 20 -10 1 -18 -23 -20 -40 -3 -30 7 4 8 3 4 -4 -4 -7 -14 -12 -22 -12 -8 0 -14 -8 -14 -17 0 -16 2 -16 11 -3 9 13 10 13 6 0 -2 -8 -9 -15 -16 -15 -12 0 -31 -23 -31 -38 0 -5 5 -5 12 -1 7 4 8 3 4 -5 -4 -6 -12 -9 -17 -6 -5 4 -9 -1 -9 -10 0 -9 -4 -13 -10 -10 -5 3 -10 -1 -10 -10 0 -10 5 -13 12 -9 7 4 8 3 4 -5 -4 -6 -11 -9 -16 -6 -5 3 -18 -12 -30 -34 -22 -45 -26 -66 -8 -55 7 4 8 3 4 -5 -4 -6 -12 -8 -18 -5 -8 5 -9 1 -5 -10 6 -14 3 -17 -10 -12 -10 4 -15 4 -11 1 3 -4 -2 -15 -13 -26 -21 -21 -27 -65 -7 -53 7 4 8 3 4 -5 -4 -6 -11 -9 -16 -6 -10 6 -15 -1 -24 -38 -5 -22 -4 -27 6 -21 7 4 5 -2 -5 -14 -11 -11 -16 -26 -12 -31 3 -6 -4 -15 -17 -20 -15 -6 -29 -25 -41 -57 -20 -58 -22 -78 -4 -68 7 4 9 3 4 -2 -5 -5 -14 -9 -20 -9 -7 0 -12 -15 -12 -35 0 -19 -6 -41 -12 -48 -7 -7 -13 -21 -13 -30 0 -15 -2 -15 -10 -2 -8 12 -10 11 -10 -7 0 -12 -4 -24 -9 -27 -5 -3 -11 -23 -14 -43 -8 -56 -31 -131 -45 -145 -7 -7 -12 -28 -12 -48 0 -20 -4 -40 -9 -45 -14 -16 -23 -128 -10 -119 8 4 9 3 5 -5 -4 -6 -11 -9 -16 -6 -5 3 -11 2 -13 -2 -29 -49 -29 -1437 0 -1486 2 -4 8 -5 13 -2 5 3 12 0 16 -6 4 -8 3 -9 -5 -5 -13 9 -4 -103 10 -119 5 -5 9 -25 9 -45 0 -20 5 -41 12 -48 14 -14 37 -89 45 -145 3 -20 9 -40 14 -43 5 -3 9 -15 9 -27 0 -18 2 -19 10 -7 8 13 10 13 10 -2 0 -9 6 -23 13 -30 6 -7 12 -29 12 -48 0 -20 5 -35 12 -35 6 0 15 -4 20 -9 5 -5 3 -6 -5 -2 -17 10 -15 -10 5 -68 12 -32 26 -51 41 -57 13 -5 20 -14 17 -20 -4 -5 1 -20 12 -31 10 -12 12 -18 5 -14 -10 6 -11 1 -6 -21 9 -37 14 -44 24 -38 5 3 12 0 16 -6 4 -8 3 -9 -4 -5 -20 12 -14 -32 7 -53 11 -11 16 -22 13 -26 -4 -3 1 -3 11 1 13 5 16 2 10 -12 -4 -11 -3 -15 5 -10 6 3 14 1 18 -5 4 -8 3 -9 -4 -5 -18 11 -14 -10 8 -55 12 -22 25 -37 30 -34 5 3 12 0 16 -6 4 -8 3 -9 -4 -5 -7 4 -12 1 -12 -9 0 -9 5 -13 10 -10 6 3 10 -1 10 -10 0 -9 4 -14 9 -10 5 3 13 0 17 -6 4 -8 3 -9 -4 -5 -7 4 -12 4 -12 -1 0 -15 19 -38 31 -38 7 0 14 -7 16 -15 4 -13 3 -13 -6 0 -9 13 -11 13 -11 -2 0 -10 6 -18 14 -18 8 0 18 -5 22 -12 4 -7 3 -8 -4 -4 -17 10 -15 -7 3 -30 15 -19 15 -19 10 1 -3 11 1 8 8 -8 7 -15 17 -24 22 -20 4 5 5 2 1 -4 -8 -15 12 -56 24 -48 5 3 12 0 16 -6 5 -8 3 -9 -6 -4 -10 6 -12 4 -7 -9 4 -10 7 -20 7 -22 0 -2 5 -4 11 -4 5 0 7 6 3 12 -4 7 2 4 14 -6 25 -21 31 -36 7 -16 -9 8 -15 9 -15 2 0 -11 19 -27 32 -27 3 0 10 -4 15 -9 5 -5 2 -6 -6 -1 -9 5 -12 3 -9 -6 3 -8 10 -13 16 -12 5 1 9 -5 8 -15 0 -9 5 -16 12 -14 8 1 11 -2 7 -8 -8 -13 12 -40 29 -40 6 0 2 7 -8 15 -11 8 -15 15 -10 15 17 0 33 -22 27 -38 -4 -9 -2 -13 4 -9 7 4 9 0 7 -10 -5 -20 59 -93 81 -93 8 0 17 -4 20 -10 4 -6 -1 -7 -12 -3 -14 5 -13 1 6 -20 27 -30 41 -36 20 -9 -11 14 -10 13 9 -2 23 -20 30 -32 12 -21 -5 3 -10 2 -10 -3 0 -17 361 -363 393 -377 18 -7 41 -24 52 -37 l20 -23 -26 23 c-14 12 -29 22 -33 22 -10 0 43 -44 72 -59 12 -7 27 -9 32 -6 5 3 12 0 16 -6 4 -8 3 -9 -4 -5 -18 11 -14 -10 5 -25 9 -8 14 -9 10 -2 -5 7 0 9 14 6 16 -4 17 -8 7 -14 -9 -6 -8 -9 8 -9 11 0 29 -7 40 -16 18 -14 18 -14 -6 -3 -34 16 -18 1 59 -55 35 -26 70 -45 77 -42 8 3 16 0 20 -6 5 -7 2 -8 -7 -4 -8 4 -1 -4 14 -18 15 -14 33 -26 40 -26 7 1 1 7 -13 15 -14 8 -21 14 -17 15 11 0 119 -60 132 -73 6 -6 -7 -1 -28 11 -52 30 -60 28 -15 -3 20 -14 46 -25 57 -25 19 0 91 -37 91 -47 0 -3 -16 4 -36 16 -19 12 -41 21 -47 21 -7 -1 19 -16 58 -36 38 -19 76 -32 83 -29 10 4 12 0 8 -10 -4 -10 -2 -14 5 -9 10 6 30 -1 81 -27 10 -5 24 -9 32 -9 7 0 25 -9 40 -21 14 -11 30 -18 35 -14 5 3 12 1 16 -5 8 -13 93 -50 114 -50 9 0 21 -4 26 -9 6 -5 19 -11 30 -14 18 -4 18 -5 -2 -6 -12 0 -25 3 -28 9 -3 5 -15 10 -25 10 -22 0 -87 28 -110 47 -10 8 -21 9 -30 3 -13 -8 -13 -10 1 -10 8 0 39 -11 67 -25 29 -14 61 -25 71 -25 11 0 23 -4 26 -10 3 -5 18 -10 32 -10 27 0 84 -16 115 -31 10 -5 30 -9 45 -9 16 -1 39 -7 53 -15 14 -8 39 -14 57 -15 17 0 34 -4 37 -8 7 -12 -74 1 -101 16 -12 7 -33 12 -47 12 -15 0 -34 4 -44 9 -9 4 -33 13 -52 19 -32 10 -33 10 -16 -3 11 -8 30 -15 42 -15 13 0 26 -5 29 -10 3 -6 20 -10 36 -10 17 0 43 -7 59 -15 16 -8 61 -18 102 -21 40 -4 78 -10 83 -14 6 -4 36 -11 67 -14 32 -4 60 -12 63 -17 4 -5 35 -9 70 -9 35 0 66 -3 68 -7 7 -11 -126 -3 -139 8 -6 4 -36 11 -67 15 -32 4 -60 11 -63 15 -3 5 -24 8 -47 7 l-42 -1 40 -4 c22 -3 44 -8 50 -12 5 -5 35 -11 65 -15 30 -4 59 -11 65 -15 50 -40 1440 -40 1491 0 6 5 36 11 67 15 32 4 60 11 63 15 3 5 24 10 47 11 l42 1 -38 4 c-21 3 -44 0 -50 -5 -7 -5 -37 -12 -67 -16 -30 -4 -59 -11 -65 -16 -13 -10 -145 -18 -138 -7 2 4 33 7 68 7 35 0 66 4 70 9 3 5 31 13 63 17 31 3 62 10 67 14 6 4 43 10 83 14 41 3 86 13 102 21 16 8 42 15 59 15 16 0 33 4 36 10 3 5 16 10 29 10 12 0 31 7 42 15 17 13 16 13 -16 3 -19 -6 -43 -15 -52 -19 -10 -5 -29 -9 -44 -9 -14 0 -35 -5 -47 -12 -27 -15 -108 -28 -101 -16 3 4 20 8 37 8 18 1 43 7 57 15 14 8 37 14 53 15 15 0 35 4 45 9 31 15 88 31 115 31 14 0 29 5 32 10 3 6 15 10 26 10 10 0 42 11 71 25 28 14 59 25 67 25 14 0 14 2 1 10 -9 6 -20 5 -30 -3 -22 -19 -88 -47 -108 -47 -10 0 -23 -5 -29 -11 -6 -6 -19 -9 -29 -6 -16 4 -16 5 3 6 12 0 25 5 28 11 3 5 14 10 24 10 23 0 108 37 116 50 4 6 11 8 16 5 5 -4 21 3 35 14 15 12 33 21 40 21 8 0 22 4 32 9 51 26 71 33 81 27 7 -5 9 -1 5 9 -4 10 -2 14 8 10 7 -3 45 10 83 29 39 20 65 35 58 36 -6 0 -28 -9 -47 -21 -20 -12 -36 -19 -36 -16 0 10 72 47 91 47 11 0 37 11 57 25 45 31 37 33 -15 3 -21 -12 -33 -17 -28 -11 13 13 121 73 132 73 4 -1 -3 -7 -17 -15 -14 -8 -20 -14 -13 -15 7 0 25 12 40 26 15 14 22 22 14 18 -9 -4 -12 -3 -7 4 4 6 12 9 20 6 7 -3 42 16 77 42 77 56 93 71 59 55 -24 -11 -24 -11 -6 3 11 9 29 16 40 16 16 0 17 3 8 9 -10 6 -9 10 7 14 14 3 19 1 14 -6 -4 -7 1 -6 10 2 19 15 23 36 5 25 -7 -4 -8 -3 -4 5 4 6 11 9 16 6 5 -3 20 -1 32 6 29 15 82 59 72 59 -4 0 -19 -10 -33 -22 l-26 -23 20 23 c11 13 34 30 52 37 32 14 393 360 393 377 0 5 -6 6 -12 2 -7 -4 -4 2 6 14 23 26 34 29 15 5 -7 -10 -1 -7 14 6 31 28 34 36 11 27 -8 -3 -12 -2 -9 4 3 6 12 10 20 10 22 0 86 73 81 93 -2 10 0 14 7 10 6 -4 8 0 4 9 -6 16 10 38 27 38 5 0 1 -7 -10 -15 -10 -8 -14 -15 -8 -15 17 0 37 27 29 40 -4 6 -1 9 7 8 7 -2 12 5 12 14 -1 10 3 16 8 15 6 -1 13 4 16 12 3 9 0 11 -9 6 -8 -5 -11 -4 -6 1 5 5 12 9 15 9 13 0 32 16 32 27 0 6 -7 5 -17 -3 -15 -11 -14 -10 1 9 20 23 32 30 21 12 -3 -5 -2 -10 3 -10 6 0 13 7 16 16 9 22 8 26 -6 18 -7 -4 -8 -3 -4 5 4 6 11 9 16 6 12 -8 32 33 24 48 -4 6 -3 9 1 4 5 -4 15 5 22 20 7 16 11 19 8 8 -5 -20 -5 -20 10 -1 18 23 20 40 3 30 -7 -4 -8 -3 -4 4 4 7 14 12 22 12 8 0 14 8 14 18 0 15 -2 15 -11 2 -9 -13 -10 -13 -6 0 2 8 9 15 16 15 12 0 31 23 31 38 0 5 -5 5 -12 1 -7 -4 -8 -3 -4 5 4 6 12 9 17 6 5 -4 9 1 9 10 0 9 5 13 10 10 6 -3 10 1 10 10 0 10 -5 13 -12 9 -7 -4 -8 -3 -4 5 4 6 11 9 16 6 5 -3 18 12 30 34 22 45 26 66 8 55 -7 -4 -8 -3 -4 5 4 6 12 8 18 5 8 -5 9 -1 5 10 -6 14 -3 17 10 12 10 -4 15 -4 11 -1 -3 4 2 15 13 26 21 21 27 65 7 53 -7 -4 -8 -3 -4 5 4 6 11 9 16 6 10 -6 15 1 24 38 5 22 4 27 -6 21 -7 -4 -5 2 5 14 11 11 16 26 12 31 -3 6 4 15 17 20 15 6 29 25 41 57 20 58 22 78 5 68 -8 -4 -10 -3 -5 2 5 5 14 9 20 9 7 0 12 15 12 35 0 19 6 41 13 48 6 7 12 21 12 30 0 15 2 15 10 2 8 -12 10 -11 10 7 0 12 4 24 9 27 5 3 11 23 14 43 8 56 31 131 45 145 7 7 12 28 12 48 0 20 4 40 9 46 14 15 23 127 10 118 -8 -4 -9 -3 -5 5 4 6 11 9 16 6 15 -9 18 6 26 145 18 278 8 1308 -13 1343 -2 4 -8 5 -13 2 -5 -3 -12 0 -16 6 -4 8 -3 9 5 5 13 -9 4 103 -10 118 -5 6 -9 26 -9 46 0 20 -5 41 -12 48 -14 14 -37 89 -45 145 -3 20 -9 40 -14 43 -5 3 -9 15 -9 27 0 18 -2 19 -10 7 -8 -13 -10 -13 -10 2 0 9 -6 23 -12 30 -7 7 -13 29 -13 48 0 20 -5 35 -12 35 -6 0 -15 4 -20 9 -5 5 -3 6 5 2 17 -10 15 10 -5 68 -12 32 -26 51 -41 57 -13 5 -20 14 -17 20 4 5 -1 20 -12 31 -10 12 -12 18 -5 14 10 -6 11 -1 6 21 -9 37 -14 44 -24 38 -5 -3 -12 0 -16 6 -4 8 -3 9 4 5 20 -12 14 32 -7 53 -11 11 -16 22 -13 26 4 3 -1 3 -11 -1 -13 -5 -16 -2 -10 12 4 11 3 15 -5 10 -6 -3 -14 -1 -18 5 -4 8 -3 9 4 5 18 -11 14 10 -8 55 -12 22 -25 37 -30 34 -5 -3 -12 0 -16 6 -4 8 -3 9 4 5 7 -4 12 -1 12 9 0 9 -4 13 -10 10 -6 -3 -10 1 -10 10 0 9 -4 14 -9 10 -5 -3 -13 0 -17 6 -4 8 -3 9 4 5 7 -4 12 -4 12 1 0 15 -19 38 -31 38 -7 0 -14 7 -16 15 -4 13 -3 13 6 0 9 -13 11 -13 11 3 0 9 -6 17 -14 17 -8 0 -18 5 -22 12 -4 7 -3 8 4 4 17 -10 15 7 -3 30 -15 19 -15 19 -10 -1 3 -11 -1 -8 -8 8 -7 15 -17 24 -22 20 -4 -5 -5 -2 -1 4 8 15 -12 56 -24 48 -5 -3 -12 0 -16 6 -5 8 -3 9 6 4 10 -6 12 -4 7 9 -4 10 -7 20 -7 22 0 2 -5 4 -11 4 -5 0 -7 -6 -3 -12 4 -7 -2 -4 -14 6 -25 21 -31 36 -7 16 9 -8 15 -9 15 -2 0 11 -19 27 -32 27 -3 0 -10 4 -15 9 -5 5 -2 6 6 1 9 -5 12 -3 9 6 -3 8 -10 13 -16 12 -5 -1 -9 5 -8 15 0 9 -5 16 -12 14 -8 -1 -11 2 -7 8 8 13 -12 40 -29 40 -6 0 -2 -7 8 -15 11 -8 15 -15 10 -15 -17 0 -33 22 -27 38 4 9 2 13 -4 9 -7 -4 -9 0 -7 10 5 20 -59 93 -81 93 -8 0 -17 4 -20 10 -4 6 1 7 12 3 14 -5 13 -1 -6 20 -27 30 -41 36 -20 10 11 -15 10 -14 -9 1 -23 20 -30 32 -12 21 6 -3 10 -2 10 3 0 17 -361 363 -393 377 -18 7 -41 24 -52 37 l-20 23 26 -22 c14 -13 29 -23 33 -23 10 0 -43 44 -72 59 -12 7 -27 9 -32 6 -5 -3 -12 0 -16 6 -4 8 -3 9 4 5 18 -11 14 10 -5 25 -9 8 -14 9 -10 2 5 -7 0 -9 -14 -6 -16 4 -17 8 -7 14 9 6 8 9 -8 9 -11 0 -29 7 -40 16 -18 14 -18 14 6 3 34 -16 18 -1 -59 55 -35 26 -70 45 -77 42 -8 -3 -16 0 -20 6 -5 7 -2 8 7 4 8 -4 1 4 -14 18 -15 14 -33 26 -40 26 -7 -1 -1 -7 13 -15 14 -8 21 -14 17 -15 -11 0 -119 60 -132 73 -5 6 7 1 28 -11 52 -30 60 -28 15 3 -20 14 -46 25 -57 25 -19 0 -91 37 -91 47 0 3 16 -4 36 -16 19 -12 41 -21 47 -21 7 1 -19 16 -58 36 -38 19 -76 32 -83 29 -10 -4 -12 0 -8 10 4 10 2 14 -5 9 -10 -6 -30 1 -81 27 -10 5 -24 9 -32 9 -7 0 -25 9 -40 21 -14 11 -30 18 -35 14 -5 -3 -12 -1 -16 5 -8 13 -93 50 -114 50 -9 0 -21 4 -27 9 -5 5 -18 11 -29 14 -18 4 -18 5 2 6 12 0 25 -3 28 -9 3 -5 15 -10 25 -10 22 0 87 -28 110 -47 10 -8 21 -9 30 -3 13 8 13 10 -1 10 -8 0 -39 11 -67 25 -29 14 -61 25 -71 25 -11 0 -23 5 -26 10 -3 6 -18 10 -32 10 -27 0 -84 16 -115 31 -10 5 -30 9 -45 9 -16 1 -39 7 -53 15 -14 8 -39 14 -57 15 -17 0 -34 4 -37 8 -7 12 74 -1 101 -16 12 -7 33 -12 47 -12 15 0 34 -4 44 -9 9 -4 33 -13 52 -19 32 -10 33 -10 16 3 -11 8 -30 15 -42 15 -13 0 -26 5 -29 10 -3 6 -20 10 -36 10 -17 0 -43 7 -59 15 -16 8 -61 18 -102 21 -40 4 -77 10 -83 14 -5 4 -36 11 -67 14 -32 4 -60 12 -63 17 -4 5 -35 9 -70 9 -35 0 -66 3 -68 8 -7 10 126 2 139 -9 6 -4 36 -11 67 -15 32 -4 60 -11 63 -15 3 -5 24 -8 47 -7 l42 1 -40 4 c-22 3 -44 8 -50 12 -5 5 -35 11 -65 15 -30 4 -59 11 -65 15 -34 27 -984 41 -1330 19z m-1416 -562 c-21 -20 -99 -75 -94 -66 7 12 85 70 93 70 3 0 3 -2 1 -4z m4084 -55 c13 -14 1 -8 -28 14 -63 47 -69 53 -27 29 18 -10 43 -30 55 -43z m-4453 -228 c-19 -15 -105 -94 -190 -177 l-155 -151 125 129 c120 123 233 226 248 226 4 0 -9 -12 -28 -27z m4916 -157 l160 -161 -150 146 c-83 80 -167 158 -186 173 -24 19 -27 24 -10 15 14 -7 97 -85 186 -173z m-2680 -812 c29 -7 62 -23 75 -34 l24 -21 -35 21 c-19 11 -39 20 -45 20 -5 0 9 -11 33 -25 24 -13 46 -24 50 -22 4 1 18 -6 32 -16 13 -9 20 -17 16 -17 -5 0 -17 6 -26 13 -9 6 -5 2 8 -11 13 -12 27 -20 32 -17 5 3 12 0 16 -6 4 -8 3 -9 -4 -5 -7 4 -12 2 -12 -3 0 -6 6 -11 13 -11 7 0 29 -17 48 -37 l34 -38 -36 30 c-19 17 -12 8 15 -19 28 -28 42 -43 31 -35 -19 13 -19 13 -6 -6 8 -11 32 -38 55 -59 23 -22 32 -33 22 -25 -12 9 -7 -4 15 -38 19 -28 36 -50 38 -47 2 2 -2 10 -9 19 -7 8 -10 15 -7 15 2 0 17 -17 33 -37 15 -21 21 -33 13 -28 -8 6 -3 -1 11 -15 14 -14 19 -20 11 -15 -29 19 28 -52 63 -79 19 -14 33 -32 31 -39 -3 -6 5 -23 16 -37 11 -14 17 -19 13 -11 -5 10 -3 12 5 7 7 -5 10 -15 7 -23 -3 -8 -2 -12 3 -9 5 3 15 -2 22 -11 12 -14 12 -16 0 -8 -8 5 -4 -6 8 -24 13 -18 29 -35 36 -37 7 -3 28 -24 46 -46 18 -23 27 -38 21 -34 -18 11 -14 -10 5 -25 14 -12 16 -12 8 0 -5 9 -4 12 3 7 6 -4 9 -13 6 -20 -3 -8 0 -17 7 -22 8 -4 10 -3 5 4 -17 28 4 8 40 -35 21 -27 28 -39 14 -28 -17 15 -15 8 11 -26 19 -26 36 -45 38 -43 2 2 -4 14 -15 26 -10 12 -13 18 -6 14 6 -4 31 -35 54 -69 22 -34 48 -70 56 -80 9 -10 17 -25 18 -34 2 -8 8 -21 15 -27 9 -8 10 -8 5 2 -10 18 -1 15 15 -5 10 -11 10 -14 2 -9 -29 17 -10 -15 22 -40 20 -15 45 -41 56 -58 17 -25 14 -23 -16 9 -36 40 -36 40 6 -17 23 -32 44 -58 46 -58 3 0 2 6 -3 13 -5 7 1 1 13 -13 13 -14 23 -31 23 -38 0 -6 27 -39 59 -73 33 -33 57 -67 55 -74 -3 -7 0 -16 7 -21 8 -5 10 -3 4 6 -5 9 -4 11 4 6 6 -4 9 -12 6 -17 -4 -5 -1 -17 5 -26 10 -16 11 -16 6 2 -5 17 -3 16 13 -4 10 -14 17 -30 14 -37 -3 -7 21 -39 54 -70 32 -32 51 -54 43 -50 -8 5 -2 -3 14 -16 16 -14 26 -30 22 -36 -3 -6 -1 -14 5 -18 8 -5 10 -2 5 7 -4 8 -1 5 8 -5 8 -10 13 -23 9 -29 -3 -6 -1 -7 5 -3 6 3 16 -3 22 -14 6 -11 7 -20 3 -20 -4 0 12 -19 38 -43 25 -23 34 -33 20 -22 l-24 20 23 -32 c13 -18 27 -30 31 -27 4 2 11 -1 15 -7 4 -8 3 -9 -4 -5 -18 11 -14 -10 5 -25 14 -12 16 -12 8 0 -5 9 -4 12 3 7 6 -4 9 -13 6 -20 -3 -7 3 -19 13 -27 16 -12 17 -12 8 1 -5 9 -2 7 7 -3 10 -11 16 -23 13 -27 -3 -4 3 -14 12 -21 14 -12 16 -12 8 0 -5 9 -4 12 3 7 6 -4 9 -13 6 -20 -3 -8 0 -17 7 -22 8 -5 10 -3 4 6 -5 9 -4 11 4 6 6 -4 8 -12 5 -18 -4 -6 9 -25 28 -42 19 -17 27 -26 18 -21 -9 6 0 -6 20 -25 20 -19 27 -28 16 -20 -11 8 -3 -6 17 -32 21 -25 44 -49 52 -52 7 -2 19 -15 25 -28 11 -22 10 -22 -10 2 -20 24 -21 24 -10 2 6 -13 17 -25 24 -28 8 -3 29 -24 47 -46 18 -23 27 -38 20 -34 -10 7 -11 4 -1 -13 6 -12 18 -25 25 -27 8 -3 26 -22 41 -42 15 -19 22 -32 14 -27 -7 4 -3 -10 10 -33 13 -23 27 -39 31 -37 10 7 20 -24 12 -37 -3 -6 -1 -8 4 -5 21 13 38 -57 38 -153 0 -93 -17 -166 -36 -154 -5 3 -6 -3 -2 -12 5 -13 3 -15 -7 -9 -8 5 -11 4 -7 -3 10 -15 -3 -43 -16 -35 -6 3 -7 1 -3 -5 8 -13 -64 -86 -105 -108 -16 -8 -35 -12 -41 -8 -6 4 -8 3 -5 -3 10 -16 -84 -43 -149 -43 -62 0 -136 18 -128 31 3 5 -2 6 -10 3 -14 -5 -76 21 -76 32 0 3 5 2 12 -2 7 -4 8 -3 4 4 -4 6 -12 9 -19 6 -7 -2 -37 21 -67 53 -30 31 -48 53 -40 47 9 -5 4 2 -10 15 -14 13 -18 20 -10 16 10 -4 9 -1 -2 8 -10 8 -14 18 -10 22 4 5 2 5 -5 1 -7 -3 -21 7 -34 26 -13 17 -17 28 -10 23 23 -14 -21 53 -54 83 l-30 27 25 -30 25 -30 -27 24 c-15 13 -24 29 -22 35 3 7 -3 19 -13 27 -17 13 -17 13 -3 -6 14 -19 14 -19 -2 -6 -10 7 -15 18 -11 23 3 6 -12 26 -33 45 -21 19 -32 32 -24 28 8 -4 3 3 -13 15 -15 12 -32 32 -38 43 -7 15 -3 13 16 -8 l27 -30 -22 33 c-12 17 -26 32 -31 32 -5 0 -9 7 -9 16 0 8 -4 13 -8 10 -4 -2 -14 4 -21 16 -7 11 -8 17 -2 13 28 -17 6 13 -46 63 -32 30 -49 49 -38 41 17 -12 16 -10 -4 19 -12 17 -25 32 -28 32 -3 0 1 -8 8 -17 13 -16 12 -17 -3 -4 -10 7 -15 17 -12 22 3 5 -2 19 -10 31 -9 12 -16 18 -16 12 0 -5 6 -16 13 -24 10 -12 9 -12 -5 -1 -10 7 -18 22 -18 32 0 10 -11 26 -24 34 -14 9 -32 28 -42 43 -17 26 -17 26 1 12 17 -14 17 -14 5 7 -8 12 -18 21 -23 20 -4 -1 -20 14 -35 33 -15 19 -20 31 -12 25 9 -5 4 1 -10 14 -14 13 -19 20 -11 16 9 -6 12 -4 7 3 -4 7 -14 12 -23 12 -10 0 -13 6 -9 16 3 8 2 13 -3 10 -5 -3 -15 2 -22 11 -10 12 -10 14 -1 9 24 -15 11 7 -25 42 -21 19 -31 32 -23 27 8 -4 0 5 -18 20 -18 15 -30 31 -27 35 8 12 -37 80 -52 80 -6 0 -22 14 -34 32 -13 17 -17 28 -10 24 10 -7 11 -4 2 13 -7 11 -14 21 -17 21 -3 0 -2 -6 2 -12 3 -7 -9 5 -27 27 -19 21 -33 44 -31 51 1 6 -6 18 -15 25 -16 13 -17 12 -4 -3 19 -26 8 -22 -15 4 -10 12 -13 18 -6 14 24 -14 11 11 -20 40 l-33 29 25 -30 25 -30 -27 24 c-15 13 -24 29 -22 36 3 7 0 16 -7 21 -8 4 -10 3 -5 -4 11 -18 0 -14 -15 5 -12 14 -12 16 0 9 9 -6 12 -5 9 5 -3 8 -10 13 -16 12 -6 -2 -9 3 -6 11 3 8 0 17 -7 22 -8 5 -10 3 -4 -7 4 -8 -1 -5 -12 6 -11 11 -19 22 -17 24 2 2 -4 10 -14 18 -9 8 -11 11 -4 8 11 -6 12 -3 3 13 -6 12 -17 24 -24 28 -7 5 -6 0 3 -12 14 -17 14 -18 -2 -6 -9 8 -15 19 -12 26 3 7 -3 19 -13 27 -16 13 -17 12 -4 -3 21 -28 7 -21 -20 9 -13 14 -18 23 -11 18 11 -6 12 -3 3 14 -7 11 -14 21 -17 21 -3 0 -2 -5 2 -12 4 -7 3 -8 -4 -4 -6 4 -9 13 -6 21 3 8 -14 33 -41 61 -26 25 -41 43 -35 39 9 -6 9 -2 1 14 -7 11 -14 21 -17 21 -3 0 -2 -6 2 -12 4 -8 3 -9 -2 -5 -5 5 -9 16 -9 25 0 9 -10 21 -23 28 -12 6 -26 15 -30 19 -4 5 0 5 8 1 8 -5 4 2 -10 15 -14 13 -19 20 -11 14 9 -6 6 4 -7 22 -13 18 -28 36 -35 39 -7 4 -3 -2 7 -14 11 -12 17 -22 14 -22 -3 0 -23 21 -44 48 -21 26 -27 38 -14 27 l23 -20 -18 27 c-9 15 -21 26 -25 23 -5 -3 -12 0 -16 6 -4 8 -3 9 4 5 17 -10 14 6 -5 29 -13 16 -15 17 -10 3 9 -26 4 -22 -23 15 -13 17 -17 28 -9 22 8 -5 3 1 -11 14 -14 13 -18 20 -10 15 8 -4 12 -4 8 0 -3 4 -8 7 -10 6 -1 -1 -15 3 -30 9 -22 8 -31 6 -50 -10 l-23 -20 30 17 30 16 -25 -21 c-14 -11 -30 -19 -37 -16 -7 2 -15 -1 -19 -7 -5 -7 -2 -8 7 -3 12 8 12 6 0 -8 -7 -10 -19 -16 -25 -15 -11 3 -86 -40 -86 -48 0 -6 14 2 53 28 15 11 27 17 27 14 0 -13 -111 -76 -122 -70 -6 4 -8 3 -4 -4 6 -10 -111 -112 -170 -146 -29 -17 -29 -17 -4 1 14 10 38 31 55 46 25 24 23 23 -15 -5 -25 -18 -57 -41 -70 -51 -14 -10 -18 -15 -10 -11 13 7 13 6 1 -9 -7 -10 -19 -16 -25 -15 -11 3 -106 -58 -106 -68 0 -3 14 4 30 16 17 12 30 19 30 17 0 -2 -33 -28 -72 -57 -40 -29 -95 -70 -123 -90 -243 -178 -347 -249 -360 -247 -5 0 -32 -13 -59 -31 -28 -18 -54 -32 -60 -32 -5 0 -7 -3 -4 -6 4 -3 17 0 30 6 17 9 20 9 12 1 -6 -7 -44 -23 -83 -36 -118 -40 -218 -32 -331 25 -47 24 -108 81 -103 97 2 6 -1 15 -8 19 -8 4 -9 3 -5 -4 4 -7 5 -12 2 -12 -3 0 -10 10 -17 21 -7 15 -8 19 0 15 7 -5 9 -1 5 8 -3 9 -9 14 -13 11 -14 -8 -42 67 -37 99 5 24 4 27 -3 11 -7 -14 -10 3 -10 61 -1 82 14 149 30 138 5 -3 6 2 3 10 -5 13 30 96 42 96 2 0 0 -9 -6 -20 -6 -11 -8 -20 -6 -20 8 0 37 58 34 67 -3 11 125 112 134 107 7 -5 98 54 98 63 0 6 -19 -6 -57 -35 -18 -13 -33 -22 -33 -19 0 2 25 24 56 47 32 24 54 38 50 31 -13 -20 5 -11 77 39 74 52 133 97 108 84 -10 -5 -12 -3 -7 5 5 7 14 10 22 7 7 -3 16 0 20 6 4 7 3 8 -4 4 -27 -16 -9 4 26 30 l37 27 -25 -28 -25 -28 38 27 c33 26 52 47 27 31 -5 -3 -10 -4 -10 -1 0 7 73 51 85 51 12 1 105 64 105 71 0 3 -24 -11 -52 -31 -29 -20 -41 -26 -27 -13 40 36 123 92 132 90 12 -4 82 47 82 59 0 7 11 19 25 28 24 15 24 15 11 -3 -17 -21 85 36 109 61 9 10 3 8 -15 -4 -74 -49 -74 -41 0 12 27 19 51 32 55 30 3 -2 17 6 30 17 l25 20 -27 -16 c-44 -26 -33 -9 12 19 23 14 45 23 51 20 5 -4 8 -1 7 7 -2 7 4 12 13 12 9 -1 28 8 41 20 13 11 18 17 11 12 -7 -5 -13 -6 -13 -3 0 11 131 98 139 92 5 -3 13 0 17 6 5 8 2 10 -7 5 -8 -4 -3 2 11 13 23 19 35 24 50 23 3 0 24 15 45 35 l40 35 -45 -32 -45 -32 45 40 c26 23 48 36 51 30 4 -7 9 -6 13 1 12 19 88 54 146 68 l55 13 -49 -5 c-27 -3 -73 -18 -102 -34 -30 -16 -51 -25 -48 -20 3 5 27 21 54 34 89 45 191 51 306 19z m-1017 -527 c-2 -2 -20 -14 -39 -26 l-35 -23 30 26 c17 14 34 26 39 26 5 0 7 -1 5 -3z m-2287 -89 c-6 -7 -12 -26 -15 -43 l-4 -30 -2 31 c0 16 4 35 11 42 16 16 23 15 10 0z m6897 -42 l-2 -31 -4 30 c-3 17 -10 37 -16 45 -10 13 -10 13 6 1 10 -8 16 -25 16 -45z m-6937 -108 c-2 -18 -10 -38 -17 -43 -7 -6 -15 -24 -18 -40 l-4 -30 -2 33 c0 21 4 35 14 38 8 4 15 18 15 33 0 23 7 41 15 41 1 0 0 -15 -3 -32z m6968 -8 c0 -15 7 -30 15 -34 10 -3 14 -17 14 -38 l-2 -33 -4 30 c-3 16 -11 34 -18 40 -14 11 -27 77 -13 69 4 -3 8 -18 8 -34z m-5080 -64 c0 -2 -17 -16 -37 -31 l-38 -26 35 30 c34 31 40 35 40 27z m-1928 -58 c-7 -7 -12 -28 -12 -47 0 -20 -4 -42 -9 -50 -5 -8 -7 5 -4 35 5 45 17 74 31 74 3 0 1 -5 -6 -12z m7061 -62 c3 -30 1 -43 -4 -35 -5 8 -9 30 -9 50 0 19 -4 40 -10 47 -6 8 -5 7 4 0 7 -7 16 -35 19 -62z m-5228 48 c-26 -20 -55 -36 -55 -30 0 5 63 46 70 46 3 -1 -4 -8 -15 -16z m-1882 -255 c-4 -4 -6 22 -3 59 l5 67 3 -59 c2 -32 -1 -63 -5 -67z m7139 39 c2 -25 0 -44 -4 -41 -5 2 -7 32 -7 66 2 65 6 55 11 -25z m-5002 -564 c-8 -8 -23 -20 -34 -25 -13 -7 -9 -1 9 15 34 29 43 33 25 10z m-2132 -760 l-3 -59 -5 67 c-3 37 -1 63 3 59 4 -4 7 -35 5 -67z m7132 9 l-5 -68 -3 54 c-3 47 1 81 10 81 2 0 1 -30 -2 -67z m-7100 -163 c0 -20 4 -41 10 -48 6 -8 5 -7 -4 0 -7 7 -16 35 -19 62 -3 30 -1 43 4 35 5 -8 9 -30 9 -49z m7073 13 c-3 -27 -12 -54 -19 -61 -9 -7 -10 -8 -4 0 6 7 10 26 10 44 0 29 8 64 15 64 1 0 0 -21 -2 -47z m-7038 -148 c14 -11 27 -77 13 -69 -4 3 -8 18 -8 34 0 15 -7 30 -15 34 -10 3 -14 17 -14 38 l2 33 4 -30 c3 -16 11 -34 18 -40z m7001 -1 c-9 -6 -16 -23 -16 -37 0 -14 -4 -28 -8 -31 -4 -2 -6 11 -4 30 3 20 11 38 18 41 8 3 15 19 15 37 l2 31 4 -30 c3 -19 -1 -33 -11 -41z m-6943 -194 c10 -13 10 -13 -5 -1 -11 8 -17 25 -17 45 l2 31 4 -30 c3 -16 10 -37 16 -45z m6880 1 c-10 -9 -12 -9 -5 -1 6 7 13 28 13 45 l2 30 4 -29 c3 -19 -1 -34 -14 -45z m-5813 -1585 c24 -19 27 -24 10 -15 -14 7 -97 85 -186 173 l-160 161 150 -146 c83 -80 167 -158 186 -173z m4920 160 c-91 -89 -176 -168 -190 -175 -17 -9 -13 -4 10 15 19 15 103 94 185 176 83 81 152 148 155 148 3 0 -69 -74 -160 -164z m-4550 -444 c3 -3 -10 3 -28 14 -18 10 -43 30 -55 43 -13 14 -1 8 28 -14 28 -20 52 -40 55 -43z m4082 56 c-11 -13 -36 -31 -54 -41 -32 -17 -32 -17 -8 0 13 10 36 28 50 40 33 29 39 29 12 1z"/>
 <path d="M1690 4299 c-35 -31 -35 -31 -3 -9 18 11 35 25 38 30 10 16 2 11 -35 -21z"/>
 <path d="M4356 4302 c10 -18 30 -43 43 -55 14 -13 8 -1 -14 28 -47 63 -53 69 -29 27z"/>
 <path d="M2610 4019 c-78 -57 -86 -69 -13 -20 34 22 65 45 68 51 9 14 6 13 -55 -31z"/>
 <path d="M2482 3926 c-44 -31 -55 -45 -17 -21 52 32 70 45 60 45 -6 -1 -25 -11 -43 -24z"/>
 <path d="M2300 3794 c-77 -57 -96 -74 -70 -59 22 12 150 107 150 111 0 7 -4 4 -80 -52z"/>
 <path d="M2080 6908 c-14 -6 -34 -14 -45 -18 -39 -14 -75 -33 -71 -37 2 -3 13 0 25 6 12 6 30 16 41 21 11 6 26 10 33 10 7 0 22 7 33 15 22 17 19 18 -16 3z"/>
 <path d="M5104 6905 c11 -8 26 -15 33 -15 7 0 22 -4 33 -10 11 -5 29 -15 41 -21 12 -6 23 -9 25 -6 4 4 -32 23 -71 37 -11 4 -33 13 -50 19 -28 10 -29 10 -11 -4z"/>
 <path d="M272 5088 c-15 -15 -16 -38 -1 -38 5 0 7 5 4 10 -4 6 -1 17 5 25 15 18 9 20 -8 3z"/>
 <path d="M6918 5088 c8 -9 11 -22 7 -28 -3 -5 -1 -10 4 -10 17 0 13 26 -6 41 -16 13 -17 12 -5 -3z"/>
 <path d="M260 2136 c0 -7 8 -20 18 -27 15 -13 16 -12 4 3 -8 9 -11 22 -7 28 3 5 1 10 -4 10 -6 0 -11 -6 -11 -14z"/>
 <path d="M6925 2140 c4 -6 1 -19 -7 -28 -12 -15 -11 -16 5 -3 19 15 23 41 6 41 -5 0 -7 -5 -4 -10z"/>
 <path d="M1976 335 c10 -8 26 -15 35 -15 9 0 19 -3 23 -7 3 -4 23 -12 44 -19 33 -12 35 -11 18 2 -11 7 -26 14 -33 14 -7 0 -22 5 -33 10 -11 6 -29 15 -40 20 -29 15 -37 12 -14 -5z"/>
 <path d="M5210 341 c-51 -27 -61 -31 -73 -31 -7 0 -22 -7 -33 -14 -17 -13 -15 -14 18 -2 21 7 41 15 44 19 4 4 14 7 23 7 9 0 25 7 35 15 21 16 12 19 -14 6z"/>
 </g>

</svg>