<!DOCTYPE svg PUBLIC "-//W3C//DTD SVG 20010904//EN" "http://www.w3.org/TR/2001/REC-SVG-20010904/DTD/svg10.dtd">
<svg version="1.0" xmlns="http://www.w3.org/2000/svg" width="240px" height="240px" viewBox="0 0 2400 2400" preserveAspectRatio="xMidYMid meet">
<g id="layer101" fill="#000000" stroke="none">
 <path d="M870 1865 l0 -535 -145 0 -145 0 0 -250 0 -250 144 0 144 0 4 -207 c4 -197 5 -212 31 -276 68 -173 191 -281 374 -328 62 -15 108 -19 247 -18 94 1 196 4 226 7 l55 7 3 115 c2 63 0 170 -3 238 l-7 122 -178 0 c-237 0 -224 -11 -228 189 l-4 151 217 0 217 0 -6 38 c-3 20 -8 120 -11 222 -4 102 -9 197 -11 213 l-6 27 -199 0 -199 0 0 535 0 535 -260 0 -260 0 0 -535z m410 -115 l0 -540 199 0 198 0 7 -52 c3 -29 6 -90 6 -135 l0 -83 -205 0 -205 0 0 -213 c0 -201 1 -215 23 -257 42 -82 88 -99 270 -100 l117 0 0 -124 0 -124 -87 -7 c-288 -24 -485 58 -573 239 -39 81 -50 161 -50 394 l0 192 -140 0 -140 0 0 135 0 135 140 0 140 0 0 540 0 540 150 0 150 0 0 -540z"/>
 </g>

</svg>