<!DOCTYPE svg PUBLIC "-//W3C//DTD SVG 20010904//EN" "http://www.w3.org/TR/2001/REC-SVG-20010904/DTD/svg10.dtd">
<svg version="1.0" xmlns="http://www.w3.org/2000/svg" width="240px" height="240px" viewBox="0 0 2400 2400" preserveAspectRatio="xMidYMid meet">
<g id="layer101" fill="#000000" stroke="none">
 <path d="M502 2380 c-114 -30 -205 -84 -298 -175 -93 -92 -147 -180 -181 -299 -23 -78 -23 -82 -23 -705 0 -603 1 -629 21 -701 33 -121 83 -204 179 -300 98 -98 184 -149 306 -180 73 -19 113 -20 694 -20 695 0 695 0 843 77 98 51 229 182 280 280 77 148 77 148 77 843 0 695 0 697 -77 844 -52 97 -182 227 -279 279 -147 77 -148 77 -848 76 -579 0 -626 -1 -694 -19z m1362 -83 c208 -61 376 -230 433 -438 16 -58 18 -122 18 -659 0 -537 -2 -601 -18 -659 -58 -210 -228 -380 -438 -438 -58 -16 -122 -18 -659 -18 -537 0 -601 2 -659 18 -210 58 -380 228 -438 438 -16 58 -18 122 -18 659 0 666 -1 653 72 794 68 129 213 250 356 296 76 24 185 28 732 26 494 -2 567 -4 619 -19z"/>
 <path d="M545 2142 c-121 -42 -214 -126 -268 -240 l-32 -67 0 -635 0 -635 32 -68 c44 -93 119 -169 212 -215 l75 -37 636 0 636 0 75 37 c93 46 168 122 212 215 l32 68 0 636 0 635 -37 75 c-46 93 -122 168 -215 212 l-68 32 -620 2 c-568 2 -624 1 -670 -15z m1285 -85 c98 -38 189 -129 227 -227 15 -40 17 -102 21 -568 4 -551 -2 -652 -38 -726 -53 -110 -160 -189 -281 -206 -83 -12 -1035 -12 -1117 -1 -167 25 -291 150 -313 318 -11 88 -11 1017 0 1105 12 87 43 151 106 213 58 59 124 94 198 105 29 5 300 7 602 6 496 -2 554 -4 595 -19z"/>
 <path d="M1037 1824 c-212 -51 -405 -244 -461 -460 -21 -81 -21 -247 0 -328 56 -218 250 -410 465 -461 82 -19 236 -19 318 0 217 52 414 249 466 466 19 82 19 236 0 318 -52 217 -249 414 -466 466 -80 18 -244 18 -322 -1z m348 -102 c163 -60 295 -200 344 -367 30 -99 26 -247 -7 -340 -55 -151 -186 -282 -337 -337 -93 -33 -241 -37 -340 -7 -167 49 -307 181 -367 344 -33 93 -37 241 -7 340 51 175 186 313 361 371 63 21 88 24 183 21 82 -3 125 -9 170 -25z"/>
 <path d="M1043 1616 c-124 -47 -220 -145 -264 -271 -18 -50 -20 -77 -17 -165 3 -94 7 -112 37 -173 42 -88 119 -165 208 -209 66 -32 72 -33 193 -33 121 0 127 1 193 33 88 43 166 121 209 209 32 66 33 72 33 193 0 121 -1 127 -33 193 -44 89 -121 166 -209 208 -62 31 -77 34 -178 36 -96 3 -118 0 -172 -21z m307 -97 c70 -33 136 -99 169 -169 22 -47 26 -69 26 -150 0 -81 -4 -103 -26 -150 -33 -70 -99 -136 -169 -169 -47 -22 -69 -26 -150 -26 -81 0 -103 4 -150 26 -120 57 -192 167 -198 304 -7 157 71 281 216 342 79 33 202 30 282 -8z"/>
 <path d="M1754 646 c-30 -30 -34 -40 -34 -86 0 -46 4 -56 34 -86 30 -30 40 -34 86 -34 46 0 56 4 86 34 30 30 34 40 34 86 0 46 -4 56 -34 86 -30 30 -40 34 -86 34 -46 0 -56 -4 -86 -34z"/>
 </g>

</svg>