<!DOCTYPE svg PUBLIC "-//W3C//DTD SVG 20010904//EN" "http://www.w3.org/TR/2001/REC-SVG-20010904/DTD/svg10.dtd">
<svg version="1.0" xmlns="http://www.w3.org/2000/svg" width="225px" height="225px" viewBox="0 0 2250 2250" preserveAspectRatio="xMidYMid meet">
<g id="layer101" fill="#000104" stroke="none">
 <path d="M0 1125 l0 -1125 1125 0 1125 0 0 1125 0 1125 -1125 0 -1125 0 0 -1125z"/>
 </g>
<g id="layer102" fill="#251c07" stroke="none">
 <path d="M0 1125 l0 -1125 1125 0 1125 0 0 1125 0 1125 -1125 0 -1125 0 0 -1125z m770 340 c0 -83 1 -85 24 -85 30 0 49 -22 44 -52 -3 -22 -7 -23 -110 -26 l-108 -3 0 41 c0 38 2 40 30 40 l30 0 0 85 0 85 45 0 45 0 0 -85z m130 70 c0 -11 12 -15 50 -15 38 0 50 4 50 15 0 11 12 15 46 15 40 0 45 -2 39 -17 -4 -10 -25 -66 -47 -125 l-40 -108 -48 0 -47 0 -44 117 c-24 64 -45 121 -47 125 -2 4 17 8 42 8 34 0 46 -4 46 -15z m326 -40 c16 -30 32 -55 37 -55 4 0 7 25 7 55 l0 55 40 0 40 0 0 -125 0 -125 -42 0 c-42 0 -44 1 -78 63 l-35 62 -3 -62 -3 -63 -39 0 -40 0 0 125 0 125 44 0 c43 0 44 -1 72 -55z m246 -2 l3 -58 20 33 c12 20 27 32 41 32 14 0 30 -12 43 -32 l21 -33 0 58 0 57 45 0 46 0 -3 -122 -3 -123 -42 -3 c-40 -3 -42 -2 -70 47 -15 28 -31 51 -36 51 -4 0 -21 -22 -38 -50 -28 -46 -34 -50 -70 -50 l-39 0 0 125 0 125 40 0 39 0 3 -57z m-209 -224 c14 -6 30 -22 36 -35 10 -22 9 -24 -19 -24 -17 0 -30 5 -30 10 0 6 -9 10 -19 10 -11 0 -23 -4 -26 -10 -6 -10 -55 -14 -55 -4 0 16 24 46 43 54 30 12 42 12 70 -1z m-563 -78 c5 -11 10 -61 10 -111 0 -110 -8 -130 -55 -130 l-35 0 0 130 0 130 35 0 c24 0 37 -6 45 -19z m118 7 c7 -7 12 -29 12 -51 0 -37 1 -38 33 -35 31 3 32 5 35 51 3 46 4 47 36 47 52 0 57 -14 54 -141 l-3 -114 -42 -3 -43 -3 0 50 0 51 -41 0 -41 0 6 -37 c8 -50 -3 -65 -45 -61 l-34 3 -3 114 c-1 63 0 121 2 128 7 16 58 17 74 1z"/>
 <path d="M930 1443 c0 -10 5 -25 10 -33 9 -13 11 -13 20 0 17 25 12 50 -10 50 -12 0 -20 -7 -20 -17z"/>
 </g>
<g id="layer103" fill="#362708" stroke="none">
 <path d="M0 1125 l0 -1125 1125 0 1125 0 0 1125 0 1125 -1125 0 -1125 0 0 -1125z m770 340 c0 -83 1 -85 24 -85 30 0 49 -22 44 -52 -3 -22 -7 -23 -110 -26 l-108 -3 0 41 c0 38 2 40 30 40 l30 0 0 85 0 85 45 0 45 0 0 -85z m130 70 c0 -11 12 -15 50 -15 38 0 50 4 50 15 0 11 12 15 46 15 40 0 45 -2 39 -17 -4 -10 -25 -66 -47 -125 l-40 -108 -48 0 -47 0 -44 117 c-24 64 -45 121 -47 125 -2 4 17 8 42 8 34 0 46 -4 46 -15z m326 -40 c16 -30 32 -55 37 -55 4 0 7 25 7 55 l0 55 40 0 40 0 0 -125 0 -125 -42 0 c-42 0 -44 1 -78 63 l-35 62 -3 -62 -3 -63 -39 0 -40 0 0 125 0 125 44 0 c43 0 44 -1 72 -55z m246 -2 l3 -58 20 33 c12 20 27 32 41 32 14 0 30 -12 43 -32 l21 -33 0 58 0 57 45 0 46 0 -3 -122 -3 -123 -42 -3 c-40 -3 -42 -2 -70 47 -15 28 -31 51 -36 51 -4 0 -21 -22 -38 -50 -28 -46 -34 -50 -70 -50 l-39 0 0 125 0 125 40 0 39 0 3 -57z m-209 -224 c14 -6 30 -22 36 -35 10 -22 9 -24 -19 -24 -17 0 -30 5 -30 10 0 6 -9 10 -19 10 -11 0 -23 -4 -26 -10 -6 -10 -55 -14 -55 -4 0 16 24 46 43 54 30 12 42 12 70 -1z m-563 -78 c5 -11 10 -61 10 -111 0 -110 -8 -130 -55 -130 l-35 0 0 130 0 130 35 0 c24 0 37 -6 45 -19z m118 7 c7 -7 12 -29 12 -51 0 -37 1 -38 33 -35 31 3 32 5 35 51 3 46 4 47 36 47 52 0 57 -14 54 -141 l-3 -114 -42 -3 -42 -3 -3 48 c-3 48 -3 48 -38 48 -31 0 -35 -3 -33 -25 1 -14 0 -35 -3 -48 -4 -20 -10 -23 -42 -20 l-37 3 -3 114 c-1 63 0 121 2 128 7 16 58 17 74 1z"/>
 <path d="M930 1443 c0 -10 5 -25 10 -33 9 -13 11 -13 20 0 17 25 12 50 -10 50 -12 0 -20 -7 -20 -17z"/>
 </g>
<g id="layer104" fill="#a87a0f" stroke="none">
 <path d="M0 1125 l0 -1125 1125 0 1125 0 0 1125 0 1125 -1125 0 -1125 0 0 -1125z m770 340 c0 -83 1 -85 24 -85 30 0 49 -22 44 -52 -3 -22 -7 -23 -110 -26 l-108 -3 0 41 c0 38 2 40 30 40 l30 0 0 85 0 85 45 0 45 0 0 -85z m130 70 c0 -11 12 -15 50 -15 38 0 50 4 50 15 0 11 12 15 46 15 40 0 45 -2 39 -17 -4 -10 -25 -66 -47 -125 l-40 -108 -48 0 -47 0 -44 117 c-24 64 -45 121 -47 125 -2 4 17 8 42 8 34 0 46 -4 46 -15z m326 -40 c16 -30 32 -55 37 -55 4 0 7 25 7 55 l0 55 40 0 40 0 0 -125 0 -125 -42 0 c-42 0 -44 1 -78 63 l-35 62 -3 -62 -3 -63 -39 0 -40 0 0 125 0 125 44 0 c43 0 44 -1 72 -55z m246 -2 l3 -58 20 33 c12 20 27 32 41 32 14 0 30 -12 43 -32 l21 -33 0 58 0 57 45 0 46 0 -3 -122 -3 -123 -42 -3 c-40 -3 -42 -2 -70 47 -15 28 -31 51 -36 51 -4 0 -21 -22 -38 -50 -28 -46 -34 -50 -70 -50 l-39 0 0 125 0 125 40 0 39 0 3 -57z m-209 -224 c14 -6 30 -22 36 -35 10 -22 9 -24 -19 -24 -17 0 -30 5 -30 10 0 6 -9 10 -19 10 -11 0 -23 -4 -26 -10 -6 -10 -55 -14 -55 -4 0 16 24 46 43 54 30 12 42 12 70 -1z m-553 -189 l0 -130 -45 0 -45 0 0 130 0 130 45 0 45 0 0 -130z m108 118 c7 -7 12 -29 12 -51 0 -37 1 -38 33 -35 31 3 32 5 35 51 3 46 4 47 36 47 52 0 57 -14 54 -141 l-3 -114 -42 -3 -43 -3 0 46 0 46 -37 -3 c-31 -2 -38 -7 -36 -23 2 -11 0 -30 -2 -43 -5 -20 -11 -23 -43 -20 l-37 3 -3 114 c-1 63 0 121 2 128 7 16 58 17 74 1z"/>
 <path d="M930 1443 c0 -10 5 -25 10 -33 9 -13 11 -13 20 0 17 25 12 50 -10 50 -12 0 -20 -7 -20 -17z"/>
 </g>
<g id="layer105" fill="#ca9311" stroke="none">
 <path d="M0 1125 l0 -1125 1125 0 1125 0 0 1125 0 1125 -1125 0 -1125 0 0 -1125z m770 340 c0 -83 1 -85 24 -85 30 0 49 -22 44 -52 -3 -22 -7 -23 -110 -26 l-108 -3 0 41 c0 38 2 40 30 40 l30 0 0 85 0 85 45 0 45 0 0 -85z m130 70 c0 -11 12 -15 50 -15 38 0 50 4 50 15 0 11 12 15 46 15 40 0 45 -2 39 -17 -4 -10 -25 -66 -47 -125 l-40 -108 -48 0 -47 0 -44 117 c-24 64 -45 121 -47 125 -2 4 17 8 42 8 34 0 46 -4 46 -15z m326 -40 c16 -30 32 -55 37 -55 4 0 7 25 7 55 l0 55 40 0 40 0 0 -125 0 -125 -42 0 c-42 0 -44 1 -78 63 l-35 62 -3 -62 -3 -63 -39 0 -40 0 0 125 0 125 44 0 c43 0 44 -1 72 -55z m246 -2 l3 -58 20 33 c12 20 27 32 41 32 14 0 30 -12 43 -32 l21 -33 0 58 0 57 45 0 46 0 -3 -122 -3 -123 -42 -3 c-40 -3 -42 -2 -70 47 -15 28 -31 51 -36 51 -4 0 -21 -22 -38 -50 -28 -46 -34 -50 -70 -50 l-39 0 0 125 0 125 40 0 39 0 3 -57z m-209 -224 c14 -6 30 -22 36 -35 10 -22 9 -24 -19 -24 -17 0 -30 5 -30 10 0 6 -9 10 -19 10 -11 0 -23 -4 -26 -10 -6 -10 -55 -14 -55 -4 0 16 24 46 43 54 30 12 42 12 70 -1z m-553 -189 l0 -130 -51 0 c-43 0 -50 3 -45 16 3 9 6 67 6 130 l0 114 45 0 45 0 0 -130z m120 79 l0 -50 33 3 c31 3 32 5 35 51 l3 47 45 0 45 0 -3 -127 -3 -128 -42 -3 -43 -3 0 46 0 46 -37 -3 c-31 -2 -38 -7 -36 -23 2 -11 0 -30 -2 -43 -5 -20 -11 -23 -43 -20 l-37 3 -3 114 c-1 63 0 121 2 128 3 8 22 13 46 13 l40 0 0 -51z"/>
 <path d="M930 1443 c0 -10 5 -25 10 -33 9 -13 11 -13 20 0 17 25 12 50 -10 50 -12 0 -20 -7 -20 -17z"/>
 </g>
<g id="layer106" fill="#fcb613" stroke="none">
 <path d="M0 1125 l0 -1125 1125 0 1125 0 0 1125 0 1125 -1125 0 -1125 0 0 -1125z m770 340 c0 -83 1 -85 24 -85 30 0 49 -22 44 -52 -3 -22 -7 -23 -110 -26 l-108 -3 0 41 c0 38 2 40 30 40 l30 0 0 85 0 85 45 0 45 0 0 -85z m130 70 c0 -11 12 -15 50 -15 38 0 50 4 50 15 0 11 12 15 46 15 40 0 45 -2 39 -17 -4 -10 -25 -66 -47 -125 l-40 -108 -48 0 -47 0 -44 117 c-24 64 -45 121 -47 125 -2 4 17 8 42 8 34 0 46 -4 46 -15z m326 -40 c16 -30 32 -55 37 -55 4 0 7 25 7 55 l0 55 40 0 40 0 0 -125 0 -125 -42 0 c-42 0 -44 1 -78 63 l-35 62 -3 -62 -3 -63 -39 0 -40 0 0 125 0 125 44 0 c43 0 44 -1 72 -55z m246 -2 l3 -58 20 33 c12 20 27 32 41 32 14 0 30 -12 43 -32 l21 -33 0 58 0 57 45 0 46 0 -3 -122 -3 -123 -42 -3 c-40 -3 -42 -2 -70 47 -15 28 -31 51 -36 51 -4 0 -21 -22 -38 -50 -28 -46 -34 -50 -70 -50 l-39 0 0 125 0 125 40 0 39 0 3 -57z m-209 -224 c14 -6 30 -22 36 -35 10 -22 9 -24 -19 -24 -17 0 -30 5 -30 10 0 6 -9 10 -19 10 -11 0 -23 -4 -26 -10 -6 -10 -55 -14 -55 -4 0 16 24 46 43 54 30 12 42 12 70 -1z m-553 -189 l0 -130 -51 0 c-43 0 -50 3 -45 16 3 9 6 67 6 130 l0 114 45 0 45 0 0 -130z m120 79 l0 -50 33 3 c31 3 32 4 31 51 l0 47 48 0 49 0 -3 -127 -3 -128 -48 -3 c-46 -3 -48 -2 -42 18 4 12 4 33 1 46 -6 21 -12 25 -39 22 -25 -2 -32 -7 -30 -23 2 -11 0 -30 -2 -43 -5 -20 -11 -23 -43 -20 l-37 3 -3 114 c-1 63 0 121 2 128 3 8 22 13 46 13 l40 0 0 -51z"/>
 <path d="M930 1443 c0 -10 5 -25 10 -33 9 -13 11 -13 20 0 17 25 12 50 -10 50 -12 0 -20 -7 -20 -17z"/>
 </g>
<g id="layer107" fill="#ffc716" stroke="none">
 <path d="M0 1125 l0 -1125 1125 0 1125 0 0 1125 0 1125 -1125 0 -1125 0 0 -1125z m770 340 c0 -83 1 -85 24 -85 30 0 49 -22 44 -52 -3 -22 -7 -23 -110 -26 l-108 -3 0 41 c0 38 2 40 30 40 l30 0 0 85 0 85 45 0 45 0 0 -85z m130 70 c0 -11 12 -15 50 -15 38 0 50 4 50 15 0 11 12 15 46 15 40 0 45 -2 39 -17 -4 -10 -25 -66 -47 -125 l-40 -108 -48 0 -47 0 -44 117 c-24 64 -45 121 -47 125 -2 4 17 8 42 8 34 0 46 -4 46 -15z m326 -40 c16 -30 32 -55 37 -55 4 0 7 25 7 55 l0 55 40 0 40 0 0 -125 0 -125 -42 0 c-42 0 -44 1 -78 63 l-35 62 -3 -62 -3 -63 -39 0 -40 0 0 125 0 125 44 0 c43 0 44 -1 72 -55z m246 -2 l3 -58 20 33 c12 20 27 32 41 32 14 0 30 -12 43 -32 l21 -33 0 58 0 57 45 0 46 0 -3 -122 -3 -123 -42 -3 c-40 -3 -42 -2 -70 47 -15 28 -31 51 -36 51 -4 0 -21 -22 -38 -50 -28 -46 -34 -50 -70 -50 l-39 0 0 125 0 125 40 0 39 0 3 -57z m-209 -224 c14 -6 30 -22 36 -35 10 -22 9 -24 -19 -24 -17 0 -30 5 -30 10 0 6 -9 10 -19 10 -11 0 -23 -4 -26 -10 -6 -10 -55 -14 -55 -4 0 16 24 46 43 54 30 12 42 12 70 -1z m-174 -121 l101 -101 0 -174 0 -173 -207 0 -208 0 -102 100 -103 101 0 173 c0 95 2 175 4 177 2 2 97 3 210 1 l205 -3 100 -101z"/>
 <path d="M930 1443 c0 -10 5 -25 10 -33 9 -13 11 -13 20 0 17 25 12 50 -10 50 -12 0 -20 -7 -20 -17z"/>
 <path d="M643 1213 c15 -2 37 -2 50 0 12 2 0 4 -28 4 -27 0 -38 -2 -22 -4z"/>
 <path d="M768 1213 c12 -2 30 -2 40 0 9 3 -1 5 -23 4 -22 0 -30 -2 -17 -4z"/>
 <path d="M918 1213 c12 -2 32 -2 45 0 12 2 2 4 -23 4 -25 0 -35 -2 -22 -4z"/>
 <path d="M994 1080 c0 -74 1 -105 3 -67 2 37 2 97 0 135 -2 37 -3 6 -3 -68z"/>
 <path d="M600 1073 c0 -86 3 -123 10 -113 13 20 13 227 0 235 -6 4 -10 -39 -10 -122z"/>
 <path d="M714 1075 c0 -71 1 -99 3 -62 2 37 2 96 0 130 -2 34 -3 4 -3 -68z"/>
 <path d="M833 1160 c0 -25 2 -35 4 -22 2 12 2 32 0 45 -2 12 -4 2 -4 -23z"/>
 <path d="M843 1033 c9 -2 25 -2 35 0 9 3 1 5 -18 5 -19 0 -27 -2 -17 -5z"/>
 <path d="M832 990 c0 -19 2 -27 5 -17 2 9 2 25 0 35 -3 9 -5 1 -5 -18z"/>
 </g>
<g id="layer108" fill="#a0a0a1" stroke="none">
 <path d="M0 1125 l0 -1125 1125 0 1125 0 0 1125 0 1125 -1125 0 -1125 0 0 -1125z m770 340 c0 -83 1 -85 24 -85 30 0 49 -22 44 -52 -3 -22 -7 -23 -110 -26 l-108 -3 0 41 c0 38 2 40 30 40 l30 0 0 85 0 85 45 0 45 0 0 -85z m130 70 c0 -11 12 -15 50 -15 38 0 50 4 50 15 0 11 12 15 46 15 40 0 45 -2 39 -17 -4 -10 -25 -66 -47 -125 l-40 -108 -48 0 -47 0 -44 117 c-24 64 -45 121 -47 125 -2 4 17 8 42 8 34 0 46 -4 46 -15z m326 -40 c16 -30 32 -55 37 -55 4 0 7 25 7 55 l0 55 40 0 40 0 0 -125 0 -125 -42 0 c-42 0 -44 1 -78 63 l-35 62 -3 -62 -3 -63 -39 0 -40 0 0 125 0 125 44 0 c43 0 44 -1 72 -55z m246 -2 l3 -58 20 33 c12 20 27 32 41 32 14 0 30 -12 43 -32 l21 -33 0 58 0 57 45 0 46 0 -3 -122 -3 -123 -42 -3 c-40 -3 -42 -2 -70 47 -15 28 -31 51 -36 51 -4 0 -21 -22 -38 -50 -28 -46 -34 -50 -70 -50 l-39 0 0 125 0 125 40 0 39 0 3 -57z m-209 -224 c14 -6 30 -22 36 -35 10 -22 9 -24 -19 -24 -17 0 -30 5 -30 10 0 6 -9 10 -19 10 -11 0 -23 -4 -26 -10 -6 -10 -55 -14 -55 -4 0 16 24 46 43 54 30 12 42 12 70 -1z m-174 -115 l101 -96 0 -179 0 -179 -207 0 -208 0 -102 100 -103 101 0 173 c0 95 2 175 4 177 2 2 97 3 210 1 l205 -3 100 -95z"/>
 <path d="M930 1443 c0 -10 5 -25 10 -33 9 -13 11 -13 20 0 17 25 12 50 -10 50 -12 0 -20 -7 -20 -17z"/>
 </g>
<g id="layer109" fill="#f9cd67" stroke="none">
 <path d="M0 1125 l0 -1125 1125 0 1125 0 0 1125 0 1125 -1125 0 -1125 0 0 -1125z m770 340 l0 -85 36 0 c35 0 35 -1 32 -37 l-3 -38 -114 -3 c-101 -2 -113 -1 -107 13 3 9 6 28 6 41 0 20 5 24 30 24 l30 0 0 85 0 85 45 0 45 0 0 -85z m130 70 c0 -11 12 -15 50 -15 38 0 50 4 50 15 0 11 12 15 46 15 40 0 45 -2 39 -17 -4 -10 -25 -66 -47 -125 l-40 -108 -48 0 -47 0 -44 117 c-24 64 -45 121 -47 125 -2 4 17 8 42 8 34 0 46 -4 46 -15z m326 -40 c16 -30 32 -55 37 -55 4 0 7 25 7 55 l0 55 40 0 40 0 0 -125 0 -125 -42 0 c-41 0 -44 2 -71 51 -15 27 -32 47 -37 44 -6 -3 -10 -26 -10 -51 l0 -44 -40 0 -40 0 0 125 0 125 44 0 c43 0 44 -1 72 -55z m244 16 c0 -47 14 -60 32 -31 19 30 53 25 77 -12 l21 -33 0 58 0 57 45 0 46 0 -3 -122 -3 -123 -42 -3 c-40 -3 -42 -2 -70 47 -15 28 -31 51 -36 51 -4 0 -21 -22 -38 -50 -28 -46 -34 -50 -70 -50 l-39 0 0 109 c0 60 -3 116 -6 125 -5 13 2 16 40 16 l46 0 0 -39z m-207 -242 c21 -10 53 -56 45 -64 -7 -7 -58 8 -58 16 0 14 -23 11 -59 -7 -39 -19 -48 -13 -33 21 18 39 63 53 105 34z m-174 -115 l101 -96 0 -179 0 -179 -207 0 -208 0 -102 100 -103 101 0 173 c0 95 2 175 4 177 2 2 97 3 210 1 l205 -3 100 -95z"/>
 <path d="M936 1433 c9 -36 13 -40 24 -23 17 26 11 50 -10 50 -17 0 -19 -4 -14 -27z"/>
 </g>
<g id="layer110" fill="#d4d4d5" stroke="none">
 <path d="M0 1125 l0 -1125 1125 0 1125 0 0 1125 0 1125 -1125 0 -1125 0 0 -1125z m770 340 l0 -85 36 0 c35 0 35 -1 32 -37 l-3 -38 -114 -3 c-101 -2 -113 -1 -107 13 3 9 6 28 6 41 0 20 5 24 30 24 l30 0 0 85 0 85 45 0 45 0 0 -85z m130 70 c0 -11 12 -15 50 -15 38 0 50 4 50 15 0 11 12 15 46 15 40 0 45 -2 39 -17 -4 -10 -25 -66 -47 -125 l-40 -108 -48 0 -47 0 -44 117 c-24 64 -45 121 -47 125 -2 4 17 8 42 8 34 0 46 -4 46 -15z m326 -40 c16 -30 32 -55 37 -55 4 0 7 25 7 55 l0 55 40 0 40 0 0 -125 0 -125 -42 0 c-41 0 -44 2 -71 51 -15 27 -32 47 -37 44 -6 -3 -10 -26 -10 -51 l0 -44 -40 0 -40 0 0 125 0 125 44 0 c43 0 44 -1 72 -55z m244 16 c0 -47 14 -60 32 -31 19 30 53 25 77 -12 l21 -33 0 58 0 57 45 0 46 0 -3 -122 -3 -123 -42 -3 c-40 -3 -42 -2 -70 47 -15 28 -31 51 -36 51 -4 0 -21 -22 -38 -50 -28 -46 -34 -50 -70 -50 l-39 0 0 109 c0 60 -3 116 -6 125 -5 13 2 16 40 16 l46 0 0 -39z m-207 -242 c21 -10 53 -56 45 -64 -7 -7 -58 8 -58 16 0 14 -23 11 -59 -7 -39 -19 -48 -13 -33 21 18 39 63 53 105 34z m-176 -111 l103 -103 0 -177 0 -178 -211 0 -210 0 -105 102 -104 101 0 179 0 178 212 0 213 0 102 -102z"/>
 <path d="M936 1433 c9 -36 13 -40 24 -23 17 26 11 50 -10 50 -17 0 -19 -4 -14 -27z"/>
 </g>
<g id="layer111" fill="#f4ebcf" stroke="none">
 <path d="M0 1125 l0 -1125 1125 0 1125 0 0 1125 0 1125 -1125 0 -1125 0 0 -1125z m770 340 l0 -85 36 0 c35 0 35 -1 32 -37 l-3 -38 -114 -3 c-101 -2 -113 -1 -107 13 3 9 6 28 6 41 0 20 5 24 30 24 l30 0 0 85 0 85 45 0 45 0 0 -85z m130 70 c0 -11 12 -15 50 -15 38 0 50 4 50 15 0 11 12 15 46 15 40 0 45 -2 39 -17 -4 -10 -10 -29 -13 -43 -3 -14 -11 -34 -17 -45 -7 -11 -22 -48 -35 -82 l-22 -63 -46 0 c-47 0 -71 18 -72 53 0 9 -9 34 -20 54 -11 21 -20 43 -20 49 0 7 -7 25 -15 40 -24 46 -20 54 30 54 33 0 45 -4 45 -15z m329 -42 c14 -29 28 -53 33 -53 4 0 8 25 8 55 l0 55 40 0 40 0 0 -125 0 -125 -41 0 c-45 0 -60 12 -85 68 -19 43 -34 32 -34 -24 l0 -44 -45 0 -45 0 0 126 0 125 53 -3 52 -3 24 -52z m241 18 c0 -47 14 -60 32 -31 23 36 73 19 91 -30 3 -8 6 11 6 43 l1 57 45 0 46 0 -3 -122 -3 -123 -45 -3 c-48 -3 -50 -1 -80 71 -7 15 -16 27 -20 27 -4 0 -19 -21 -33 -47 -23 -46 -27 -48 -71 -51 l-46 -3 0 110 c0 60 -3 116 -6 125 -5 13 2 16 40 16 l46 0 0 -39z m-183 -253 c13 -12 23 -30 23 -40 0 -15 -5 -17 -27 -12 -16 4 -29 11 -31 16 -6 13 -32 9 -38 -5 -5 -15 -64 -19 -64 -5 0 58 92 88 137 46z m-200 -100 l103 -103 0 -177 0 -178 -211 0 -210 0 -105 102 -104 101 0 179 0 178 212 0 213 0 102 -102z"/>
 <path d="M930 1454 c0 -15 22 -44 31 -39 18 12 10 45 -11 45 -11 0 -20 -3 -20 -6z"/>
 </g>
<g id="layer112" fill="#ffffff" stroke="none">
 <path d="M0 1125 l0 -1125 1125 0 1125 0 0 1125 0 1125 -1125 0 -1125 0 0 -1125z m778 340 l-3 -85 33 0 c32 0 33 -1 30 -37 l-3 -38 -114 -3 c-101 -2 -113 -1 -107 13 3 9 6 28 6 41 0 20 5 24 30 24 l30 0 0 85 0 85 51 0 50 0 -3 -85z m127 75 c3 -5 26 -10 51 -10 24 0 44 5 44 10 0 6 41 10 104 10 100 0 105 -1 112 -22 9 -30 40 -69 48 -61 3 3 6 24 6 45 0 38 0 38 40 38 l40 0 0 -126 0 -125 -47 3 c-46 3 -49 5 -72 50 -12 27 -27 45 -32 42 -5 -3 -9 -25 -9 -50 l0 -44 -45 0 -45 0 0 123 c-1 109 -2 120 -15 103 -8 -11 -15 -29 -15 -40 0 -12 -7 -30 -15 -40 -8 -11 -15 -29 -15 -39 0 -11 -10 -39 -22 -63 -21 -43 -23 -44 -68 -44 -39 0 -48 4 -57 23 -26 53 -42 94 -49 121 -4 16 -13 41 -20 55 -23 43 -18 51 30 51 25 0 48 -4 51 -10z m565 -29 c0 -44 18 -65 27 -32 7 27 49 28 77 2 l21 -20 -3 45 -4 44 51 0 52 0 -3 -122 -3 -123 -45 -3 c-44 -3 -45 -2 -76 49 l-31 51 -25 -48 c-24 -47 -28 -49 -72 -52 l-46 -3 0 110 c0 60 -3 116 -6 125 -5 13 2 16 40 16 l46 0 0 -39z m-183 -253 c13 -12 23 -30 23 -40 0 -15 -5 -17 -27 -12 -16 4 -29 11 -31 16 -6 13 -32 9 -38 -5 -3 -8 -18 -14 -35 -14 -28 0 -30 3 -24 26 8 31 5 28 35 40 40 16 72 12 97 -11z m-197 -101 l105 -102 -3 -177 -3 -178 -210 0 -210 0 -105 102 -104 101 0 179 0 178 213 0 212 -1 105 -102z"/>
 <path d="M943 1445 c-3 -9 -3 -18 0 -21 9 -9 27 6 27 22 0 19 -19 18 -27 -1z"/>
 </g>

</svg>