<!DOCTYPE svg PUBLIC "-//W3C//DTD SVG 20010904//EN" "http://www.w3.org/TR/2001/REC-SVG-20010904/DTD/svg10.dtd">
<svg version="1.0" xmlns="http://www.w3.org/2000/svg" width="1024px" height="950px" viewBox="0 0 10240 9500" preserveAspectRatio="xMidYMid meet">
<g id="layer101" fill="#008ccf" stroke="none">
 <path d="M10 8960 l0 -530 135 0 135 0 0 530 0 530 -135 0 -135 0 0 -530z"/>
 <path d="M870 9419 c-47 -39 -137 -117 -200 -173 -146 -130 -286 -253 -329 -289 l-34 -28 24 -24 c13 -13 152 -125 309 -249 l285 -226 188 0 c103 0 187 3 187 6 0 14 -235 194 -472 361 -98 69 -178 128 -178 132 0 4 71 63 158 132 160 126 485 390 512 415 12 12 -13 14 -175 14 l-190 0 -85 -71z"/>
 <path d="M1530 8960 l0 -530 130 0 130 0 0 375 c0 206 3 375 8 375 4 0 171 -169 371 -375 l363 -375 154 0 154 0 0 530 0 530 -132 0 -133 0 3 -322 c2 -178 2 -349 0 -381 l-3 -58 -355 372 c-195 204 -365 375 -378 380 -13 5 -88 9 -168 9 l-144 0 0 -530z"/>
 <path d="M3130 9037 c0 -250 3 -488 6 -530 l7 -77 128 0 129 0 0 530 0 530 -135 0 -135 0 0 -453z"/>
 <path d="M3690 8960 l0 -531 473 3 c342 3 482 7 509 16 164 55 237 226 163 377 -15 31 -42 67 -60 82 l-33 26 41 31 c56 42 104 108 118 159 16 59 6 163 -19 213 -12 23 -42 60 -67 82 -83 73 -78 72 -632 72 l-493 0 0 -530z m914 298 c47 -42 56 -88 27 -135 -42 -68 -43 -68 -373 -71 l-298 -3 0 120 0 121 303 0 304 0 37 -32z m-48 -425 c17 -12 38 -36 46 -54 14 -28 14 -35 -1 -70 -27 -65 -49 -69 -366 -69 l-275 0 0 110 0 111 283 -3 c273 -3 283 -4 313 -25z"/>
 <path d="M5283 9469 c-67 -26 -147 -98 -179 -161 -60 -118 -59 -570 2 -695 46 -95 158 -165 295 -183 96 -12 495 -12 581 0 191 28 298 123 329 293 18 99 20 97 -124 97 l-124 0 -7 -31 c-9 -47 -44 -97 -79 -116 -28 -15 -66 -17 -277 -17 -264 0 -277 2 -327 56 -39 42 -45 76 -46 248 -1 157 0 169 23 215 15 30 38 57 57 68 46 26 200 39 381 31 147 -6 154 -8 205 -38 50 -30 52 -33 55 -79 l3 -47 135 0 134 0 0 38 c0 48 -21 126 -48 177 -28 56 -77 99 -147 132 l-60 28 -365 2 c-345 2 -368 1 -417 -18z"/>
 <path d="M6920 9075 l0 -415 -230 0 -230 0 0 -115 0 -115 600 0 600 0 0 115 0 115 -240 0 -240 0 0 415 0 415 -130 0 -130 0 0 -415z"/>
 <path d="M7500 9486 c0 -10 473 -897 548 -1028 l16 -28 166 0 166 0 44 83 c24 45 139 260 255 477 117 217 224 419 239 448 l26 52 -158 0 -159 0 -61 -130 -61 -130 -208 0 c-114 0 -245 -3 -290 -7 l-83 -6 -64 137 -65 136 -156 0 c-85 0 -155 -2 -155 -4z m900 -494 c0 -4 -39 -86 -86 -182 l-86 -175 -66 130 c-36 72 -76 154 -88 183 l-24 52 175 0 c96 0 175 -3 175 -8z"/>
 <path d="M9087 9368 c-9 -156 -9 -679 0 -825 l6 -113 411 0 c456 0 488 3 580 62 114 74 162 178 154 338 -8 159 -66 252 -197 314 l-66 31 -312 3 -313 4 0 154 0 154 -128 0 -129 0 -6 -122z m783 -411 c76 -37 93 -59 98 -124 5 -78 -21 -143 -70 -170 -29 -16 -64 -18 -290 -21 l-258 -3 0 171 0 172 243 -4 c204 -3 248 -6 277 -21z"/>
 <path d="M3043 8353 l-73 -4 0 -104 0 -105 125 0 125 0 0 105 c0 93 -2 105 -17 105 -10 0 -34 2 -53 4 -19 1 -68 1 -107 -1z"/>
 <path d="M3320 8248 l0 -108 125 0 125 0 0 109 0 109 -125 -2 -125 -1 0 -107z"/>
 <path d="M2650 7629 c1 -28 -23 31 360 -899 166 -404 439 -1068 606 -1475 168 -407 336 -803 374 -880 227 -460 560 -784 1005 -979 298 -130 653 -211 1055 -241 41 -3 185 -14 320 -25 135 -11 409 -31 610 -45 201 -14 473 -34 605 -44 132 -11 283 -23 335 -26 52 -3 174 -12 270 -20 96 -8 225 -17 285 -20 61 -3 205 -15 321 -26 116 -11 237 -19 270 -17 l59 3 -60 45 c-33 24 -132 88 -220 141 -88 53 -218 133 -289 178 -139 87 -162 96 -276 105 -177 14 -1269 107 -1525 131 -154 14 -390 34 -525 45 -299 25 -370 34 -530 66 -431 87 -748 248 -1044 534 -262 253 -387 444 -826 1265 -189 352 -434 810 -546 1017 -215 398 -262 489 -247 473 11 -11 85 -139 668 -1155 533 -929 529 -921 607 -1045 203 -320 439 -572 684 -731 305 -197 638 -292 1169 -334 137 -11 448 -38 690 -60 242 -21 510 -44 595 -50 85 -6 265 -22 400 -36 135 -14 270 -24 300 -22 l55 3 -130 86 c-71 47 -234 149 -361 227 -269 164 -253 159 -614 192 -118 10 -341 30 -495 44 -154 14 -336 33 -405 41 -663 84 -1110 317 -1521 792 -100 117 -107 125 -664 888 -225 308 -526 720 -668 915 -143 195 -265 362 -270 370 -58 82 138 -167 839 -1069 672 -866 840 -1076 939 -1175 351 -354 693 -530 1191 -615 67 -11 247 -32 400 -46 154 -14 383 -37 509 -51 127 -14 248 -24 270 -22 l40 3 -160 104 c-213 138 -639 399 -695 427 -25 12 -76 25 -115 29 -407 39 -681 130 -965 320 -227 151 -265 189 -1295 1250 -351 363 -729 752 -840 865 -110 113 -187 194 -170 180 44 -38 580 -539 1334 -1250 371 -349 717 -675 769 -723 273 -253 602 -423 932 -481 110 -20 371 -40 380 -29 4 4 37 85 75 178 73 184 450 1110 835 2050 132 324 248 597 255 606 20 21 19 31 -4 27 -11 -2 -315 -255 -677 -563 -362 -308 -823 -699 -1024 -869 -201 -170 -397 -337 -436 -371 -156 -135 -232 -170 -355 -162 -94 6 -179 44 -273 120 -69 56 -1127 952 -1556 1317 -146 124 -305 256 -355 295 -49 38 -132 110 -182 159 -79 76 -93 85 -93 65z m260 -384 c-21 -23 -40 -25 -40 -5 0 7 37 25 59 29 3 1 -6 -10 -19 -24z"/>
 <path d="M2440 3749 c-718 -445 -1312 -814 -1320 -819 -19 -12 184 -4 395 16 83 7 371 30 640 49 270 19 567 42 660 50 179 15 487 39 740 56 83 6 274 21 425 35 151 13 298 24 326 24 l50 0 18 -77 c10 -43 155 -636 323 -1318 167 -682 327 -1334 354 -1450 54 -229 76 -305 89 -305 4 0 11 24 14 52 4 29 61 273 127 543 66 269 156 636 199 815 44 179 131 539 195 800 124 509 185 772 185 799 0 14 -18 19 -95 29 -592 80 -1094 300 -1438 632 -200 191 -394 480 -528 783 -24 53 -45 97 -48 96 -3 0 -593 -365 -1311 -810z"/>
 </g>

</svg>