<!DOCTYPE svg PUBLIC "-//W3C//DTD SVG 20010904//EN" "http://www.w3.org/TR/2001/REC-SVG-20010904/DTD/svg10.dtd">
<svg version="1.0" xmlns="http://www.w3.org/2000/svg" width="321px" height="46px" viewBox="0 0 3210 460" preserveAspectRatio="xMidYMid meet">
<g id="layer101" fill="#141327" stroke="none">
 <path d="M1333 439 c-88 -44 -127 -117 -121 -224 4 -85 33 -138 100 -182 37 -25 50 -28 128 -28 78 0 91 3 128 28 23 15 54 46 69 69 25 37 28 50 28 128 0 78 -3 91 -28 128 -45 69 -97 96 -186 100 -62 2 -84 -1 -118 -19z m64 -145 c-2 -2 -12 -2 -21 2 -13 5 -14 9 -5 21 11 12 14 12 22 -2 5 -9 7 -19 4 -21z m108 3 c-20 -11 -27 -5 -19 17 5 13 9 14 21 5 12 -11 12 -14 -2 -22z m-145 -102 c-7 -8 -14 -15 -15 -15 -2 0 -5 7 -9 15 -4 10 1 15 16 15 17 0 18 -2 8 -15z m184 0 c-5 -12 -10 -13 -20 -4 -19 15 -18 19 6 19 13 0 18 -5 14 -15z m-91 -55 c4 -15 0 -20 -13 -20 -13 0 -17 5 -13 20 3 11 9 20 13 20 4 0 10 -9 13 -20z"/>
 <path d="M513 436 c-17 -8 -36 -23 -41 -33 -5 -10 -12 -100 -16 -201 l-7 -182 77 0 77 0 -7 128 c-4 70 -4 140 -1 155 10 39 40 53 71 32 24 -15 24 -18 24 -165 l0 -150 70 0 70 0 0 158 c0 252 -9 265 -179 270 -76 2 -115 -2 -138 -12z"/>
 <path d="M1722 406 c-28 -60 -28 -76 2 -76 13 0 34 -9 47 -19 l24 -19 -23 -29 c-50 -63 -57 -78 -57 -124 0 -33 6 -54 20 -69 26 -30 92 -60 131 -60 28 0 33 5 48 43 21 55 20 67 -3 67 -29 0 -51 11 -51 24 0 7 16 33 35 58 43 55 53 101 32 150 -19 46 -82 89 -139 95 -43 5 -43 5 -66 -41z"/>
 <path d="M2070 428 c-107 -55 -143 -214 -73 -327 40 -65 90 -91 176 -91 74 0 121 15 151 49 19 21 19 22 -2 66 -25 51 -37 54 -98 24 -39 -19 -45 -19 -72 -5 -64 33 -65 138 -1 172 28 14 33 14 73 -5 57 -28 67 -27 94 14 27 42 28 57 5 77 -61 54 -175 65 -253 26z"/>
 <path d="M0 425 c0 -18 138 -397 148 -407 4 -4 36 -4 71 0 l64 7 73 185 c40 102 73 195 73 208 1 21 -3 22 -73 22 l-74 0 -7 -30 c-6 -29 -9 -30 -61 -30 -52 0 -56 2 -65 30 -11 29 -12 30 -80 30 -55 0 -69 -3 -69 -15z m226 -177 c-3 -13 -6 -27 -6 -33 0 -5 -5 -3 -10 5 -15 23 -12 50 6 50 12 0 15 -6 10 -22z"/>
 <path d="M947 285 l6 -155 -53 0 -53 0 7 -38 c3 -20 6 -44 6 -53 0 -13 22 -15 160 -16 l160 0 0 53 0 54 -45 0 -45 0 0 155 0 155 -75 0 -75 0 7 -155z"/>
 <path d="M2340 425 c0 -18 138 -397 148 -407 4 -4 36 -4 71 0 l64 7 73 185 c40 102 73 195 73 208 1 21 -3 22 -73 22 l-74 0 -7 -30 c-6 -29 -9 -30 -61 -30 -52 0 -56 2 -65 30 -11 29 -12 30 -80 30 -55 0 -69 -3 -69 -15z m226 -177 c-3 -13 -6 -27 -6 -33 0 -5 -5 -3 -10 5 -15 23 -12 50 6 50 12 0 15 -6 10 -22z"/>
 <path d="M2795 225 l0 -215 65 0 65 0 70 99 70 100 3 -100 3 -99 71 0 71 0 -6 137 c-4 75 -7 171 -7 215 l0 78 -63 0 -63 0 -69 -95 c-37 -52 -70 -95 -73 -95 -3 0 -2 43 2 95 l6 95 -72 0 -73 0 0 -215z"/>
 </g>
<g id="layer102" fill="#a30303" stroke="none">
 <path d="M1722 406 c-28 -60 -28 -76 2 -76 13 0 34 -9 47 -19 l24 -19 -23 -29 c-50 -63 -57 -78 -57 -124 0 -33 6 -54 20 -69 26 -30 92 -60 131 -60 28 0 33 5 48 43 21 55 20 67 -3 67 -29 0 -51 11 -51 24 0 7 16 33 35 58 43 55 53 101 32 150 -19 46 -82 89 -139 95 -43 5 -43 5 -66 -41z"/>
 <path d="M2070 428 c-107 -55 -143 -214 -73 -327 40 -65 90 -91 176 -91 74 0 121 15 151 49 19 21 19 22 -2 66 -25 51 -37 54 -98 24 -39 -19 -45 -19 -72 -5 -64 33 -65 138 -1 172 28 14 33 14 73 -5 57 -28 67 -27 94 14 27 42 28 57 5 77 -61 54 -175 65 -253 26z"/>
 <path d="M1429 435 c-3 -2 -21 -7 -40 -9 -49 -6 -66 -15 -97 -46 -42 -43 -66 -91 -50 -101 10 -7 10 -9 1 -9 -20 0 -16 -69 5 -88 10 -10 12 -13 5 -8 -22 15 -25 1 -6 -34 36 -66 128 -134 144 -108 7 10 9 10 9 1 0 -8 15 -13 40 -13 25 0 40 5 40 13 0 9 2 9 9 -1 6 -10 14 -9 40 5 66 36 100 81 107 140 1 11 5 30 9 42 3 12 2 21 -3 21 -5 0 -15 19 -23 42 -18 55 -72 109 -127 127 -23 8 -42 18 -42 23 0 9 -14 11 -21 3z m-89 -50 c-7 -8 -17 -15 -22 -15 -6 0 -5 7 2 15 7 8 17 15 22 15 6 0 5 -7 -2 -15z m177 -1 c77 -37 117 -149 79 -225 -20 -40 -20 -45 -1 -29 8 7 15 9 15 6 0 -4 -7 -14 -15 -22 -9 -9 -15 -11 -15 -4 0 6 -17 -2 -37 -17 -31 -24 -46 -28 -103 -28 -57 0 -72 4 -103 28 -20 15 -37 23 -37 17 0 -7 -6 -5 -15 4 -8 8 -15 18 -15 22 0 3 7 1 15 -6 19 -16 19 -10 0 26 -8 16 -15 49 -15 74 0 25 7 58 15 74 19 36 19 42 0 26 -8 -7 -15 -9 -15 -6 0 4 7 14 15 22 10 11 15 12 15 3 0 -8 6 -7 18 4 53 48 135 61 199 31z m-177 -309 c7 -8 8 -15 2 -15 -5 0 -15 7 -22 15 -7 8 -8 15 -2 15 5 0 15 -7 22 -15z m220 0 c-7 -8 -17 -15 -22 -15 -6 0 -5 7 2 15 7 8 17 15 22 15 6 0 5 -7 -2 -15z"/>
 <path d="M1416 304 c6 -35 6 -37 -17 -32 -13 3 -32 9 -41 13 -13 5 -20 1 -27 -16 -11 -31 -6 -39 29 -39 38 0 43 -19 13 -51 l-24 -26 24 -16 c24 -16 25 -15 37 13 16 39 43 38 61 -1 l15 -31 24 20 25 20 -27 21 c-33 27 -27 51 14 51 26 0 29 3 26 28 -3 28 -7 29 -62 16 -28 -7 -29 -7 -22 30 7 35 6 36 -24 36 -30 0 -31 -1 -24 -36z m38 -50 c9 -3 16 -14 16 -24 0 -20 -23 -32 -45 -24 -18 7 -20 40 -2 47 6 3 13 6 14 6 1 1 8 -2 17 -5z"/>
 <path d="M2340 425 c0 -18 138 -397 148 -407 4 -4 36 -4 71 0 l64 7 73 185 c40 102 73 195 73 208 1 21 -3 22 -73 22 l-74 0 -7 -30 c-6 -29 -9 -30 -61 -30 -52 0 -56 2 -65 30 -11 29 -12 30 -80 30 -55 0 -69 -3 -69 -15z m226 -177 c-3 -13 -6 -27 -6 -33 0 -5 -5 -3 -10 5 -15 23 -12 50 6 50 12 0 15 -6 10 -22z"/>
 <path d="M2795 225 l0 -215 65 0 65 0 70 99 70 100 3 -100 3 -99 71 0 71 0 -6 137 c-4 75 -7 171 -7 215 l0 78 -63 0 -63 0 -69 -95 c-37 -52 -70 -95 -73 -95 -3 0 -2 43 2 95 l6 95 -72 0 -73 0 0 -215z"/>
 </g>
<g id="layer103" fill="#3a3544" stroke="none">
 <path d="M1429 435 c-3 -2 -21 -7 -40 -9 -49 -6 -66 -15 -97 -46 -42 -43 -66 -91 -50 -101 10 -7 10 -9 1 -9 -20 0 -16 -69 5 -88 10 -10 12 -13 5 -8 -22 15 -25 1 -6 -34 36 -66 128 -134 144 -108 7 10 9 10 9 1 0 -8 15 -13 40 -13 25 0 40 5 40 13 0 9 2 9 9 -1 6 -10 14 -9 40 5 66 36 100 81 107 140 1 11 5 30 9 42 3 12 2 21 -3 21 -5 0 -15 19 -23 42 -18 55 -72 109 -127 127 -23 8 -42 18 -42 23 0 9 -14 11 -21 3z m-89 -50 c-7 -8 -17 -15 -22 -15 -6 0 -5 7 2 15 7 8 17 15 22 15 6 0 5 -7 -2 -15z m177 -1 c77 -37 117 -149 79 -225 -20 -40 -20 -45 -1 -29 8 7 15 9 15 6 0 -4 -7 -14 -15 -22 -9 -9 -15 -11 -15 -4 0 6 -17 -2 -37 -17 -31 -24 -46 -28 -103 -28 -57 0 -72 4 -103 28 -20 15 -37 23 -37 17 0 -7 -6 -5 -15 4 -8 8 -15 18 -15 22 0 3 7 1 15 -6 19 -16 19 -10 0 26 -8 16 -15 49 -15 74 0 25 7 58 15 74 19 36 19 42 0 26 -8 -7 -15 -9 -15 -6 0 4 7 14 15 22 10 11 15 12 15 3 0 -8 6 -7 18 4 53 48 135 61 199 31z m-177 -309 c7 -8 8 -15 2 -15 -5 0 -15 7 -22 15 -7 8 -8 15 -2 15 5 0 15 -7 22 -15z m220 0 c-7 -8 -17 -15 -22 -15 -6 0 -5 7 2 15 7 8 17 15 22 15 6 0 5 -7 -2 -15z"/>
 </g>
<g id="layer104" fill="#5d5869" stroke="none">
 </g>

</svg>