<!DOCTYPE svg PUBLIC "-//W3C//DTD SVG 20010904//EN" "http://www.w3.org/TR/2001/REC-SVG-20010904/DTD/svg10.dtd">
<svg version="1.0" xmlns="http://www.w3.org/2000/svg" width="64px" height="64px" viewBox="0 0 640 640" preserveAspectRatio="xMidYMid meet">
<g id="layer101" fill="#000000" stroke="none">
 <path d="M422 614 c-21 -14 -22 -22 -22 -159 0 -171 -1 -169 120 -169 121 -1 120 -3 120 175 l0 149 -26 10 c-41 16 -166 12 -192 -6z m175 -22 c6 -4 -29 -7 -78 -7 -48 0 -81 3 -71 7 23 9 134 9 149 0z m-8 -41 c13 -3 -15 -6 -62 -6 -48 0 -78 3 -69 7 21 8 99 8 131 -1z m-9 -40 c16 -5 -4 -8 -55 -8 -47 0 -71 3 -60 8 25 10 82 9 115 0z m0 -47 c-35 -7 -149 -9 -137 -2 6 4 44 7 82 7 39 -1 63 -3 55 -5z m12 -42 c10 -4 -20 -7 -66 -7 -46 0 -79 3 -72 7 14 9 115 9 138 0z m-10 -40 c9 -4 -19 -7 -64 -7 -46 0 -71 2 -57 6 31 9 99 9 121 1z m-1 -42 c34 0 20 -17 -18 -23 -43 -7 -113 1 -113 14 0 10 47 18 84 13 16 -2 37 -4 47 -4z"/>
 <path d="M0 350 l0 -140 280 0 280 0 0 30 c0 20 -5 30 -15 30 -8 0 -15 -7 -15 -15 0 -13 -35 -15 -255 -15 l-255 0 0 115 0 115 185 0 c117 0 185 4 185 10 0 6 -72 10 -195 10 l-195 0 0 -140z"/>
 <path d="M62 427 c-33 -35 -31 -112 5 -149 22 -23 35 -28 75 -28 36 0 48 4 48 15 0 11 -11 15 -43 15 -53 0 -77 22 -77 72 0 46 25 68 78 68 31 0 42 4 42 15 0 11 -13 15 -53 15 -43 0 -58 -5 -75 -23z"/>
 <path d="M199 421 c-49 -49 -38 -125 23 -157 68 -35 138 11 138 91 0 86 -100 127 -161 66z m124 -32 c15 -22 17 -33 10 -55 -20 -62 -99 -70 -128 -14 -40 77 66 138 118 69z"/>
 <path d="M243 393 c-18 -7 -16 -68 2 -83 8 -6 23 -9 35 -5 15 5 20 15 20 45 0 44 -20 59 -57 43z"/>
 <path d="M340 265 c0 -12 13 -15 55 -15 42 0 55 3 55 15 0 12 -13 15 -55 15 -42 0 -55 -3 -55 -15z"/>
 <path d="M24 145 c10 -60 15 -75 30 -74 45 1 430 97 434 107 2 6 -4 12 -14 12 -16 0 -352 -73 -395 -86 -12 -3 -18 6 -25 37 -5 24 -15 44 -23 47 -11 4 -12 -5 -7 -43z"/>
 <path d="M296 89 c-120 -49 -125 -50 -140 -14 -2 6 -8 6 -15 -1 -16 -15 6 -64 28 -64 29 0 271 105 271 118 0 19 -17 15 -144 -39z"/>
 </g>

</svg>