<!DOCTYPE svg PUBLIC "-//W3C//DTD SVG 20010904//EN" "http://www.w3.org/TR/2001/REC-SVG-20010904/DTD/svg10.dtd">
<svg version="1.0" xmlns="http://www.w3.org/2000/svg" width="900px" height="900px" viewBox="0 0 9000 9000" preserveAspectRatio="xMidYMid meet">
<g id="layer101" fill="#ba151c" stroke="none">
 <path d="M0 4500 l0 -4500 4500 0 4500 0 0 4500 0 4500 -4500 0 -4500 0 0 -4500z"/>
 </g>
<g id="layer102" fill="#cf131c" stroke="none">
 <path d="M0 4500 l0 -4500 4500 0 4500 0 0 4500 0 4500 -4500 0 -4500 0 0 -4500z m4517 3403 c-4 -3 -10 -3 -14 0 -3 4 0 7 7 7 7 0 10 -3 7 -7z m1338 -1273 c3 -5 4 -10 1 -10 -3 0 -8 5 -11 10 -3 6 -4 10 -1 10 3 0 8 -4 11 -10z m-665 -214 c0 -3 -5 -8 -12 -12 -7 -4 -8 -3 -4 4 7 12 16 16 16 8z m-1313 -133 c-3 -10 -5 -2 -5 17 0 19 2 27 5 18 2 -10 2 -26 0 -35z m0 -705 c-1 -123 -2 -25 -2 217 0 242 1 342 2 223 2 -119 2 -317 0 -440z m2828 202 c3 -5 4 -10 1 -10 -3 0 -8 5 -11 10 -3 6 -4 10 -1 10 3 0 8 -4 11 -10z m160 -160 c3 -5 4 -10 1 -10 -3 0 -8 5 -11 10 -3 6 -4 10 -1 10 3 0 8 -4 11 -10z m160 -160 c3 -5 4 -10 1 -10 -3 0 -8 5 -11 10 -3 6 -4 10 -1 10 3 0 8 -4 11 -10z m166 -167 c13 -16 12 -17 -3 -4 -10 7 -18 15 -18 17 0 8 8 3 21 -13z m-3068 -140 c-13 -2 -33 -2 -45 0 -13 2 -3 4 22 4 25 0 35 -2 23 -4z m854 1 c-3 -3 -12 -4 -19 -1 -8 3 -5 6 6 6 11 1 17 -2 13 -5z m2920 -731 c-4 -3 -7 0 -7 7 0 7 3 10 7 7 3 -4 3 -10 0 -14z m-197 -217 c0 -3 -5 -8 -12 -12 -7 -4 -8 -3 -4 4 7 12 16 16 16 8z m-2653 -413 c-4 -3 -10 -3 -14 0 -3 4 0 7 7 7 7 0 10 -3 7 -7z m-1097 -17 c0 -3 -5 -8 -12 -12 -7 -4 -8 -3 -4 4 7 12 16 16 16 8z m3270 -50 c0 -3 -5 -8 -12 -12 -7 -4 -8 -3 -4 4 7 12 16 16 16 8z m-3343 -78 c-3 -8 -6 -5 -6 6 -1 11 2 17 5 13 3 -3 4 -12 1 -19z m0 -726 c-1 -130 -2 -23 -2 238 0 261 1 368 2 237 2 -130 2 -344 0 -475z m3183 644 c0 -3 -5 -8 -12 -12 -7 -4 -8 -3 -4 4 7 12 16 16 16 8z m-487 -453 c-7 -2 -19 -2 -25 0 -7 3 -2 5 12 5 14 0 19 -2 13 -5z m-1348 -543 c3 -5 4 -10 1 -10 -3 0 -8 5 -11 10 -3 6 -4 10 -1 10 3 0 8 -4 11 -10z"/>
 </g>
<g id="layer103" fill="#bf272f" stroke="none">
 <path d="M0 4500 l0 -4500 4500 0 4500 0 0 4500 0 4500 -4500 0 -4500 0 0 -4500z m4547 3404 c-3 -3 -32 -6 -65 -7 -33 -1 -55 1 -49 5 14 9 123 11 114 2z m43 -14 c23 -14 961 -953 956 -957 -2 -2 -217 209 -477 470 -261 261 -483 479 -494 485 -11 6 -15 11 -10 12 6 0 17 -5 25 -10z m-186 -15 c-4 -8 -11 -15 -16 -15 -5 0 -297 -287 -649 -639 -690 -689 -668 -664 -617 -718 12 -13 19 -23 15 -23 -17 0 -47 47 -47 74 0 27 75 106 653 683 359 359 655 653 659 653 4 0 5 -7 2 -15z m1222 -1022 c-5 -6 -66 57 -66 69 0 4 16 -8 35 -28 20 -20 34 -39 31 -41z m81 -80 c-7 -6 -67 54 -67 66 0 6 16 -5 35 -25 20 -20 34 -38 32 -41z m20 -20 c-4 -3 -7 0 -7 7 0 7 3 10 7 7 3 -4 3 -10 0 -14z m59 -60 c-6 -6 -45 37 -46 49 0 4 12 -4 26 -19 14 -14 23 -28 20 -30z m64 -58 l45 -50 -40 35 c-45 40 -55 51 -55 64 0 5 1 7 3 5 1 -2 22 -27 47 -54z m60 -90 c0 -14 -12 -34 -31 -49 l-31 -26 -291 2 -292 2 296 6 c278 5 298 6 319 25 15 13 20 28 18 47 -3 15 -1 25 4 22 4 -3 8 -16 8 -29z m-2130 -81 c14 -8 16 -12 5 -7 -11 4 -159 10 -330 13 l-310 6 305 1 c259 2 309 0 330 -13z m1465 -5 c-11 -6 -32 -25 -47 -42 -16 -17 -28 -26 -28 -20 0 14 67 73 83 73 7 0 3 -5 -8 -11z m-1428 -26 c-4 -3 -7 0 -7 7 0 7 3 10 7 7 3 -4 3 -10 0 -14z m46 -68 c6 -29 6 -29 -4 -5 -6 14 -15 33 -20 42 -14 27 -11 35 5 13 7 -11 16 -33 19 -50z m1304 -17 c-3 -7 -5 -2 -5 12 0 14 2 19 5 13 2 -7 2 -19 0 -25z m-1270 -1104 c7 -12 26 -34 44 -48 17 -14 27 -26 22 -26 -12 0 -68 59 -82 87 -8 15 -10 175 -9 550 l3 528 5 -535 c4 -396 8 -541 17 -556z m1262 559 c0 -304 -4 -520 -9 -508 -10 23 -13 1018 -3 1028 3 4 8 7 10 7 2 0 3 -237 2 -527z m-3369 -530 c-351 -351 -648 -647 -661 -657 -13 -11 271 276 631 637 361 361 658 657 661 657 4 0 -281 -287 -631 -637z m739 588 c0 -14 -1 -14 -6 -1 -3 8 -13 24 -22 35 -16 20 -16 20 7 1 12 -11 22 -26 21 -35z m4064 22 c3 -5 -10 -8 -28 -8 -18 0 -31 3 -28 8 2 4 15 7 28 7 13 0 26 -3 28 -7z m-77 -29 c-4 -9 -6 -609 -6 -1333 0 -838 -4 -1321 -10 -1331 -15 -23 -13 2621 2 2655 12 27 24 35 14 9z m109 6 c3 -5 4 -10 1 -10 -3 0 -8 5 -11 10 -3 6 -4 10 -1 10 3 0 8 -4 11 -10z m84 -77 c2 -2 2 -6 -1 -9 -6 -6 -68 51 -68 63 0 3 15 -6 32 -23 18 -16 35 -30 37 -31z m76 -82 c41 -47 31 -42 -31 14 -19 17 -34 34 -34 38 0 14 27 -7 65 -52z m89 -86 c19 -19 30 -35 24 -35 -10 0 -68 54 -68 64 0 12 12 5 44 -29z m119 -120 c42 -41 71 -75 66 -75 -9 0 -149 136 -149 145 0 10 9 3 83 -70z m142 -142 c18 -18 29 -33 25 -33 -9 0 -55 43 -80 76 -14 18 -14 18 4 4 10 -8 33 -29 51 -47z m79 -78 c20 -19 32 -35 28 -35 -10 0 -72 57 -72 65 0 10 9 4 44 -30z m-2073 -28 c-10 -9 -11 -8 -5 6 3 10 9 15 12 12 3 -3 0 -11 -7 -18z m-11 -20 c0 -2 -10 -12 -21 -23 -22 -19 -22 -19 -8 4 12 19 29 30 29 19z m2159 -29 c16 -18 28 -34 26 -36 -3 -3 -65 57 -65 64 0 10 13 1 39 -28z m-2229 -28 c-24 -19 -44 -20 -544 -20 -286 0 -517 2 -514 5 3 3 234 6 514 6 425 0 513 2 534 14 35 20 39 18 10 -5z m2314 -55 c20 -19 32 -35 28 -35 -10 0 -72 57 -72 65 0 10 9 4 44 -30z m81 -83 l30 -37 -37 30 c-35 29 -47 46 -30 44 4 0 21 -17 37 -37z m108 -111 c-5 -8 -72 55 -72 67 -1 7 16 -4 37 -25 20 -21 36 -40 35 -42z m24 -18 c-4 -3 -10 -3 -14 0 -3 4 0 7 7 7 7 0 10 -3 7 -7z m76 -82 c-2 -3 -20 12 -41 34 l-37 39 41 -35 c22 -19 39 -36 37 -38z m63 -58 c13 -13 20 -23 16 -23 -10 1 -44 31 -62 55 -14 19 -14 19 4 5 11 -8 30 -25 42 -37z m80 -80 c13 -13 20 -23 16 -23 -10 1 -44 31 -62 55 -14 19 -14 19 4 5 11 -8 30 -25 42 -37z m83 -91 c13 -18 21 -36 18 -38 -3 -3 -11 5 -18 18 -6 12 -20 31 -30 41 -11 10 -19 22 -19 28 0 13 18 -6 49 -49z m-6787 -33 c-5 -13 -7 -38 -5 -55 3 -18 0 -35 -6 -38 -7 -5 -11 5 -11 27 0 34 19 101 26 94 3 -2 1 -15 -4 -28z m651 -806 c347 -348 637 -633 643 -633 7 0 14 -7 17 -15 4 -8 21 -18 39 -24 24 -6 27 -9 11 -10 -11 -1 -43 17 -70 38 -26 21 -330 322 -675 668 -494 495 -628 634 -628 653 1 22 3 21 16 -10 9 -22 243 -264 647 -667z m6143 660 c-13 -26 -1256 -1274 -1287 -1294 -8 -5 -30 -8 -49 -8 -34 1 -33 2 10 10 43 8 77 41 678 641 348 348 635 643 638 656 4 12 10 22 15 22 5 0 3 -12 -5 -27z m-3128 -600 c-136 -2 -361 -2 -500 0 -139 1 -28 2 247 2 275 0 389 -1 253 -2z m-773 -13 c-3 -5 -11 -10 -16 -10 -6 0 -7 5 -4 10 3 6 11 10 16 10 6 0 7 -4 4 -10z m1060 0 c3 -5 -1 -10 -9 -10 -9 0 -16 5 -16 10 0 6 4 10 9 10 6 0 13 -4 16 -10z m-1095 -14 c0 -3 -15 -15 -32 -27 l-33 -22 25 26 c23 24 40 33 40 23z m1150 -31 c19 -19 32 -35 29 -35 -3 0 -20 16 -39 35 -19 19 -32 35 -29 35 3 0 20 -16 39 -35z m-1217 -37 c-4 -7 -10 -242 -13 -523 l-5 -510 -3 497 c-2 456 2 548 23 548 4 0 3 -6 -2 -12z m1254 -25 c-4 -3 -7 0 -7 7 0 7 3 10 7 7 3 -4 3 -10 0 -14z m15 -610 c2 -242 0 -439 -4 -437 -3 2 -4 13 -1 23 3 10 0 22 -6 25 -13 8 -16 942 -3 973 9 24 11 -51 14 -584z m1351 67 c3 -11 1 -18 -4 -14 -5 3 -9 12 -9 20 0 20 7 17 13 -6z m-3986 -27 c-4 -3 -7 0 -7 7 0 7 3 10 7 7 3 -4 3 -10 0 -14z m-17 -27 c0 -3 -5 -8 -12 -12 -7 -4 -8 -3 -4 4 7 12 16 16 16 8z m1357 -433 c-4 -3 -7 0 -7 7 0 7 3 10 7 7 3 -4 3 -10 0 -14z m-33 -65 c-16 -16 -38 -34 -49 -40 -11 -6 -1 6 23 27 23 20 42 44 43 53 0 12 2 13 6 4 3 -8 -8 -27 -23 -44z m1399 -37 c-4 -7 -44 32 -56 54 -5 11 5 4 24 -15 19 -19 33 -37 32 -39z m-1488 -21 c-7 -12 -567 -12 -605 0 -14 4 118 8 293 9 210 1 316 -2 312 -9z m2110 0 c-46 -12 -563 -12 -570 0 -4 7 97 10 297 9 167 -1 290 -5 273 -9z m-2745 -10 c0 -5 -5 -10 -11 -10 -5 0 -7 5 -4 10 3 6 8 10 11 10 2 0 4 -4 4 -10z m2817 -27 c-4 -3 -7 0 -7 7 0 7 3 10 7 7 3 -4 3 -10 0 -14z m-2854 -16 c3 -8 1 -20 -4 -28 -6 -10 -9 -7 -9 14 0 29 5 35 13 14z m2864 -14 c-4 -3 -7 0 -7 7 0 7 3 10 7 7 3 -4 3 -10 0 -14z m-673 -702 l-669 -666 656 660 c361 363 660 669 664 680 5 14 9 16 12 6 4 -8 -248 -266 -663 -680z m-1909 379 l280 -285 -273 270 c-150 149 -278 279 -284 290 -6 11 -9 18 -7 15 2 -3 130 -133 284 -290z m325 -325 c19 -19 32 -35 29 -35 -3 0 -20 16 -39 35 -19 19 -32 35 -29 35 3 0 20 -16 39 -35z m80 -80 c19 -19 32 -35 29 -35 -3 0 -20 16 -39 35 -19 19 -32 35 -29 35 3 0 20 -16 39 -35z m160 -160 c63 -63 112 -115 110 -115 -3 0 -57 52 -120 115 -63 63 -112 115 -110 115 3 0 57 -52 120 -115z m307 -305 c81 -79 141 -140 133 -135 -25 15 -320 308 -320 318 0 5 9 -1 19 -15 11 -13 86 -89 168 -168z m167 -159 c3 -5 21 -12 41 -15 19 -4 37 -12 41 -18 5 -8 1 -9 -10 -5 -10 4 -25 7 -34 7 -19 0 -73 39 -55 40 6 0 14 -4 17 -9z m186 -21 c-8 -5 -19 -10 -25 -10 -5 0 -3 5 5 10 8 5 20 10 25 10 6 0 3 -5 -5 -10z m-43 -17 c-4 -3 -10 -3 -14 0 -3 4 0 7 7 7 7 0 10 -3 7 -7z"/>
 </g>
<g id="layer104" fill="#eb181d" stroke="none">
 <path d="M0 4500 l0 -4500 4500 0 4500 0 0 4500 0 4500 -4500 0 -4500 0 0 -4500z m4573 3397 c27 -12 981 -956 973 -964 -2 -2 -219 212 -482 476 l-479 479 -57 7 c-32 4 -70 4 -85 1 -21 -5 -24 -4 -13 4 20 13 109 12 143 -3z m-169 -22 c-4 -8 -10 -15 -16 -15 -14 0 -1260 -1247 -1275 -1277 -18 -35 -16 -53 9 -80 12 -13 19 -23 15 -23 -17 0 -47 47 -47 74 0 27 75 106 653 683 359 359 655 653 659 653 4 0 5 -7 2 -15z m1222 -1022 c-5 -6 -66 57 -66 69 0 4 16 -8 35 -28 20 -20 34 -39 31 -41z m81 -80 c-7 -6 -67 54 -67 66 0 6 16 -5 35 -25 20 -20 34 -38 32 -41z m20 -20 c-4 -3 -7 0 -7 7 0 7 3 10 7 7 3 -4 3 -10 0 -14z m59 -60 c-6 -6 -45 37 -46 49 0 4 12 -4 26 -19 14 -14 23 -28 20 -30z m64 -58 l45 -50 -40 35 c-45 40 -55 51 -55 64 0 5 1 7 3 5 1 -2 22 -27 47 -54z m60 -90 c0 -14 -12 -34 -31 -49 l-31 -26 -291 2 -292 2 296 6 c278 5 298 6 319 25 15 13 20 28 18 47 -3 15 -1 25 4 22 4 -3 8 -16 8 -29z m-2130 -81 c14 -8 16 -12 5 -7 -11 4 -159 10 -330 13 l-310 6 305 1 c259 2 309 0 330 -13z m1465 -5 c-11 -6 -32 -25 -47 -42 -16 -17 -28 -26 -28 -20 0 14 67 73 83 73 7 0 3 -5 -8 -11z m-1428 -26 c-4 -3 -7 0 -7 7 0 7 3 10 7 7 3 -4 3 -10 0 -14z m53 -57 c6 -16 6 -27 0 -31 -6 -4 -13 8 -16 25 -4 17 -11 33 -15 36 -5 3 -9 10 -9 15 0 16 29 -17 40 -45z m1297 -28 c-3 -7 -5 -2 -5 12 0 14 2 19 5 13 2 -7 2 -19 0 -25z m-1270 -1104 c7 -12 26 -34 44 -48 17 -14 27 -26 22 -26 -12 0 -68 59 -82 87 -8 15 -10 175 -9 550 l3 528 5 -535 c4 -396 8 -541 17 -556z m1262 559 c0 -304 -4 -520 -9 -508 -10 23 -13 1018 -3 1028 3 4 8 7 10 7 2 0 3 -237 2 -527z m-3369 -530 c-351 -351 -648 -647 -661 -657 -13 -11 271 276 631 637 361 361 658 657 662 657 3 0 -281 -287 -632 -637z m739 588 c0 -14 -1 -14 -6 -1 -3 8 -13 24 -22 35 -16 20 -16 20 7 1 12 -11 22 -26 21 -35z m4064 22 c3 -5 -10 -8 -28 -8 -18 0 -31 3 -28 8 2 4 15 7 28 7 13 0 26 -3 28 -7z m-77 -29 c-4 -9 -6 -609 -6 -1333 0 -838 -4 -1321 -10 -1331 -15 -23 -13 2621 2 2655 12 27 24 35 14 9z m109 6 c3 -5 4 -10 1 -10 -3 0 -8 5 -11 10 -3 6 -4 10 -1 10 3 0 8 -4 11 -10z m84 -77 c2 -2 2 -6 -1 -9 -6 -6 -68 51 -68 63 0 3 15 -6 32 -23 18 -16 35 -30 37 -31z m76 -82 c41 -47 31 -42 -31 14 -19 17 -34 34 -34 38 0 14 27 -7 65 -52z m89 -86 c19 -19 30 -35 24 -35 -10 0 -68 54 -68 64 0 12 12 5 44 -29z m119 -120 c42 -41 71 -75 66 -75 -9 0 -149 136 -149 145 0 10 9 3 83 -70z m142 -142 c18 -18 29 -33 25 -33 -9 0 -55 43 -80 76 -14 18 -14 18 4 4 10 -8 33 -29 51 -47z m79 -78 c20 -19 32 -35 28 -35 -10 0 -72 57 -72 65 0 10 9 4 44 -30z m-2073 -28 c-10 -9 -11 -8 -5 6 3 10 9 15 12 12 3 -3 0 -11 -7 -18z m-11 -20 c0 -2 -10 -12 -21 -23 -22 -19 -22 -19 -8 4 12 19 29 30 29 19z m2159 -29 c16 -18 28 -34 26 -36 -3 -3 -65 57 -65 64 0 10 13 1 39 -28z m-2229 -28 c-24 -19 -44 -20 -540 -20 -283 0 -520 4 -527 8 -6 4 222 6 508 4 446 -2 522 -1 546 12 38 21 43 19 13 -4z m2314 -55 c20 -19 32 -35 28 -35 -10 0 -72 57 -72 65 0 10 9 4 44 -30z m81 -83 l30 -37 -37 30 c-35 29 -47 46 -30 44 4 0 21 -17 37 -37z m108 -111 c-5 -8 -72 55 -72 67 -1 7 16 -4 37 -25 20 -21 36 -40 35 -42z m24 -18 c-4 -3 -10 -3 -14 0 -3 4 0 7 7 7 7 0 10 -3 7 -7z m76 -82 c-2 -3 -20 12 -41 34 l-37 39 41 -35 c22 -19 39 -36 37 -38z m63 -58 c13 -13 20 -23 16 -23 -10 1 -44 31 -62 55 -14 19 -14 19 4 5 11 -8 30 -25 42 -37z m80 -80 c13 -13 20 -23 16 -23 -10 1 -44 31 -62 55 -14 19 -14 19 4 5 11 -8 30 -25 42 -37z m82 -90 c24 -35 27 -43 12 -43 -5 0 -10 7 -10 14 0 8 -11 27 -25 42 -14 15 -25 31 -25 36 0 12 19 -8 48 -49z m-6786 -34 c-5 -13 -7 -38 -5 -55 3 -18 0 -35 -6 -38 -7 -5 -11 5 -11 27 0 34 19 101 26 94 3 -2 1 -15 -4 -28z m637 -791 c340 -340 623 -618 629 -618 7 0 12 -7 12 -15 0 -8 6 -15 14 -15 8 0 16 -7 19 -15 4 -8 21 -18 39 -24 24 -6 27 -9 11 -10 -11 -1 -43 17 -70 38 -26 21 -330 322 -675 668 -494 495 -628 634 -628 653 1 22 2 21 16 -9 9 -22 250 -270 633 -653z m6157 645 c-13 -26 -1256 -1274 -1287 -1294 -8 -5 -30 -8 -49 -8 -34 1 -33 2 10 10 43 8 77 41 678 641 348 348 635 643 638 656 4 12 10 22 15 22 5 0 3 -12 -5 -27z m-3128 -600 c-136 -2 -361 -2 -500 0 -139 1 -28 2 247 2 275 0 389 -1 253 -2z m-773 -13 c-3 -5 -11 -10 -16 -10 -6 0 -7 5 -4 10 3 6 11 10 16 10 6 0 7 -4 4 -10z m1060 0 c3 -5 -1 -10 -9 -10 -9 0 -16 5 -16 10 0 6 4 10 9 10 6 0 13 -4 16 -10z m-1112 -29 c-13 -11 -23 -22 -23 -27 0 -4 -8 -13 -17 -20 -17 -11 -18 -52 -23 -526 l-5 -513 -3 500 c-2 435 0 504 14 530 17 34 54 74 69 74 6 0 0 -8 -12 -18z m1167 -16 c19 -19 32 -35 29 -35 -3 0 -20 16 -39 35 -19 19 -32 35 -29 35 3 0 20 -16 39 -35z m37 -62 c-4 -3 -7 0 -7 7 0 7 3 10 7 7 3 -4 3 -10 0 -14z m15 -610 c2 -242 0 -439 -4 -437 -3 2 -4 13 -1 23 3 10 0 22 -6 25 -13 8 -16 942 -3 973 9 24 11 -51 14 -584z m1351 67 c3 -11 1 -18 -4 -14 -5 3 -9 12 -9 20 0 20 7 17 13 -6z m-3986 -27 c-4 -3 -7 0 -7 7 0 7 3 10 7 7 3 -4 3 -10 0 -14z m-17 -27 c0 -3 -5 -8 -12 -12 -7 -4 -8 -3 -4 4 7 12 16 16 16 8z m1357 -449 c-22 -41 -42 -63 -72 -82 -22 -14 -19 -9 12 18 24 21 44 50 48 67 4 17 10 28 15 25 5 -3 3 -15 -3 -28z m1366 -86 c-4 -7 -44 32 -56 54 -5 11 5 4 24 -15 19 -19 33 -37 32 -39z m-1488 -21 c-7 -12 -567 -12 -605 0 -14 4 118 8 293 9 210 1 316 -2 312 -9z m2110 0 c-46 -12 -563 -12 -570 0 -4 7 97 10 297 9 167 -1 290 -5 273 -9z m-2745 -10 c0 -5 -5 -10 -11 -10 -5 0 -7 5 -4 10 3 6 8 10 11 10 2 0 4 -4 4 -10z m2817 -27 c-4 -3 -7 0 -7 7 0 7 3 10 7 7 3 -4 3 -10 0 -14z m-2854 -16 c3 -8 1 -20 -4 -28 -6 -10 -9 -7 -9 14 0 29 5 35 13 14z m2864 -14 c-4 -3 -7 0 -7 7 0 7 3 10 7 7 3 -4 3 -10 0 -14z m-663 -695 c-363 -363 -670 -665 -684 -672 -14 -8 -36 -16 -50 -20 -14 -3 -3 4 23 17 38 18 201 176 694 668 354 354 649 655 655 669 7 17 12 20 15 11 4 -8 -246 -265 -653 -673z m-2154 618 c0 -14 134 -146 149 -146 6 0 11 -6 11 -12 0 -16 133 -148 149 -148 6 0 11 -6 11 -12 0 -16 133 -148 149 -148 6 0 11 -5 11 -11 0 -14 104 -119 118 -119 7 0 12 -5 12 -12 0 -16 51 -68 67 -68 7 0 13 -5 13 -10 0 -16 52 -70 67 -70 7 0 13 -5 13 -12 0 -6 21 -33 48 -58 26 -26 58 -60 72 -76 13 -16 -188 182 -448 441 -260 259 -478 478 -483 488 -10 18 -9 18 15 2 14 -10 26 -22 26 -29z m1165 -1172 c50 -48 83 -84 75 -79 -23 14 -320 308 -320 317 0 5 35 -27 78 -70 42 -44 118 -119 167 -168z m109 -103 c3 -5 21 -12 41 -15 19 -4 37 -12 41 -18 5 -8 1 -9 -10 -5 -10 4 -25 7 -34 7 -19 0 -73 39 -55 40 6 0 14 -4 17 -9z"/>
 </g>
<g id="layer105" fill="#ed1c25" stroke="none">
 <path d="M0 4500 l0 -4500 4500 0 4500 0 0 4500 0 4500 -4500 0 -4500 0 0 -4500z m4567 3399 c17 -5 67 -45 111 -89 43 -44 83 -76 87 -72 5 4 5 2 2 -4 -7 -12 66 -86 77 -78 3 2 4 1 1 -3 -3 -3 155 -166 351 -361 195 -195 353 -356 351 -359 -3 -2 -220 212 -483 476 l-479 479 -56 7 c-66 8 -118 -1 -126 -21 -3 -8 -9 -14 -15 -14 -14 0 -1260 -1247 -1275 -1277 -18 -35 -16 -53 9 -80 12 -13 19 -23 15 -23 -3 0 -15 10 -27 22 -21 23 -27 72 -9 83 6 4 8 14 5 22 -3 8 -2 12 2 9 11 -6 285 268 277 277 -3 4 -2 5 2 2 10 -8 123 107 116 118 -3 6 -2 7 4 4 5 -3 200 185 434 419 233 234 435 434 449 443 53 38 102 43 177 20z m-672 -479 c3 -5 4 -10 1 -10 -3 0 -8 5 -11 10 -3 6 -4 10 -1 10 3 0 8 -4 11 -10z m-268 -257 c-4 -3 -7 0 -7 7 0 7 3 10 7 7 3 -4 3 -10 0 -14z m-72 -53 c3 -5 4 -10 1 -10 -3 0 -8 5 -11 10 -3 6 -4 10 -1 10 3 0 8 -4 11 -10z m30 0 c3 -5 4 -10 1 -10 -3 0 -8 5 -11 10 -3 6 -4 10 -1 10 3 0 8 -4 11 -10z m2041 -257 c-5 -6 -66 57 -66 69 0 4 16 -8 35 -28 20 -20 34 -39 31 -41z m49 -3 c3 -5 4 -10 1 -10 -3 0 -8 5 -11 10 -3 6 -4 10 -1 10 3 0 8 -4 11 -10z m32 -77 c-7 -6 -67 54 -67 68 0 7 16 -4 35 -26 20 -21 34 -40 32 -42z m-2440 10 c-4 -3 -10 -3 -14 0 -3 4 0 7 7 7 7 0 10 -3 7 -7z m2518 -91 c-3 -3 -12 4 -20 16 -9 11 -22 28 -30 36 -8 8 -15 18 -15 22 0 4 16 -9 35 -31 20 -21 33 -40 30 -43z m125 -107 c23 14 -5 -63 -31 -87 l-29 -28 -285 0 c-345 0 -356 -3 -392 -97 l-14 -38 6 35 c3 19 15 45 28 58 44 49 66 52 370 52 272 0 285 1 311 21 40 32 34 63 -24 122 -27 28 -50 54 -50 59 0 5 23 -16 51 -46 28 -31 55 -54 59 -51z m-2128 -121 c55 -28 109 -99 91 -118 -11 -10 -20 -7 -21 9 -1 8 -3 22 -4 30 -2 21 -66 77 -79 70 -5 -4 -9 -2 -9 4 0 6 -107 10 -302 11 -166 0 -304 3 -307 5 -2 3 132 5 298 5 257 0 307 -2 333 -16z m98 -659 c0 -576 -2 -556 60 -609 18 -14 27 -26 22 -26 -11 0 -85 80 -92 100 -10 29 -9 1060 0 1060 6 0 10 -197 10 -525z m1279 -2 c0 -304 -4 -520 -9 -508 -10 23 -13 1018 -3 1028 3 4 8 7 10 7 2 0 3 -237 2 -527z m-2665 110 c4 -5 13 -8 19 -8 7 -1 11 -6 10 -12 -1 -6 3 -16 10 -21 9 -8 11 -307 7 -1364 l-5 -1353 -5 1356 c-5 1317 -6 1358 -24 1378 -11 12 -31 21 -49 21 -26 0 -111 -81 -667 -637 -351 -351 -648 -647 -661 -658 -13 -10 54 60 149 156 95 96 170 178 167 182 -3 4 -2 5 2 2 11 -9 323 307 316 319 -3 6 -2 8 2 3 5 -4 151 135 326 309 174 174 323 320 331 325 16 11 62 12 72 2z m4131 -3 c3 -5 4 -10 1 -10 -3 0 -8 5 -11 10 -3 6 -4 10 -1 10 3 0 8 -4 11 -10z m-28 -16 c-3 -4 4 -15 16 -26 l22 -19 -25 15 c-14 8 -38 13 -53 12 -34 -4 -23 10 13 17 14 2 27 5 29 6 2 0 2 -2 -2 -5z m-82 -41 c-3 -9 -5 -608 -5 -1332 0 -834 -4 -1321 -10 -1331 -12 -19 -19 2574 -7 2622 5 18 9 41 10 50 1 9 5 14 10 11 5 -3 6 -12 2 -20z m166 -44 c17 -17 28 -33 26 -36 -5 -5 -67 52 -67 62 0 11 12 4 41 -26z m84 -83 c17 -19 38 -43 46 -53 13 -17 13 -17 -4 -4 -37 29 -87 78 -87 84 0 15 15 6 45 -27z m-4645 -60 c0 -3 -5 -8 -12 -12 -7 -4 -8 -3 -4 4 7 12 16 16 16 8z m4892 -176 c9 0 9 -3 0 -12 -8 -8 -22 0 -57 36 -25 26 -45 52 -45 57 0 5 -5 9 -11 9 -15 0 -69 56 -69 71 0 6 38 -27 85 -75 47 -47 90 -86 97 -86z m-4976 84 c1 -9 0 -13 -4 -10 -3 4 -7 14 -8 22 -1 9 0 13 4 10 3 -4 7 -14 8 -22z m-96 -78 c0 -3 -5 -8 -12 -12 -7 -4 -8 -3 -4 4 7 12 16 16 16 8z m5109 -51 c13 -14 18 -25 12 -25 -13 0 -51 31 -51 42 0 15 15 8 39 -17z m86 -91 c20 -18 32 -34 26 -34 -10 0 -54 41 -81 76 -14 17 -14 18 2 6 9 -7 33 -29 53 -48z m-5280 36 c3 -5 4 -10 1 -10 -3 0 -8 5 -11 10 -3 6 -4 10 -1 10 3 0 8 -4 11 -10z m-75 -64 c0 -3 -5 -8 -12 -12 -7 -4 -8 -3 -4 4 7 12 16 16 16 8z m5437 -51 c19 -19 30 -35 25 -35 -12 0 -72 52 -72 62 0 15 13 8 47 -27z m-2076 -28 c-10 -9 -11 -8 -5 6 3 10 9 15 12 12 3 -3 0 -11 -7 -18z m-3431 9 c0 -3 -5 -8 -12 -12 -7 -4 -8 -3 -4 4 7 12 16 16 16 8z m3411 -39 c-6 -8 -7 -17 -3 -21 4 -4 3 -6 -3 -5 -14 4 -77 -30 -71 -39 6 -10 17 -10 -499 -10 -253 0 -479 0 -502 0 -24 -1 -43 3 -43 9 0 6 -4 7 -10 4 -5 -3 -10 -3 -10 2 0 4 234 7 520 5 510 -3 520 -2 560 18 23 12 43 27 47 35 3 8 10 15 15 15 7 0 6 -5 -1 -13z m2170 -18 c16 -18 28 -34 26 -36 -5 -4 -67 52 -67 61 0 13 13 5 41 -25z m85 -84 c19 -19 31 -35 25 -35 -11 0 -71 55 -71 65 0 11 11 4 46 -30z m-5806 1 c0 -3 -5 -8 -12 -12 -7 -4 -8 -3 -4 4 7 12 16 16 16 8z m5880 -76 c29 -29 35 -40 25 -40 -6 0 -65 58 -65 65 0 11 12 4 40 -25z m98 -99 c34 -32 11 -25 -26 8 -17 17 -32 36 -32 43 0 8 7 5 18 -8 9 -12 27 -31 40 -43z m42 15 c0 -3 -5 -8 -12 -12 -7 -4 -8 -3 -4 4 7 12 16 16 16 8z m-3 -53 c-4 -3 -10 -3 -14 0 -3 4 0 7 7 7 7 0 10 -3 7 -7z m161 -161 c45 -45 78 -82 74 -82 -9 0 -46 33 -73 66 -9 10 -27 29 -40 41 -13 12 -46 45 -74 74 -41 43 -43 47 -10 18 22 -19 77 -72 123 -117z m-6528 54 c0 -3 -5 -8 -12 -12 -7 -4 -8 -3 -4 4 7 12 16 16 16 8z m6530 0 c0 -3 -5 -8 -12 -12 -7 -4 -8 -3 -4 4 7 12 16 16 16 8z m138 -203 c24 -35 27 -43 12 -43 -5 0 -10 7 -10 14 0 8 -11 27 -25 42 -14 15 -25 31 -25 36 0 12 19 -8 48 -49z m-6786 -34 c-5 -13 -7 -38 -5 -55 3 -20 -1 -35 -11 -43 -14 -12 -16 -11 -10 3 3 9 0 24 -7 33 -8 9 -9 14 -3 11 6 -4 15 12 22 39 7 25 15 43 18 41 2 -3 1 -16 -4 -29z m6815 -86 c-2 -16 -4 -5 -4 22 0 28 2 40 4 28 2 -13 2 -35 0 -50z m-6178 -705 c340 -340 623 -618 629 -618 7 0 12 -7 12 -15 0 -8 6 -15 14 -15 8 0 16 -7 19 -15 4 -8 21 -18 39 -23 l33 -8 -28 -6 c-15 -3 -25 -3 -22 0 3 3 -7 14 -22 23 -16 10 -165 155 -332 321 -167 167 -308 302 -313 300 -5 -1 -7 1 -5 5 9 14 -440 456 -454 447 -8 -4 -10 -3 -5 5 8 13 -150 178 -166 173 -5 -1 -7 2 -4 7 3 5 -1 15 -10 22 -21 17 -45 65 -37 73 4 3 13 -8 20 -26 8 -18 269 -287 632 -650z m6157 645 c-14 -27 -1185 -1206 -1268 -1277 -40 -34 -81 -46 -92 -27 -3 5 13 11 36 14 39 5 74 38 675 639 348 348 636 643 639 656 3 12 10 22 15 22 5 0 3 -12 -5 -27z m-3386 -600 c-316 -2 -508 -7 -514 -13 -15 -15 -26 -12 -20 5 5 12 77 14 522 12 l517 -2 -505 -2z m-567 -43 c-13 -10 -23 -21 -23 -26 0 -4 -8 -13 -17 -20 -17 -11 -18 -50 -21 -523 -2 -383 -5 -511 -14 -511 -9 0 -9 -3 -1 -11 24 -24 -34 -98 -102 -130 -42 -20 -58 -20 -349 -17 -168 2 -306 0 -306 -4 0 -5 -5 -8 -11 -8 -8 0 -8 5 1 15 11 13 59 15 319 15 169 0 321 4 340 10 44 12 81 47 74 68 -4 10 -2 13 5 8 7 -4 13 -4 14 1 6 31 7 122 8 550 0 467 1 484 21 520 11 21 29 45 39 54 11 9 16 19 13 23 -4 3 -1 6 6 6 7 0 9 5 5 13 -5 8 -3 8 7 -1 12 -11 11 -16 -8 -32z m1112 30 c3 -5 -1 -10 -9 -10 -9 0 -16 5 -16 10 0 6 4 10 9 10 6 0 13 -4 16 -10z m51 -12 c4 -7 3 -8 -4 -4 -21 13 -13 -7 15 -38 24 -27 23 -26 -9 3 -27 25 -34 37 -25 43 15 10 15 10 23 -4z m2219 -18 c3 -5 4 -10 1 -10 -3 0 -8 5 -11 10 -3 6 -4 10 -1 10 3 0 8 -4 11 -10z m-50 -50 c3 -5 4 -10 1 -10 -3 0 -8 5 -11 10 -3 6 -4 10 -1 10 3 0 8 -4 11 -10z m-2128 -27 c-4 -3 -7 0 -7 7 0 7 3 10 7 7 3 -4 3 -10 0 -14z m48 -3 c3 -5 4 -10 1 -10 -3 0 -8 5 -11 10 -3 6 -4 10 -1 10 3 0 8 -4 11 -10z m-17 -1048 c6 -2 10 -7 7 -12 -3 -5 9 -22 26 -39 18 -18 25 -31 17 -31 -18 0 -74 88 -70 111 2 9 -2 20 -8 24 -12 7 -15 942 -2 972 4 10 9 -216 12 -501 4 -404 8 -520 18 -524z m-3073 728 c3 -5 4 -10 1 -10 -3 0 -8 5 -11 10 -3 6 -4 10 -1 10 3 0 8 -4 11 -10z m4408 -220 c3 -11 1 -20 -4 -20 -5 0 -9 9 -9 20 0 11 2 20 4 20 2 0 6 -9 9 -20z m-3986 -27 c-4 -3 -7 0 -7 7 0 7 3 10 7 7 3 -4 3 -10 0 -14z m-17 -27 c0 -3 -5 -8 -12 -12 -7 -4 -8 -3 -4 4 7 12 16 16 16 8z m17 -53 c-4 -3 -7 0 -7 7 0 7 3 10 7 7 3 -4 3 -10 0 -14z m2690 -430 c-4 -3 -7 0 -7 7 0 7 3 10 7 7 3 -4 3 -10 0 -14z m-1440 -30 c-4 -3 -7 0 -7 7 0 7 3 10 7 7 3 -4 3 -10 0 -14z m2103 -34 c0 -14 -87 -19 -326 -19 -182 0 -258 3 -276 13 -20 10 33 12 289 12 172 0 313 -3 313 -6z m25 -19 c3 -5 4 -10 1 -10 -3 0 -8 5 -11 10 -3 6 -4 10 -1 10 3 0 8 -4 11 -10z m-2832 -50 c-2 -33 1 -42 22 -56 14 -9 25 -21 25 -28 0 -14 134 -146 149 -146 6 0 11 -6 11 -12 0 -16 133 -148 149 -148 6 0 11 -6 11 -12 0 -16 133 -148 149 -148 6 0 11 -5 11 -11 0 -14 104 -119 118 -119 7 0 12 -5 12 -12 0 -16 51 -68 67 -68 7 0 13 -5 13 -10 0 -16 52 -70 67 -70 7 0 13 -5 13 -11 0 -6 32 -43 70 -82 39 -39 70 -74 70 -78 0 -5 -51 44 -112 108 -62 63 -124 125 -137 137 -39 35 -61 59 -61 68 0 5 -3 7 -7 5 -5 -2 -24 15 -43 39 -19 23 -38 43 -41 43 -6 1 -525 521 -557 558 -13 15 -17 32 -14 57 6 49 19 46 15 -4z m2863 -24 c-3 -14 -124 -142 -290 -307 -157 -156 -282 -288 -279 -293 4 -6 2 -8 -2 -3 -11 10 -745 -724 -738 -737 4 -6 3 -8 -1 -4 -4 3 -36 -7 -72 -22 -35 -16 -66 -25 -69 -21 -2 5 -21 12 -42 16 -29 5 -59 28 -141 108 -57 56 -108 101 -114 99 -5 -1 -7 1 -4 6 2 4 -29 41 -70 81 -41 41 -74 78 -74 83 0 4 58 -50 128 -122 71 -71 132 -130 136 -130 11 0 36 -27 36 -39 0 -6 7 -11 15 -11 8 0 15 -6 15 -13 0 -14 28 -31 70 -43 14 -3 32 -12 40 -19 12 -10 25 -8 74 15 51 24 138 107 703 671 354 354 651 658 659 676 9 17 13 42 10 55 -6 23 -6 23 5 1 6 -12 9 -33 5 -47z m-2551 -366 c3 -5 4 -10 1 -10 -3 0 -8 5 -11 10 -3 6 -4 10 -1 10 3 0 8 -4 11 -10z m1530 -710 c3 -5 4 -10 1 -10 -3 0 -8 5 -11 10 -3 6 -4 10 -1 10 3 0 8 -4 11 -10z m-45 -44 c0 -3 -5 -8 -12 -12 -7 -4 -8 -3 -4 4 7 12 16 16 16 8z"/>
 </g>
<g id="layer106" fill="#cf2d35" stroke="none">
 <path d="M4423 7890 c-13 -5 -23 -14 -23 -20 0 -5 -5 -10 -11 -10 -15 0 -1260 -1246 -1276 -1277 -19 -36 -16 -57 10 -81 23 -22 29 -22 326 -22 257 0 307 -2 333 -16 40 -21 76 -57 88 -88 5 -14 9 -254 10 -561 1 -580 -1 -562 55 -614 14 -13 42 -27 63 -32 20 -5 258 -9 528 -9 433 0 495 2 525 16 36 17 89 69 89 88 1 6 0 246 0 533 0 303 3 524 8 527 5 3 12 23 15 44 7 42 45 84 90 101 18 7 136 11 311 11 271 0 284 1 310 21 41 32 34 64 -24 117 -27 25 -50 50 -50 56 0 6 -10 16 -22 21 -12 6 -26 19 -32 30 -15 26 -33 45 -43 45 -13 0 -63 54 -63 68 0 7 -6 12 -13 12 -16 0 -67 52 -67 68 0 7 -6 12 -13 12 -7 0 -226 214 -487 476 -501 503 -491 494 -580 493 -19 0 -45 -4 -57 -9z"/>
 <path d="M1770 5253 c-361 -362 -661 -669 -665 -683 -13 -41 -12 -113 2 -149 9 -23 216 -237 632 -653 339 -340 623 -618 629 -618 7 0 12 -7 12 -15 0 -8 5 -15 10 -15 6 0 19 -9 30 -20 26 -26 62 -25 86 1 18 21 19 58 19 1394 0 1336 -1 1373 -19 1394 -11 12 -31 21 -49 21 -25 0 -114 -84 -687 -657z"/>
 <path d="M6525 5864 c-8 -8 -15 -21 -15 -27 -3 -827 2 -2689 6 -2702 6 -14 16 -16 51 -12 44 5 56 16 684 646 351 353 639 648 639 656 0 8 5 15 10 15 6 0 10 25 10 55 0 30 -4 55 -9 55 -5 0 -14 14 -20 30 -5 17 -15 30 -21 30 -6 0 -15 11 -20 25 -5 14 -16 25 -23 25 -16 0 -67 51 -67 68 0 7 -6 12 -13 12 -16 0 -67 52 -67 68 0 7 -6 12 -13 12 -14 0 -67 51 -67 64 0 10 -27 36 -37 36 -13 0 -63 54 -63 68 0 7 -6 12 -13 12 -16 0 -67 52 -67 68 0 7 -6 12 -13 12 -16 0 -67 52 -67 68 0 7 -6 12 -13 12 -16 0 -67 52 -67 68 0 7 -5 12 -12 12 -16 0 -68 51 -68 67 0 7 -6 13 -13 13 -16 0 -87 72 -87 88 0 7 -6 12 -13 12 -16 0 -147 131 -147 148 0 6 -6 12 -13 12 -16 0 -67 52 -67 68 0 7 -6 12 -13 12 -16 0 -97 82 -97 98 0 7 -6 12 -13 12 -15 0 -67 51 -67 66 0 30 -90 52 -115 28z"/>
 <path d="M3978 3793 c-16 -8 -28 -18 -28 -24 0 -5 -7 -9 -15 -9 -8 0 -15 -7 -15 -15 0 -8 -5 -15 -10 -15 -26 0 -30 -74 -30 -555 -1 -537 0 -530 -50 -583 -12 -12 -41 -32 -65 -43 -42 -20 -58 -20 -349 -17 -168 2 -306 0 -306 -3 0 -4 -9 -9 -19 -12 -30 -7 -26 -73 5 -94 13 -8 24 -20 24 -27 0 -14 134 -146 149 -146 6 0 11 -6 11 -12 0 -16 133 -148 149 -148 6 0 11 -6 11 -12 0 -16 133 -148 149 -148 6 0 11 -5 11 -11 0 -14 104 -119 118 -119 7 0 12 -6 12 -13 0 -16 52 -67 68 -67 7 0 12 -5 12 -10 0 -16 52 -70 67 -70 7 0 13 -5 13 -11 0 -15 400 -413 423 -422 11 -4 21 -16 24 -27 3 -11 12 -20 19 -20 8 0 14 -5 14 -11 0 -14 30 -38 48 -39 8 0 30 -7 49 -16 73 -35 73 -35 786 675 356 355 655 660 663 678 18 36 12 68 -14 78 -9 4 -148 6 -307 5 -246 -1 -295 1 -320 14 -17 9 -37 16 -46 16 -19 0 -75 87 -71 111 2 9 -2 20 -8 24 -7 5 -10 160 -10 512 l1 506 -37 38 c-21 22 -46 39 -56 39 -10 0 -18 5 -18 10 0 7 -177 10 -512 9 -427 -1 -518 -4 -540 -16z"/>
 </g>
<g id="layer107" fill="#dd3c45" stroke="none">
 <path d="M4423 7890 c-13 -5 -23 -14 -23 -20 0 -5 -4 -10 -9 -10 -12 0 -1261 -1247 -1261 -1259 0 -5 -7 -14 -15 -21 -21 -18 -19 -54 6 -76 19 -18 45 -19 333 -24 171 -4 324 -10 340 -16 16 -6 34 -19 40 -30 6 -10 14 -21 18 -24 24 -18 27 -93 28 -595 1 -594 -2 -566 67 -620 l38 -30 514 -3 c467 -3 517 -1 550 14 41 19 69 48 83 84 5 15 9 234 8 547 0 349 3 524 10 528 5 3 10 19 10 34 0 31 49 84 93 100 18 7 134 11 305 11 259 0 279 1 310 20 21 13 32 28 32 42 0 32 -1306 1340 -1347 1349 -42 10 -105 9 -130 -1z"/>
 <path d="M1773 5253 c-411 -411 -655 -661 -664 -683 -26 -58 -11 -180 21 -180 6 0 10 -5 10 -11 0 -14 25 -39 39 -39 6 0 11 -5 11 -11 0 -13 55 -69 68 -69 5 0 15 -11 22 -25 7 -14 19 -25 27 -25 7 0 13 -4 13 -9 0 -5 14 -23 31 -40 17 -17 35 -31 40 -31 5 0 9 -6 9 -13 0 -8 11 -20 25 -27 14 -7 25 -19 25 -27 0 -7 7 -13 15 -13 8 0 15 -6 15 -13 0 -8 11 -20 25 -27 14 -7 25 -19 25 -27 0 -7 7 -13 15 -13 8 0 15 -6 15 -13 0 -8 11 -20 25 -27 14 -7 25 -19 25 -27 0 -7 7 -13 15 -13 8 0 15 -6 15 -13 0 -8 11 -20 25 -27 14 -7 25 -19 25 -27 0 -7 7 -13 15 -13 8 0 15 -6 15 -13 0 -8 11 -20 25 -27 14 -7 25 -19 25 -27 0 -7 7 -13 15 -13 8 0 15 -4 15 -9 0 -12 108 -121 120 -121 5 0 10 -4 10 -9 0 -12 59 -71 71 -71 5 0 9 -4 9 -9 0 -12 59 -71 71 -71 5 0 9 -4 9 -9 0 -12 59 -71 71 -71 5 0 9 -7 9 -15 0 -8 3 -15 8 -15 11 0 72 -57 72 -68 0 -5 11 -15 25 -22 14 -7 25 -19 25 -27 0 -7 5 -13 11 -13 14 0 39 -25 39 -39 0 -6 7 -11 15 -11 8 0 15 -7 15 -15 0 -8 5 -15 10 -15 6 0 19 -9 30 -20 11 -11 29 -20 40 -20 26 0 63 37 56 55 -3 8 -1 17 4 20 16 10 12 2661 -3 2705 -11 32 -16 35 -54 38 l-41 3 -649 -648z"/>
 <path d="M6526 5861 c-15 -16 -16 -136 -16 -1367 0 -1277 1 -1350 17 -1362 11 -8 32 -11 52 -8 29 4 126 98 673 646 401 403 638 647 638 660 0 10 5 22 10 25 12 8 13 72 1 79 -5 3 -11 16 -15 28 -9 36 -1283 1305 -1316 1312 -19 3 -33 0 -44 -13z"/>
 <path d="M3990 3793 c-47 -31 -95 -76 -102 -95 -4 -10 -8 -247 -8 -526 -1 -422 -3 -512 -15 -532 -8 -14 -17 -32 -20 -40 -4 -9 -30 -28 -59 -43 l-54 -28 -307 2 c-217 1 -310 -2 -318 -10 -6 -6 -16 -11 -23 -11 -7 0 -12 -15 -12 -35 0 -27 6 -40 24 -52 13 -8 24 -22 24 -29 0 -8 7 -14 15 -14 9 0 21 -11 27 -25 6 -14 17 -25 25 -25 7 0 13 -7 13 -15 0 -8 6 -15 13 -15 8 0 20 -11 27 -25 7 -14 19 -25 27 -25 7 0 13 -6 13 -14 0 -7 9 -16 21 -19 11 -3 23 -15 26 -26 3 -12 12 -21 19 -21 8 0 14 -6 14 -13 0 -8 11 -20 25 -27 14 -7 25 -19 25 -27 0 -7 7 -13 15 -13 8 0 15 -7 15 -15 0 -8 5 -15 11 -15 14 0 39 -25 39 -39 0 -6 7 -11 15 -11 8 0 15 -6 15 -14 0 -7 9 -16 21 -19 11 -3 23 -15 26 -26 3 -12 10 -21 15 -21 11 0 68 -60 68 -72 0 -5 6 -8 13 -8 15 0 437 -423 437 -439 0 -6 6 -11 13 -11 7 0 77 -65 155 -144 136 -137 146 -145 198 -157 47 -11 59 -10 96 6 33 14 200 174 691 664 356 355 655 661 664 679 16 33 15 34 -10 59 l-26 26 -299 -2 c-205 -2 -302 1 -307 8 -3 6 -14 11 -24 11 -22 0 -81 55 -81 74 0 8 -4 17 -9 20 -5 3 -7 15 -4 25 3 10 0 22 -6 26 -8 5 -11 146 -11 493 0 268 0 494 0 503 0 23 -52 77 -96 99 -36 19 -62 20 -534 20 -447 0 -498 -2 -520 -17z"/>
 </g>
<g id="layer108" fill="#d64b51" stroke="none">
 <path d="M4405 7869 c-46 -34 -1231 -1215 -1276 -1270 -40 -51 -38 -74 11 -99 38 -19 57 -20 340 -20 294 1 301 1 331 -21 17 -12 40 -40 50 -63 17 -38 18 -79 19 -565 0 -289 3 -536 7 -550 11 -45 33 -69 86 -96 l51 -25 497 0 c378 0 502 3 520 13 39 20 89 69 89 87 0 9 2 19 6 22 3 3 5 242 4 531 0 349 3 528 10 532 5 3 10 16 10 29 0 23 48 75 88 95 16 9 104 12 297 11 217 0 281 2 309 14 40 17 52 44 33 77 -8 13 -305 314 -660 669 -447 445 -655 647 -674 651 -66 15 -107 9 -148 -22z"/>
 <path d="M1782 5258 c-353 -354 -651 -655 -662 -670 -22 -29 -24 -39 -22 -116 l2 -53 644 -644 c355 -353 660 -655 680 -670 43 -32 62 -28 81 20 13 29 15 226 15 1388 0 1299 -1 1355 -18 1370 -10 10 -32 17 -48 17 -26 0 -112 -83 -672 -642z"/>
 <path d="M6527 5862 c-15 -17 -17 -125 -17 -1357 0 -1190 1 -1340 15 -1361 17 -26 44 -30 78 -13 12 6 306 296 654 645 625 626 632 634 639 681 15 103 44 69 -650 762 -349 349 -641 638 -648 642 -35 18 -55 19 -71 1z"/>
 <path d="M3992 3793 c-18 -9 -51 -36 -72 -61 l-40 -45 -1 -496 c-1 -273 -3 -509 -5 -525 -1 -15 -10 -36 -18 -45 -9 -10 -16 -21 -16 -26 0 -11 -30 -33 -70 -51 -29 -12 -85 -15 -336 -13 -260 1 -305 -1 -332 -15 -26 -13 -31 -22 -28 -44 2 -21 155 -179 663 -685 363 -363 666 -663 674 -668 39 -25 91 -30 143 -14 47 15 96 61 694 658 386 386 651 658 663 682 l21 40 -29 24 -30 24 -289 -2 c-244 -2 -295 0 -327 14 -50 21 -95 69 -107 116 -7 24 -10 226 -10 538 l1 501 -32 39 c-18 23 -44 43 -60 46 -16 4 -31 11 -34 16 -4 5 -208 9 -498 9 -433 0 -496 -2 -525 -17z"/>
 </g>
<g id="layer109" fill="#e85157" stroke="none">
 <path d="M4430 7884 c-44 -19 -1293 -1265 -1315 -1310 -36 -76 -28 -78 345 -84 313 -5 315 -5 349 -29 71 -51 70 -45 71 -630 0 -289 3 -536 7 -550 11 -45 33 -70 87 -96 l52 -26 500 3 499 3 48 33 c27 19 50 40 53 48 2 8 6 22 10 31 3 10 5 252 4 539 0 347 3 525 10 529 5 3 10 16 10 28 1 29 26 58 78 91 l42 26 288 0 289 0 23 25 c21 22 22 28 11 48 -7 13 -306 317 -664 675 l-652 651 -55 5 c-38 4 -66 1 -90 -10z"/>
 <path d="M2415 5884 c-20 -15 -913 -904 -1170 -1165 -74 -75 -139 -147 -143 -160 -6 -14 -6 -50 -1 -87 l9 -64 639 -638 c352 -351 656 -650 675 -665 43 -32 62 -28 81 20 23 53 22 2702 0 2745 -18 34 -56 40 -90 14z"/>
 <path d="M6528 5859 c-17 -9 -18 -84 -18 -1352 0 -1199 2 -1345 16 -1365 18 -26 50 -28 84 -4 14 9 306 299 650 644 583 585 626 631 634 671 21 103 58 59 -652 770 -672 672 -665 665 -714 636z"/>
 <path d="M3995 3793 c-44 -23 -86 -64 -101 -100 -11 -25 -14 -135 -14 -531 -1 -473 -2 -501 -20 -538 -11 -21 -36 -50 -57 -64 l-37 -25 -317 -2 c-261 -2 -324 -5 -347 -17 -64 -33 -76 -19 633 -728 365 -364 676 -668 692 -677 37 -19 110 -19 148 1 39 21 1295 1273 1331 1327 26 40 26 42 9 61 -10 11 -25 22 -34 25 -10 3 -154 6 -322 8 l-306 2 -36 28 c-75 57 -72 32 -74 605 -3 513 -3 514 -25 554 -16 29 -37 47 -72 64 l-50 24 -485 -1 c-414 -1 -490 -3 -516 -16z"/>
 </g>
<g id="layer110" fill="#ffe4df" stroke="none">
 <path d="M4430 7883 c-44 -18 -1315 -1288 -1323 -1321 -3 -13 2 -31 13 -45 18 -22 21 -22 337 -27 316 -5 318 -5 352 -29 18 -13 42 -42 52 -65 17 -38 19 -76 19 -569 0 -505 1 -529 20 -566 23 -47 60 -77 109 -92 24 -6 203 -9 526 -7 l490 3 41 28 c76 52 74 32 74 621 0 565 0 566 53 624 42 46 50 47 365 52 289 5 304 6 318 25 9 12 12 30 9 45 -9 36 -1267 1294 -1321 1320 -47 23 -85 24 -134 3z"/>
 <path d="M1782 5258 c-357 -357 -652 -660 -663 -680 -26 -50 -25 -123 2 -167 22 -37 1264 -1280 1305 -1307 34 -23 70 -11 83 27 8 23 11 423 11 1371 0 1484 4 1398 -62 1398 -29 0 -94 -61 -676 -642z"/>
 <path d="M6526 5848 c-14 -20 -16 -165 -16 -1353 0 -1188 2 -1333 16 -1353 38 -54 27 -63 706 615 351 351 645 652 653 669 19 40 19 95 1 137 -8 18 -285 302 -653 670 -680 678 -669 669 -707 615z"/>
 <path d="M3985 3786 c-37 -17 -80 -62 -94 -99 -7 -19 -11 -198 -11 -524 0 -475 -1 -498 -20 -537 -11 -23 -36 -52 -57 -66 l-36 -25 -327 -5 c-350 -5 -360 -7 -360 -56 0 -15 17 -43 43 -71 115 -125 1280 -1279 1304 -1292 37 -19 110 -19 148 2 17 8 326 312 688 674 688 690 685 687 640 724 -12 11 -85 15 -333 19 l-317 5 -36 28 c-75 57 -71 32 -77 614 -5 507 -6 522 -26 549 -11 15 -33 37 -48 48 -27 21 -40 21 -539 23 -413 2 -518 0 -542 -11z"/>
 </g>
<g id="layer111" fill="#fffffe" stroke="none">
 <path d="M4475 7889 c-4 -6 -13 -8 -20 -5 -8 3 -19 -2 -25 -10 -7 -8 -18 -15 -24 -16 -6 0 -298 -290 -649 -643 -617 -620 -638 -643 -635 -676 2 -28 7 -34 25 -31 12 2 24 -2 28 -8 5 -7 97 -10 297 -10 159 1 292 -1 295 -4 4 -3 14 -6 23 -6 9 0 32 -18 52 -40 l37 -40 1 -539 c0 -444 3 -544 15 -567 7 -16 18 -41 24 -56 6 -16 16 -28 24 -28 7 0 21 -9 30 -21 13 -15 25 -19 42 -15 13 3 27 2 30 -4 9 -14 932 -14 940 0 4 6 12 10 18 9 30 -5 85 34 113 81 5 8 12 256 15 550 4 294 7 543 8 552 1 9 9 22 17 29 8 6 14 20 14 30 0 11 17 30 40 45 l39 26 278 -1 c262 -2 280 -1 321 19 44 21 52 39 27 60 -8 7 -15 18 -15 24 0 19 -1253 1264 -1285 1277 -16 7 -35 11 -42 10 -6 -1 -14 3 -18 9 -8 13 -32 13 -40 -1z"/>
 <path d="M2435 5884 c-44 -32 -1315 -1309 -1315 -1321 0 -6 -4 -15 -10 -18 -5 -3 -10 -24 -10 -46 0 -50 31 -99 105 -170 31 -30 61 -64 66 -77 5 -13 13 -21 17 -18 9 5 79 -61 75 -70 -2 -2 0 -4 5 -4 13 -1 71 -63 66 -72 -3 -4 1 -8 8 -8 18 0 80 -64 72 -73 -4 -4 -1 -7 7 -7 8 0 30 -16 49 -35 19 -19 30 -35 26 -35 -4 0 12 -15 35 -33 24 -17 42 -36 41 -40 -2 -4 17 -23 40 -41 24 -18 42 -38 40 -45 -1 -6 3 -11 10 -11 7 0 156 -144 331 -320 175 -176 321 -320 324 -320 4 0 14 -7 24 -16 17 -15 20 -15 41 2 13 11 22 26 20 36 -2 9 2 19 7 23 16 9 15 2651 0 2661 -6 3 -9 14 -6 24 11 43 -29 63 -68 34z"/>
 <path d="M6536 5844 l-26 -27 0 -1317 c0 -1178 2 -1320 16 -1348 8 -18 18 -32 22 -32 20 0 95 46 100 62 2 10 10 18 16 18 16 0 66 52 66 68 0 7 6 12 13 12 17 0 57 42 57 58 0 7 8 15 18 19 25 9 72 54 72 70 0 7 6 13 13 13 17 0 57 42 57 58 0 7 8 15 18 19 25 9 62 44 62 60 0 8 8 16 18 20 25 9 62 44 62 60 0 8 8 16 18 20 25 9 72 54 72 70 0 7 6 13 13 13 16 0 137 122 137 138 0 7 8 15 18 19 25 9 62 44 62 60 0 7 5 13 12 13 16 0 68 51 68 67 0 7 6 13 13 13 16 0 67 51 67 67 0 6 9 13 21 16 11 3 23 15 26 26 3 12 12 21 19 21 8 0 14 7 14 15 0 8 6 15 13 15 16 0 67 52 67 68 0 7 6 12 13 12 16 0 67 52 67 68 0 7 4 12 8 12 9 0 52 89 52 106 0 6 -9 29 -20 52 -11 22 -20 45 -20 49 0 16 -1266 1273 -1281 1273 -9 0 -28 -12 -43 -26z"/>
 <path d="M4010 3790 c-8 -5 -28 -15 -45 -22 -16 -7 -36 -26 -43 -41 -7 -15 -18 -27 -23 -27 -6 0 -7 -5 -4 -10 4 -6 2 -17 -4 -24 -7 -8 -11 -180 -11 -526 l-1 -514 -24 -32 c-49 -64 -57 -65 -402 -64 -205 0 -314 -3 -318 -10 -3 -5 -16 -10 -27 -10 -18 0 -20 -5 -15 -38 4 -35 31 -65 256 -290 138 -139 251 -257 251 -262 0 -6 4 -10 9 -10 6 0 182 -173 393 -383 211 -211 391 -387 401 -390 9 -4 17 -11 17 -17 0 -6 5 -8 10 -5 6 3 15 3 22 -1 17 -11 81 -11 96 -1 7 6 15 7 19 4 3 -4 14 5 25 18 11 14 26 25 34 25 8 0 14 5 14 10 0 14 31 45 53 53 9 4 17 13 17 22 0 8 7 15 15 15 8 0 15 5 15 11 0 14 85 99 100 99 5 0 10 5 10 11 0 14 55 69 69 69 6 0 11 5 11 11 0 14 50 63 73 72 9 4 20 15 24 24 9 23 139 153 153 153 5 0 10 6 10 13 0 14 41 53 75 73 10 6 23 19 29 29 16 27 29 40 49 48 9 3 17 11 17 17 0 14 40 54 63 63 9 3 17 12 17 19 0 7 10 18 22 23 12 6 26 19 32 29 16 28 69 81 89 89 9 3 17 11 17 17 0 13 17 30 45 46 10 6 23 19 29 29 15 26 33 45 43 45 13 0 113 104 113 117 0 6 9 13 20 16 11 3 23 13 27 24 3 10 9 20 12 23 20 17 28 47 17 60 -30 39 -49 41 -347 40 -160 -1 -293 1 -296 4 -4 3 -15 6 -25 6 -10 0 -21 7 -24 15 -4 8 -12 15 -20 15 -8 0 -14 6 -14 13 0 7 -8 24 -17 37 -10 14 -20 36 -22 50 -2 14 -5 247 -7 519 -2 272 -6 496 -9 499 -3 3 -5 14 -5 24 0 10 -8 22 -17 25 -10 4 -20 10 -23 13 -3 4 -25 17 -49 29 -44 21 -55 21 -525 20 -265 0 -488 -4 -496 -9z"/>
 </g>

</svg>