<!DOCTYPE svg PUBLIC "-//W3C//DTD SVG 20010904//EN" "http://www.w3.org/TR/2001/REC-SVG-20010904/DTD/svg10.dtd">
<svg version="1.0" xmlns="http://www.w3.org/2000/svg" width="160px" height="160px" viewBox="0 0 1600 1600" preserveAspectRatio="xMidYMid meet">
<g id="layer101" fill="#780000" stroke="none">
 <path d="M117 1482 c-64 -64 -117 -120 -117 -123 0 -2 124 -128 275 -280 l276 -274 -276 -275 c-151 -151 -275 -279 -275 -285 0 -10 230 -245 240 -245 3 0 130 125 283 277 l277 278 277 -278 c153 -152 280 -277 283 -277 10 0 240 235 240 245 0 6 -124 134 -275 285 l-276 275 276 274 c151 152 275 278 275 280 0 11 -235 241 -245 241 -6 0 -133 -123 -283 -273 l-272 -273 -272 273 c-150 150 -277 273 -283 273 -6 0 -63 -53 -128 -118z"/>
 </g>
<g id="layer102" fill="#ed0202" stroke="none">
 <path d="M135 1470 c-60 -60 -115 -110 -122 -110 -7 0 -12 -3 -12 -7 1 -5 129 -133 283 -285 l282 -278 -271 -270 c-148 -148 -276 -270 -283 -270 -6 0 -12 -3 -12 -7 0 -9 232 -243 240 -243 3 0 130 125 283 278 l277 277 277 -277 c153 -153 280 -278 283 -278 8 0 240 234 240 243 0 4 -6 7 -12 7 -7 0 -135 122 -283 270 l-271 270 282 278 c154 152 282 280 283 285 0 4 -5 7 -12 7 -7 0 -62 50 -122 110 l-110 110 -277 -277 -278 -278 -278 278 -277 277 -110 -110z"/>
 </g>
<g id="layer103" fill="#f74949" stroke="none">
 <path d="M279 1075 c152 -150 278 -272 280 -269 7 6 -531 544 -544 544 -6 0 113 -124 264 -275z"/>
 <path d="M1305 1080 c-148 -148 -267 -271 -264 -274 2 -3 128 119 280 269 151 151 270 275 264 275 -5 0 -131 -121 -280 -270z"/>
 <path d="M520 295 l-275 -275 -110 110 c-61 61 -117 110 -125 110 -8 0 39 -54 105 -120 66 -66 122 -120 125 -120 3 0 130 125 283 277 l277 278 277 -277 c153 -153 280 -278 283 -278 3 0 59 54 125 120 66 66 113 120 105 120 -9 0 -65 -50 -125 -110 l-110 -110 -275 275 c-151 151 -277 275 -280 275 -3 0 -129 -124 -280 -275z"/>
 </g>

</svg>