<!DOCTYPE svg PUBLIC "-//W3C//DTD SVG 20010904//EN" "http://www.w3.org/TR/2001/REC-SVG-20010904/DTD/svg10.dtd">
<svg version="1.0" xmlns="http://www.w3.org/2000/svg" width="1024px" height="1024px" viewBox="0 0 10240 10240" preserveAspectRatio="xMidYMid meet">
<g id="layer101" fill="#d40000" stroke="none">
 <path d="M4990 10083 c-712 -21 -1388 -190 -2035 -508 -1200 -589 -2113 -1632 -2536 -2896 -221 -662 -299 -1342 -233 -2039 125 -1326 788 -2545 1839 -3386 1126 -899 2568 -1266 3990 -1013 1379 244 2592 1072 3340 2279 49 80 139 244 201 365 291 575 460 1176 515 1830 15 181 15 611 0 790 -58 681 -240 1314 -546 1902 -771 1480 -2235 2482 -3876 2652 -111 12 -493 32 -544 29 -16 -1 -68 -3 -115 -5z"/>
 </g>
<g id="layer102" fill="#ffffff" stroke="none">
 <path d="M4935 8934 c-550 -35 -1044 -167 -1515 -405 -390 -197 -683 -410 -995 -723 -1032 -1035 -1382 -2559 -904 -3941 436 -1262 1512 -2202 2834 -2475 480 -99 998 -104 1485 -15 1043 191 1954 809 2522 1712 98 156 270 503 333 673 236 634 300 1316 189 1990 -282 1702 -1663 2999 -3374 3170 -113 11 -477 20 -575 14z m-493 -2321 l678 -678 412 410 c227 226 536 531 686 680 l272 270 410 -410 411 -410 -687 -680 -686 -680 686 -685 686 -685 -410 -410 -410 -410 -686 685 -686 685 -676 -683 -677 -683 -410 411 -410 410 270 272 c149 150 453 458 677 683 l408 410 -675 675 c-371 371 -675 679 -675 685 0 10 800 815 810 815 3 0 310 -305 682 -677z"/>
 </g>

</svg>