<!DOCTYPE svg PUBLIC "-//W3C//DTD SVG 20010904//EN" "http://www.w3.org/TR/2001/REC-SVG-20010904/DTD/svg10.dtd">
<svg version="1.0" xmlns="http://www.w3.org/2000/svg" width="64px" height="64px" viewBox="0 0 640 640" preserveAspectRatio="xMidYMid meet">
<g id="layer101" fill="#000000" stroke="none">
 <path d="M208 609 c-32 -16 -58 -25 -58 -19 0 5 -11 10 -25 10 -14 0 -25 5 -25 10 0 6 -22 10 -50 10 l-50 0 0 -95 0 -95 61 0 c51 0 66 -4 91 -25 32 -27 52 -30 95 -14 20 7 -10 -28 -97 -115 l-125 -126 75 -75 c41 -41 82 -75 91 -75 9 0 23 8 33 18 15 17 21 18 68 5 52 -13 54 -12 125 21 40 19 73 31 73 26 0 -6 11 -10 25 -10 14 0 25 -4 25 -10 0 -5 23 -10 50 -10 l50 0 0 95 0 95 -63 0 c-51 0 -68 4 -81 19 -10 11 -30 23 -45 26 -15 3 -58 36 -95 74 l-68 69 38 12 c22 7 55 21 76 33 30 17 41 18 69 8 69 -24 109 -10 109 39 0 38 -22 53 -136 94 -122 44 -161 44 -236 5z m212 -35 c114 -40 145 -59 121 -73 -20 -12 -112 17 -129 40 -7 10 -23 19 -36 19 -39 0 -146 -41 -146 -56 0 -18 1 -18 82 3 104 27 105 -8 1 -41 -28 -10 -57 -24 -63 -32 -17 -19 -59 -18 -82 3 -24 21 -26 113 -3 113 9 0 39 13 68 30 29 16 59 30 67 30 8 0 62 -16 120 -36z m-350 -49 c0 -58 -2 -65 -20 -65 -18 0 -20 7 -20 65 0 58 2 65 20 65 18 0 20 -7 20 -65z m50 -15 c0 -27 -4 -50 -10 -50 -5 0 -10 23 -10 50 0 28 5 50 10 50 6 0 10 -22 10 -50z m226 -203 c9 -8 -7 -77 -18 -77 -6 0 -24 12 -41 26 -24 20 -37 24 -61 20 l-30 -6 22 22 c17 19 31 23 72 22 28 -1 53 -4 56 -7z m-181 -88 c-10 -30 11 -71 45 -91 44 -25 37 -34 -26 -34 l-57 1 0 53 c0 36 6 59 18 72 23 25 28 25 20 -1z m105 6 c10 -12 10 -15 -4 -15 -9 0 -25 -9 -35 -19 -21 -21 -31 -18 -31 9 0 36 47 53 70 25z m198 -1 c17 -12 22 -25 22 -62 l-1 -47 -73 -34 c-57 -25 -81 -31 -105 -26 -17 4 -31 10 -31 14 0 16 39 42 81 54 27 8 45 20 47 30 4 22 -12 21 -80 -2 -34 -12 -60 -16 -69 -10 -21 13 5 33 68 53 28 10 57 24 63 32 16 18 50 18 78 -2z m72 -74 c0 -27 -4 -50 -10 -50 -5 0 -10 23 -10 50 0 28 5 50 10 50 6 0 10 -22 10 -50z m70 -15 c0 -58 -2 -65 -20 -65 -18 0 -20 7 -20 65 0 58 2 65 20 65 18 0 20 -7 20 -65z"/>
 <path d="M190 495 c0 -8 7 -15 15 -15 8 0 15 7 15 15 0 8 -7 15 -15 15 -8 0 -15 -7 -15 -15z"/>
 <path d="M420 165 c0 -8 7 -15 15 -15 8 0 15 7 15 15 0 8 -7 15 -15 15 -8 0 -15 -7 -15 -15z"/>
 </g>

</svg>