<!DOCTYPE svg PUBLIC "-//W3C//DTD SVG 20010904//EN" "http://www.w3.org/TR/2001/REC-SVG-20010904/DTD/svg10.dtd">
<svg version="1.0" xmlns="http://www.w3.org/2000/svg" width="225px" height="225px" viewBox="0 0 2250 2250" preserveAspectRatio="xMidYMid meet">
<g id="layer101" fill="#000000" stroke="none">
 <path d="M0 1125 l0 -1125 1125 0 1125 0 0 1125 0 1125 -1125 0 -1125 0 0 -1125z"/>
 </g>
<g id="layer102" fill="#3ca500" stroke="none">
 <path d="M0 1125 l0 -1125 1125 0 1125 0 0 1125 0 1125 -1125 0 -1125 0 0 -1125z m950 480 l0 -305 -305 0 -305 0 0 305 0 305 305 0 305 0 0 -305z"/>
 </g>
<g id="layer103" fill="#5caf2c" stroke="none">
 <path d="M0 1125 l0 -1125 1125 0 1125 0 0 1125 0 1125 -1125 0 -1125 0 0 -1125z m950 480 l0 -305 -305 0 -305 0 0 305 0 305 305 0 305 0 0 -305z m773 298 c-106 -2 -280 -2 -385 0 -106 1 -20 2 192 2 212 0 298 -1 193 -2z m-563 -907 c0 -3 -5 -8 -12 -12 -7 -4 -8 -3 -4 4 7 12 16 16 16 8z"/>
 </g>
<g id="layer104" fill="#ffffff" stroke="none">
 <path d="M0 1125 l0 -1125 1125 0 1125 0 0 1125 0 1125 -1125 0 -1125 0 0 -1125z m950 480 l0 -305 -305 0 -305 0 0 305 0 305 305 0 305 0 0 -305z m960 -480 l0 -785 -785 0 -785 0 0 378 0 379 148 7 c183 8 265 25 368 76 137 67 229 188 269 351 9 35 19 135 22 222 l6 157 378 0 379 0 0 -785z"/>
 <path d="M1447 1500 c-73 -388 -336 -635 -749 -705 l-38 -6 0 -59 0 -60 465 0 465 0 0 460 0 460 -63 0 -63 0 -17 -90z"/>
 </g>

</svg>