<!DOCTYPE svg PUBLIC "-//W3C//DTD SVG 20010904//EN" "http://www.w3.org/TR/2001/REC-SVG-20010904/DTD/svg10.dtd">
<svg version="1.0" xmlns="http://www.w3.org/2000/svg" width="1600px" height="1600px" viewBox="0 0 16000 16000" preserveAspectRatio="xMidYMid meet">
<g id="layer101" fill="#000000" stroke="none">
 <path d="M7465 15989 c-44 -4 -143 -13 -220 -19 -77 -6 -169 -15 -205 -20 -36 -5 -119 -16 -185 -24 -66 -9 -145 -21 -175 -27 -30 -5 -93 -16 -140 -24 -47 -8 -103 -19 -125 -24 -22 -5 -65 -14 -95 -21 -121 -26 -187 -41 -220 -50 -19 -5 -62 -16 -95 -24 -33 -8 -76 -19 -95 -25 -19 -5 -60 -16 -90 -24 -119 -31 -469 -142 -525 -167 -11 -5 -87 -34 -170 -65 -82 -31 -169 -66 -192 -76 -23 -10 -44 -19 -47 -19 -6 0 -89 -36 -161 -70 -22 -10 -71 -33 -110 -50 -38 -17 -78 -36 -88 -41 -10 -6 -64 -33 -120 -60 -56 -28 -111 -55 -122 -62 -11 -6 -39 -21 -62 -34 -119 -64 -151 -82 -278 -156 -84 -49 -385 -237 -402 -251 -7 -6 -49 -36 -94 -66 -44 -30 -131 -92 -193 -137 -61 -45 -122 -90 -136 -100 -13 -10 -31 -25 -40 -33 -9 -8 -34 -28 -55 -44 -22 -17 -42 -32 -45 -35 -3 -4 -41 -35 -85 -70 -44 -35 -84 -69 -90 -75 -5 -6 -39 -36 -75 -66 -36 -30 -77 -66 -92 -80 -14 -14 -77 -72 -138 -130 -141 -131 -189 -179 -320 -320 -58 -61 -116 -124 -130 -138 -14 -15 -50 -56 -80 -92 -30 -36 -60 -69 -66 -75 -6 -5 -40 -46 -75 -90 -35 -44 -66 -82 -70 -85 -3 -3 -18 -23 -35 -45 -16 -21 -36 -46 -44 -55 -8 -9 -23 -27 -33 -40 -10 -14 -55 -75 -100 -136 -45 -62 -107 -149 -137 -193 -30 -45 -60 -87 -66 -94 -14 -17 -202 -318 -251 -402 -74 -127 -92 -159 -156 -277 -13 -24 -28 -52 -34 -63 -7 -11 -34 -66 -62 -122 -27 -56 -54 -110 -60 -120 -5 -10 -24 -49 -41 -88 -17 -38 -40 -88 -50 -110 -34 -72 -70 -155 -70 -161 0 -3 -9 -24 -19 -47 -10 -23 -45 -109 -76 -192 -31 -82 -60 -159 -65 -170 -25 -56 -136 -406 -167 -525 -8 -30 -19 -71 -24 -90 -6 -19 -17 -62 -25 -95 -8 -33 -19 -76 -24 -95 -9 -33 -24 -99 -50 -220 -7 -30 -16 -73 -21 -95 -5 -22 -16 -78 -24 -125 -8 -47 -19 -110 -24 -140 -6 -30 -18 -109 -27 -175 -8 -66 -19 -149 -24 -185 -5 -36 -14 -126 -20 -200 -6 -74 -15 -182 -20 -240 -13 -136 -13 -904 0 -1040 5 -58 14 -166 20 -240 6 -74 15 -164 20 -200 5 -36 16 -119 24 -185 9 -66 21 -145 27 -175 5 -30 16 -93 24 -140 8 -47 19 -103 24 -125 5 -22 14 -65 21 -95 26 -121 41 -187 50 -220 5 -19 16 -62 24 -95 8 -33 19 -76 25 -95 5 -19 16 -60 24 -90 31 -119 142 -469 167 -525 5 -11 34 -87 65 -170 31 -82 66 -169 76 -192 10 -23 19 -44 19 -47 0 -6 36 -89 70 -161 10 -22 33 -71 50 -110 17 -38 36 -78 41 -88 6 -10 33 -64 60 -120 28 -56 55 -111 62 -122 6 -11 21 -39 34 -62 64 -119 82 -151 156 -278 49 -84 237 -385 251 -402 6 -7 36 -49 66 -94 30 -44 92 -131 137 -193 45 -61 90 -122 100 -136 10 -13 25 -31 33 -40 8 -9 28 -34 44 -55 17 -22 32 -42 35 -45 4 -3 35 -41 70 -85 35 -44 69 -84 75 -90 6 -5 36 -39 66 -75 30 -36 66 -77 80 -92 14 -14 72 -77 130 -138 131 -141 179 -189 320 -320 61 -58 124 -116 138 -130 15 -14 56 -50 92 -80 36 -30 70 -60 75 -66 6 -6 46 -40 90 -75 44 -35 82 -66 85 -70 3 -3 23 -18 45 -35 21 -16 46 -36 55 -44 9 -8 27 -23 40 -33 14 -10 75 -55 136 -100 62 -45 149 -107 193 -137 45 -30 87 -60 94 -66 17 -14 318 -202 402 -251 127 -74 159 -92 278 -156 23 -13 51 -28 62 -34 11 -7 66 -34 122 -62 56 -27 110 -54 120 -60 10 -5 50 -24 88 -41 39 -17 88 -40 110 -50 72 -34 155 -70 161 -70 3 0 24 -9 47 -19 23 -10 110 -45 192 -76 83 -31 159 -60 170 -65 56 -25 406 -136 525 -167 30 -8 71 -19 90 -24 19 -6 62 -17 95 -25 33 -8 76 -19 95 -24 33 -9 99 -24 220 -50 30 -7 73 -16 95 -21 22 -5 78 -16 125 -24 47 -8 110 -19 140 -24 30 -6 109 -18 175 -27 66 -8 149 -19 185 -24 36 -5 126 -14 200 -20 74 -6 182 -15 240 -20 136 -13 904 -13 1040 0 58 5 166 14 240 20 74 6 164 15 200 20 36 5 119 16 185 24 66 9 145 21 175 27 30 5 93 16 140 24 47 8 103 19 125 24 22 5 65 14 95 21 121 26 187 41 220 50 19 5 62 16 95 24 33 8 76 19 95 25 19 5 60 16 90 24 119 31 469 142 525 167 11 5 88 34 170 65 83 31 169 66 192 76 23 10 44 19 47 19 6 0 89 36 161 70 22 10 72 33 110 50 39 17 78 36 88 41 10 6 64 33 120 60 56 28 111 55 122 62 11 6 39 21 63 34 118 64 150 82 277 156 84 49 385 237 402 251 7 6 49 36 94 66 44 30 131 92 193 137 61 45 122 90 136 100 13 10 31 25 40 33 9 8 34 28 55 44 22 17 42 32 45 35 3 4 41 35 85 70 44 35 85 69 90 75 6 6 39 36 75 66 36 30 77 66 92 80 14 14 77 72 138 130 141 131 189 179 320 320 58 61 116 124 130 138 14 15 50 56 80 92 30 36 60 70 66 75 6 6 40 46 75 90 35 44 66 82 70 85 3 3 18 23 35 45 16 21 36 46 44 55 8 9 23 27 33 40 10 14 55 75 100 136 45 62 107 149 137 193 30 45 60 87 66 94 14 17 202 318 251 402 74 127 92 159 156 277 13 24 28 52 34 63 7 11 34 66 62 122 27 56 54 110 60 120 5 10 24 50 41 88 17 39 40 88 50 110 34 72 70 155 70 161 0 3 9 24 19 47 10 23 45 110 76 192 31 83 60 159 65 170 25 56 136 406 167 525 8 30 19 71 24 90 6 19 17 62 25 95 8 33 19 76 24 95 9 33 24 99 50 220 7 30 16 73 21 95 5 22 16 78 24 125 8 47 19 110 24 140 6 30 18 109 27 175 8 66 19 149 24 185 5 36 14 126 20 200 6 74 15 182 20 240 13 136 13 904 0 1040 -5 58 -14 166 -20 240 -6 74 -15 164 -20 200 -5 36 -16 119 -24 185 -9 66 -21 145 -27 175 -5 30 -16 93 -24 140 -8 47 -19 103 -24 125 -5 22 -14 65 -21 95 -26 121 -41 187 -50 220 -5 19 -16 62 -24 95 -8 33 -19 76 -25 95 -5 19 -16 60 -24 90 -31 119 -142 469 -167 525 -5 11 -34 88 -65 170 -31 83 -66 169 -76 192 -10 23 -19 44 -19 47 0 6 -36 89 -70 161 -10 22 -33 72 -50 110 -17 39 -36 78 -41 88 -6 10 -33 64 -60 120 -28 56 -55 111 -62 122 -6 11 -21 39 -34 63 -64 118 -82 150 -156 277 -49 84 -237 385 -251 402 -6 7 -36 49 -66 94 -30 44 -92 131 -137 193 -45 61 -90 122 -100 136 -10 13 -25 31 -33 40 -8 9 -28 34 -44 55 -17 22 -32 42 -35 45 -4 3 -35 41 -70 85 -35 44 -69 85 -75 90 -6 6 -36 39 -66 75 -30 36 -66 77 -80 92 -14 14 -72 77 -130 138 -131 141 -179 189 -320 320 -61 58 -124 116 -138 130 -15 14 -56 50 -92 80 -36 30 -69 60 -75 66 -5 6 -46 40 -90 75 -44 35 -82 66 -85 70 -3 3 -23 18 -45 35 -21 16 -46 36 -55 44 -9 8 -27 23 -40 33 -14 10 -75 55 -136 100 -62 45 -149 107 -193 137 -45 30 -87 60 -94 66 -17 14 -318 202 -402 251 -127 74 -159 92 -277 156 -24 13 -52 28 -63 34 -11 7 -66 34 -122 62 -56 27 -110 54 -120 60 -10 5 -49 24 -88 41 -38 17 -88 40 -110 50 -72 34 -155 70 -161 70 -3 0 -24 9 -47 19 -23 10 -109 45 -192 76 -82 31 -159 60 -170 65 -56 25 -406 136 -525 167 -30 8 -71 19 -90 24 -19 6 -62 17 -95 25 -33 8 -76 19 -95 24 -33 9 -99 24 -220 50 -30 7 -73 16 -95 21 -22 5 -78 16 -125 24 -47 8 -110 19 -140 24 -30 6 -109 18 -175 27 -66 8 -149 19 -185 24 -36 5 -126 14 -200 20 -74 6 -182 15 -240 20 -123 12 -938 11 -1055 -1z m1090 -1519 c165 -15 424 -48 485 -60 25 -5 86 -16 135 -24 94 -17 212 -42 355 -77 47 -11 103 -25 125 -30 51 -11 114 -29 140 -39 11 -4 36 -12 55 -18 113 -33 248 -75 268 -83 43 -18 68 -27 207 -79 77 -29 164 -63 193 -76 29 -13 54 -24 57 -24 21 0 472 -225 600 -300 50 -29 109 -63 132 -76 53 -31 233 -144 247 -156 6 -5 55 -38 109 -73 54 -35 105 -71 113 -80 9 -8 19 -15 23 -15 4 0 16 -8 27 -18 11 -10 33 -27 49 -38 33 -21 59 -41 84 -64 9 -8 35 -28 56 -44 22 -17 42 -33 45 -36 3 -3 14 -13 26 -21 22 -15 116 -93 144 -119 9 -8 49 -44 90 -80 97 -83 437 -423 520 -520 36 -41 72 -81 80 -90 26 -28 104 -122 119 -144 8 -12 18 -23 21 -26 3 -3 19 -23 36 -45 16 -21 36 -47 44 -56 23 -25 43 -51 64 -84 11 -16 28 -38 38 -49 10 -11 18 -23 18 -27 0 -4 7 -14 15 -23 9 -8 45 -59 80 -113 35 -54 68 -103 73 -109 12 -14 125 -194 156 -247 13 -23 47 -82 76 -132 75 -128 300 -579 300 -600 0 -3 11 -28 24 -57 13 -29 47 -116 76 -193 29 -77 57 -151 62 -165 6 -14 14 -34 19 -45 6 -18 52 -165 81 -265 6 -19 14 -44 18 -55 10 -26 28 -89 39 -140 5 -22 19 -78 30 -125 35 -143 60 -261 77 -355 8 -49 19 -110 24 -135 9 -41 16 -96 41 -300 28 -231 33 -344 33 -740 0 -396 -5 -509 -33 -740 -25 -204 -32 -259 -41 -300 -5 -25 -16 -85 -24 -135 -17 -94 -42 -212 -77 -355 -11 -47 -25 -103 -30 -125 -11 -51 -29 -114 -39 -140 -4 -11 -12 -36 -18 -55 -33 -113 -75 -248 -83 -267 -18 -44 -27 -69 -79 -208 -29 -77 -63 -164 -76 -193 -13 -29 -24 -54 -24 -57 0 -21 -225 -472 -300 -600 -29 -49 -63 -109 -76 -132 -31 -53 -144 -233 -156 -247 -5 -6 -38 -55 -73 -109 -35 -54 -71 -105 -80 -113 -8 -9 -15 -19 -15 -23 0 -4 -8 -16 -18 -27 -10 -11 -27 -33 -38 -49 -21 -33 -41 -59 -64 -84 -8 -9 -28 -35 -44 -56 -17 -22 -33 -42 -36 -45 -3 -3 -13 -14 -21 -26 -15 -22 -93 -116 -119 -144 -8 -9 -44 -49 -80 -90 -83 -97 -423 -437 -520 -520 -41 -36 -81 -72 -90 -80 -28 -26 -122 -104 -144 -119 -12 -8 -23 -18 -26 -21 -3 -3 -23 -19 -45 -36 -21 -16 -47 -36 -56 -44 -25 -23 -51 -43 -84 -64 -16 -11 -38 -28 -49 -38 -11 -10 -23 -18 -27 -18 -4 0 -14 -7 -23 -15 -8 -9 -59 -45 -113 -80 -54 -35 -103 -68 -109 -73 -14 -12 -194 -125 -247 -156 -23 -13 -82 -47 -132 -76 -128 -75 -579 -300 -600 -300 -3 0 -28 -11 -57 -24 -29 -13 -116 -47 -193 -76 -139 -52 -164 -61 -207 -79 -20 -8 -155 -50 -268 -83 -19 -6 -44 -14 -55 -18 -26 -10 -89 -28 -140 -39 -22 -5 -78 -19 -125 -30 -143 -35 -261 -60 -355 -77 -49 -8 -110 -19 -135 -24 -62 -13 -300 -42 -495 -62 -160 -15 -930 -15 -1090 0 -195 20 -433 49 -495 62 -25 5 -85 16 -135 24 -94 17 -212 42 -355 77 -47 11 -103 25 -125 30 -51 11 -114 29 -140 39 -11 4 -36 12 -55 18 -113 33 -248 75 -267 83 -44 18 -69 27 -208 79 -77 29 -164 63 -193 76 -29 13 -54 24 -57 24 -21 0 -472 225 -600 300 -49 29 -109 63 -132 76 -53 31 -233 144 -247 156 -6 5 -55 38 -109 73 -54 35 -105 71 -113 80 -9 8 -19 15 -23 15 -4 0 -16 8 -27 18 -11 10 -33 27 -49 38 -33 21 -59 41 -84 64 -9 8 -35 28 -56 44 -22 17 -42 33 -45 36 -3 3 -14 13 -26 21 -22 15 -116 93 -144 119 -9 8 -49 44 -90 80 -97 83 -437 423 -520 520 -36 41 -72 81 -80 90 -26 28 -104 122 -119 144 -8 12 -18 23 -21 26 -3 3 -19 23 -36 45 -16 21 -36 47 -44 56 -23 25 -43 51 -64 84 -11 16 -28 38 -38 49 -10 11 -18 23 -18 27 0 4 -7 14 -15 23 -9 8 -45 59 -80 113 -35 54 -68 103 -73 109 -12 14 -125 194 -156 247 -13 23 -47 83 -76 132 -75 128 -300 579 -300 600 0 3 -11 28 -24 57 -13 29 -47 116 -76 193 -52 139 -61 164 -79 208 -8 19 -50 154 -83 267 -6 19 -14 44 -18 55 -10 26 -28 89 -39 140 -5 22 -19 78 -30 125 -35 143 -60 261 -77 355 -8 50 -19 110 -24 135 -13 62 -42 300 -62 495 -15 160 -15 930 0 1090 20 195 49 433 62 495 5 25 16 86 24 135 17 94 42 212 77 355 11 47 25 103 30 125 11 51 29 114 39 140 4 11 12 36 18 55 36 122 75 249 84 270 12 28 8 18 78 205 29 77 63 164 76 193 13 29 24 54 24 57 0 21 225 472 300 600 29 50 63 109 76 132 31 53 144 233 156 247 5 6 38 55 73 109 35 54 71 105 80 113 8 9 15 19 15 23 0 4 8 16 18 27 10 11 27 33 38 49 21 33 41 59 64 84 8 9 28 35 44 56 17 22 33 42 36 45 3 3 13 14 21 26 15 22 93 116 119 144 8 9 44 49 80 90 83 97 423 437 520 520 41 36 81 72 90 80 28 26 122 104 144 119 12 8 23 18 26 21 3 3 23 19 45 36 21 16 47 36 56 44 25 23 51 43 84 64 16 11 38 28 49 38 11 10 23 18 27 18 4 0 14 7 23 15 8 9 59 45 113 80 54 35 103 68 109 73 14 12 194 125 247 156 23 13 83 47 132 76 128 75 579 300 600 300 3 0 28 11 57 24 29 13 116 47 193 76 139 52 164 61 208 79 19 8 154 50 267 83 19 6 44 14 55 18 26 10 89 28 140 39 22 5 78 19 125 30 143 35 261 60 355 77 50 8 110 19 135 24 25 5 70 12 100 15 30 3 82 10 115 15 125 18 265 32 410 40 182 10 832 4 970 -10z"/>
 <path d="M6590 11493 c-68 -11 -229 -84 -290 -131 -117 -91 -208 -209 -250 -327 -12 -33 -27 -71 -33 -84 -18 -35 -16 -343 2 -401 17 -55 37 -106 57 -143 9 -15 21 -38 27 -50 32 -61 107 -142 271 -292 43 -38 94 -86 115 -105 21 -19 70 -64 110 -100 39 -36 91 -83 114 -105 95 -89 187 -174 258 -236 40 -37 92 -84 115 -105 35 -33 125 -117 249 -229 17 -15 57 -53 90 -84 33 -31 103 -95 155 -141 52 -47 106 -96 120 -110 14 -14 65 -61 114 -105 48 -44 100 -91 115 -105 70 -64 241 -221 285 -261 28 -24 66 -60 86 -79 20 -19 70 -65 111 -103 41 -37 106 -96 144 -132 l70 -65 -70 -65 c-38 -36 -103 -95 -144 -132 -41 -38 -91 -84 -111 -103 -20 -19 -72 -66 -115 -105 -44 -38 -96 -86 -115 -105 -20 -19 -79 -73 -130 -120 -164 -149 -214 -194 -240 -220 -14 -14 -68 -63 -120 -110 -52 -46 -122 -109 -154 -140 -108 -100 -120 -111 -205 -189 -114 -102 -109 -98 -182 -166 -36 -33 -114 -105 -174 -160 -60 -55 -129 -118 -152 -140 -23 -22 -72 -67 -109 -100 -37 -33 -87 -78 -110 -100 -24 -22 -78 -71 -120 -110 -161 -147 -239 -231 -271 -292 -6 -12 -18 -35 -27 -50 -20 -37 -40 -88 -57 -143 -18 -58 -20 -366 -2 -401 6 -13 21 -51 33 -84 42 -118 133 -236 250 -327 32 -25 134 -79 185 -98 11 -4 34 -13 50 -20 18 -8 91 -15 178 -18 118 -4 162 -1 219 13 40 9 79 21 87 25 9 5 30 15 46 23 40 19 99 51 105 57 3 3 23 18 45 35 37 27 76 61 161 140 18 17 68 62 110 100 43 39 94 86 114 105 20 19 58 55 86 79 53 48 238 218 288 265 17 15 67 60 110 100 44 39 112 101 150 137 39 36 96 88 126 115 30 27 62 56 70 65 8 8 42 39 75 69 33 29 92 83 130 119 39 36 106 98 148 136 43 39 93 84 110 100 112 104 248 228 287 261 24 21 60 55 80 74 42 40 204 189 300 275 36 33 72 66 80 74 8 9 38 36 65 61 75 67 253 230 295 270 20 19 73 67 116 105 116 103 241 231 249 255 3 11 10 20 14 20 8 0 69 118 90 175 16 43 41 192 41 245 0 53 -25 202 -41 245 -21 57 -82 175 -90 175 -4 0 -11 9 -14 20 -8 24 -133 152 -249 255 -43 39 -96 86 -116 105 -42 40 -220 203 -295 270 -27 25 -57 52 -65 61 -8 8 -44 41 -80 74 -95 85 -258 235 -300 275 -20 19 -72 66 -116 105 -43 38 -95 86 -115 105 -34 33 -157 146 -278 255 -30 28 -87 80 -126 116 -38 37 -95 88 -125 114 -30 27 -62 55 -70 64 -8 9 -40 38 -70 65 -30 27 -87 79 -125 115 -39 36 -107 98 -150 138 -44 39 -96 86 -116 105 -63 59 -243 224 -289 264 -24 21 -60 55 -80 74 -20 19 -70 65 -111 102 -41 38 -103 95 -139 129 -36 33 -90 79 -120 102 -30 23 -57 45 -60 48 -3 3 -18 12 -35 20 -16 9 -39 20 -50 27 -94 53 -186 72 -340 71 -71 -1 -141 -4 -155 -6z"/>
 </g>

</svg>