<!DOCTYPE svg PUBLIC "-//W3C//DTD SVG 20010904//EN" "http://www.w3.org/TR/2001/REC-SVG-20010904/DTD/svg10.dtd">
<svg version="1.0" xmlns="http://www.w3.org/2000/svg" width="120px" height="120px" viewBox="0 0 1200 1200" preserveAspectRatio="xMidYMid meet">
<g id="layer101" fill="#006df0" stroke="none">
 <path d="M746 1014 c-33 -33 -19 -55 136 -211 l152 -153 -505 0 c-379 0 -508 -3 -517 -12 -15 -15 -15 -61 0 -76 9 -9 138 -12 517 -12 l505 0 -152 -153 c-99 -100 -152 -161 -152 -175 0 -25 25 -52 48 -52 9 0 107 91 219 202 159 158 203 208 203 228 0 20 -44 70 -203 228 -112 111 -210 202 -219 202 -9 0 -24 -7 -32 -16z"/>
 </g>

</svg>