<!DOCTYPE svg PUBLIC "-//W3C//DTD SVG 20010904//EN" "http://www.w3.org/TR/2001/REC-SVG-20010904/DTD/svg10.dtd">
<svg version="1.0" xmlns="http://www.w3.org/2000/svg" width="512px" height="512px" viewBox="0 0 5120 5120" preserveAspectRatio="xMidYMid meet">
<g id="layer101" fill="#000000" stroke="none">
 <path d="M4460 5086 c-25 -7 -65 -25 -90 -41 -25 -15 -261 -245 -525 -512 -539 -544 -542 -548 -552 -685 -4 -56 0 -88 15 -135 l19 -61 -81 -81 -82 -81 -63 46 c-216 157 -481 274 -743 328 -863 178 -1726 -243 -2124 -1035 -204 -407 -255 -901 -138 -1349 142 -543 510 -996 1014 -1245 278 -138 544 -199 860 -199 310 0 594 66 859 198 662 333 1072 990 1073 1721 1 178 -12 301 -47 450 -60 256 -161 481 -306 684 l-57 79 84 83 c77 77 85 82 108 71 88 -40 222 -33 313 15 62 34 1004 961 1048 1033 63 100 71 237 21 345 -20 45 -57 89 -154 188 -155 157 -210 189 -330 193 -43 2 -97 -2 -122 -10z m-2339 -1556 c269 -28 534 -127 756 -283 113 -79 291 -257 370 -370 261 -370 352 -837 247 -1268 -99 -409 -348 -754 -704 -976 -405 -251 -914 -301 -1369 -133 -414 152 -769 507 -921 921 -168 455 -118 964 133 1369 96 154 253 327 392 431 314 236 710 348 1096 309z"/>
 <path d="M1745 3109 c-317 -41 -613 -234 -779 -508 -98 -162 -144 -317 -153 -512 -7 -144 6 -253 44 -374 26 -84 102 -245 115 -245 5 0 8 42 8 93 1 533 356 1048 863 1252 176 71 436 115 595 100 39 -4 72 -3 72 2 0 5 -24 23 -52 40 -217 131 -463 183 -713 152z"/>
 </g>

</svg>