<!DOCTYPE svg PUBLIC "-//W3C//DTD SVG 20010904//EN" "http://www.w3.org/TR/2001/REC-SVG-20010904/DTD/svg10.dtd">
<svg version="1.0" xmlns="http://www.w3.org/2000/svg" width="120px" height="120px" viewBox="0 0 1200 1200" preserveAspectRatio="xMidYMid meet">
<g id="layer101" fill="#ffffff" stroke="none">
 <path d="M398 1114 c-35 -19 -48 -43 -48 -93 0 -28 8 -48 26 -70 25 -30 25 -31 4 -31 -29 0 -77 -26 -90 -49 -23 -44 -8 -118 30 -151 17 -14 14 -30 -44 -290 l-61 -275 -85 -3 c-124 -3 -132 -6 -128 -45 l3 -32 132 -3 c150 -3 141 -7 163 85 l12 53 441 2 442 3 3 28 c3 24 -113 455 -138 514 l-9 23 -343 2 -343 3 0 25 0 25 345 5 c190 3 346 7 348 8 2 1 2 17 0 35 -2 25 -8 33 -26 35 l-23 4 25 25 c21 21 26 35 26 75 0 41 -5 54 -29 79 -57 57 -155 32 -181 -46 -14 -43 1 -97 33 -120 19 -14 3 -15 -175 -15 l-197 0 24 24 c68 68 20 187 -75 186 -19 -1 -47 -7 -62 -16z m82 -80 c11 -12 11 -18 -2 -30 -18 -18 -48 -8 -48 15 0 33 28 42 50 15z m498 -10 c3 -22 -21 -39 -39 -28 -11 6 -12 38 -2 48 13 13 38 1 41 -20z m74 -529 c31 -110 58 -201 58 -202 0 -2 -175 -3 -390 -3 -214 0 -390 2 -390 4 0 3 73 331 85 384 l5 22 287 -2 287 -3 58 -200z"/>
 </g>

</svg>