<!DOCTYPE svg PUBLIC "-//W3C//DTD SVG 20010904//EN" "http://www.w3.org/TR/2001/REC-SVG-20010904/DTD/svg10.dtd">
<svg version="1.0" xmlns="http://www.w3.org/2000/svg" width="120px" height="120px" viewBox="0 0 1200 1200" preserveAspectRatio="xMidYMid meet">
<g id="layer101" fill="#000000" stroke="none">
 <path d="M750 1189 c-14 -6 -79 -12 -145 -13 -100 -2 -131 -7 -187 -28 -100 -38 -173 -85 -237 -155 -104 -113 -152 -241 -151 -403 1 -65 -4 -109 -15 -140 -24 -66 -17 -199 14 -263 30 -62 96 -128 158 -158 64 -31 197 -38 263 -14 31 11 75 16 140 15 262 -2 464 139 558 388 21 56 26 86 27 182 1 63 7 132 14 154 20 60 10 210 -18 264 -32 62 -82 114 -143 147 -47 26 -64 30 -153 32 -57 2 -111 -2 -125 -8z m230 -60 c72 -32 106 -65 139 -130 26 -52 31 -74 31 -135 0 -40 -5 -85 -12 -101 -6 -15 -12 -80 -13 -143 -1 -91 -6 -128 -24 -180 -45 -130 -144 -245 -263 -305 -88 -44 -162 -58 -268 -53 -68 4 -93 1 -125 -13 -51 -24 -146 -24 -211 -2 -66 22 -145 101 -167 167 -22 65 -22 160 2 211 14 32 17 58 13 130 -9 194 77 362 240 469 90 59 166 80 298 81 63 1 126 7 140 13 44 19 169 14 220 -9z"/>
 <path d="M515 1000 c-156 -25 -255 -114 -255 -229 0 -109 140 -140 186 -42 48 103 154 143 234 89 50 -34 58 -53 35 -79 -25 -27 -45 -35 -156 -59 -111 -24 -165 -47 -217 -95 -77 -69 -94 -181 -39 -264 73 -110 333 -154 479 -80 84 42 128 99 128 168 0 60 -35 96 -93 96 -51 0 -81 -22 -113 -80 -23 -43 -56 -60 -111 -58 -48 2 -108 31 -108 53 0 24 69 55 176 80 195 46 277 110 287 224 6 71 -11 119 -61 174 -85 91 -214 126 -372 102z m232 -70 c71 -31 100 -57 128 -115 65 -131 -11 -216 -243 -271 -166 -39 -221 -82 -196 -153 21 -60 140 -97 226 -70 35 11 50 25 81 72 31 48 42 57 67 57 19 0 33 -7 40 -21 24 -45 -14 -105 -93 -147 -47 -25 -62 -27 -157 -27 -94 1 -112 4 -168 30 -76 34 -112 79 -112 138 0 111 91 174 310 217 71 14 118 42 134 82 49 115 -130 213 -264 146 -41 -21 -68 -52 -116 -134 -9 -16 -16 -17 -40 -9 -31 11 -41 38 -30 81 8 31 61 91 99 110 87 45 248 52 334 14z"/>
 </g>

</svg>