<!DOCTYPE svg PUBLIC "-//W3C//DTD SVG 20010904//EN" "http://www.w3.org/TR/2001/REC-SVG-20010904/DTD/svg10.dtd">
<svg version="1.0" xmlns="http://www.w3.org/2000/svg" width="240px" height="240px" viewBox="0 0 2400 2400" preserveAspectRatio="xMidYMid meet">
<g id="layer101" fill="#000000" stroke="none">
 <path d="M805 1988 c-3 -7 -29 -152 -60 -323 -30 -170 -58 -321 -62 -334 -6 -18 -81 -62 -343 -200 -325 -172 -335 -178 -338 -209 -4 -40 1 -42 193 -81 83 -17 598 -123 1145 -236 547 -113 1009 -204 1025 -203 25 2 31 8 33 31 2 18 -95 294 -273 780 -153 414 -281 760 -287 770 -19 36 -59 18 -282 -127 -121 -79 -226 -146 -232 -149 -6 -3 -111 61 -235 143 -219 147 -272 172 -284 138z m1219 -768 c129 -349 233 -637 231 -638 -2 -2 -265 189 -585 424 -422 310 -578 430 -570 438 6 6 160 108 343 227 273 178 333 214 340 200 4 -9 113 -302 241 -651z m-916 505 l123 -82 -96 -62 c-53 -33 -99 -61 -103 -61 -4 0 -27 66 -51 148 -25 81 -47 154 -50 162 -6 17 -13 21 177 -105z m-171 -232 l25 -82 432 -317 c237 -174 436 -321 441 -326 6 -6 -145 69 -335 166 -190 97 -432 220 -538 274 -106 53 -191 101 -188 107 2 5 21 108 42 229 l38 218 29 -93 c16 -52 40 -131 54 -176z m695 -731 c212 -108 385 -198 383 -200 -5 -5 -1825 373 -1825 379 0 3 120 69 266 146 l266 141 262 -134 c143 -74 435 -223 648 -332z"/>
 </g>

</svg>