<!DOCTYPE svg PUBLIC "-//W3C//DTD SVG 20010904//EN" "http://www.w3.org/TR/2001/REC-SVG-20010904/DTD/svg10.dtd">
<svg version="1.0" xmlns="http://www.w3.org/2000/svg" width="240px" height="240px" viewBox="0 0 2400 2400" preserveAspectRatio="xMidYMid meet">
<g id="layer101" fill="#000000" stroke="none">
 <path d="M590 2169 c-250 -27 -493 -99 -568 -169 -28 -26 -31 -85 -4 -98 9 -6 69 -15 132 -21 132 -13 235 -38 333 -83 l69 -32 -70 -16 c-149 -35 -262 -122 -327 -252 -36 -73 -44 -115 -23 -136 18 -18 46 -15 113 13 33 13 74 24 90 24 l30 0 -30 -21 c-16 -11 -68 -60 -115 -107 -63 -63 -96 -107 -126 -166 -55 -106 -68 -148 -55 -174 18 -34 47 -35 99 -4 52 31 99 53 114 53 5 0 -4 -17 -20 -37 -91 -117 -132 -228 -132 -360 0 -48 6 -111 14 -139 15 -57 66 -174 75 -174 4 0 40 34 81 76 148 149 336 272 520 339 124 45 334 95 341 82 4 -7 9 -39 12 -72 14 -171 132 -341 289 -421 155 -78 305 -71 500 26 l76 38 147 -59 c81 -32 158 -59 172 -59 43 0 50 39 19 106 -15 32 -38 73 -52 91 l-24 32 40 -14 c59 -21 90 -7 90 40 0 76 -88 209 -164 250 l-36 20 0 76 c0 174 -65 433 -155 612 -150 301 -406 545 -689 657 -170 68 -250 82 -476 86 -113 1 -243 -2 -290 -7z m559 -108 c415 -105 749 -427 890 -858 43 -132 62 -239 68 -391 l6 -133 36 -15 c39 -16 81 -52 112 -96 l20 -27 -72 24 c-81 28 -109 31 -127 13 -24 -24 -11 -52 63 -130 41 -44 75 -83 75 -88 0 -5 -26 2 -57 15 -32 12 -83 31 -114 40 l-57 18 -108 -51 c-60 -28 -127 -55 -149 -61 -115 -31 -254 11 -356 106 -105 98 -149 205 -149 364 0 54 -2 99 -5 99 -2 0 -70 -14 -151 -31 -340 -70 -564 -174 -784 -363 -36 -31 -68 -56 -72 -56 -14 0 -30 107 -26 176 9 141 106 286 273 404 l76 55 -121 3 c-86 2 -140 -2 -183 -13 -33 -8 -61 -14 -63 -12 -2 2 8 21 23 43 81 122 196 221 320 275 l71 32 -5 36 c-3 20 -9 40 -13 44 -10 11 -267 13 -298 3 -21 -7 -23 -6 -13 11 19 36 95 105 143 129 75 38 161 54 296 54 67 0 122 3 122 8 -1 12 -178 133 -254 174 -90 48 -175 75 -301 98 l-100 17 95 30 c185 59 375 83 630 78 137 -2 193 -8 259 -24z"/>
 </g>

</svg>