<!DOCTYPE svg PUBLIC "-//W3C//DTD SVG 20010904//EN" "http://www.w3.org/TR/2001/REC-SVG-20010904/DTD/svg10.dtd">
<svg version="1.0" xmlns="http://www.w3.org/2000/svg" width="250px" height="250px" viewBox="0 0 2500 2500" preserveAspectRatio="xMidYMid meet">
<g id="layer101" fill="#f3c43c" stroke="none">
 <path d="M0 1250 l0 -1250 1250 0 1250 0 0 1250 0 1250 -1250 0 -1250 0 0 -1250z"/>
 </g>
<g id="layer102" fill="#e0c470" stroke="none">
 <path d="M0 1250 l0 -1250 1250 0 1250 0 0 1250 0 1250 -1250 0 -1250 0 0 -1250z m1344 1185 c9 -19 21 -37 26 -40 8 -5 113 -150 135 -186 6 -10 37 -55 70 -101 33 -45 60 -85 60 -88 0 -3 16 -26 36 -50 47 -60 109 -146 109 -153 0 -3 27 -42 60 -86 33 -44 66 -90 73 -103 6 -13 31 -48 54 -78 55 -73 62 -102 29 -119 -13 -8 -36 -13 -50 -13 -15 0 -29 -4 -32 -9 -3 -5 -23 -9 -44 -9 -21 0 -42 -4 -45 -10 -3 -5 -24 -10 -45 -10 -21 0 -42 -4 -45 -10 -3 -5 -24 -10 -45 -10 -21 0 -42 -4 -45 -10 -3 -5 -24 -10 -45 -10 -21 0 -42 -4 -45 -10 -3 -5 -20 -10 -36 -10 -17 0 -40 -5 -51 -11 -11 -6 -36 -11 -54 -11 -19 0 -34 -4 -34 -9 0 -5 -18 -9 -39 -9 -22 0 -43 -4 -46 -10 -3 -5 -24 -10 -45 -10 -21 0 -42 -5 -45 -10 -3 -5 -13 -10 -21 -10 -35 0 -130 -56 -189 -111 -60 -56 -115 -144 -115 -182 0 -10 -4 -17 -10 -17 -6 0 -10 -44 -10 -113 0 -93 4 -121 20 -155 11 -22 20 -45 20 -49 0 -15 84 -119 122 -152 42 -36 124 -81 150 -81 9 0 20 -5 23 -10 11 -17 207 -12 246 6 19 9 53 26 76 37 77 37 150 112 188 192 19 40 35 80 35 88 0 9 4 18 9 21 12 8 12 184 0 191 -5 4 -9 13 -9 22 0 37 -63 143 -116 196 -31 31 -61 57 -66 57 -5 0 -4 9 2 20 8 15 21 20 48 20 21 0 43 5 49 11 5 5 25 11 42 11 17 1 34 5 37 10 3 4 23 8 44 8 21 0 42 5 45 10 3 6 28 10 56 10 46 0 51 -3 79 -41 41 -57 88 -156 109 -229 10 -36 27 -183 24 -210 -1 -8 -5 -49 -8 -90 -3 -41 -10 -79 -16 -84 -5 -6 -9 -23 -9 -38 0 -35 -44 -134 -95 -213 -37 -58 -159 -185 -200 -208 -12 -7 -40 -24 -61 -38 -21 -14 -57 -32 -79 -40 -22 -7 -44 -17 -50 -21 -5 -4 -18 -8 -30 -8 -12 0 -25 -4 -30 -9 -15 -14 -98 -23 -210 -24 -155 -1 -242 16 -337 64 -10 5 -24 9 -31 9 -7 0 -46 20 -88 44 -90 53 -214 166 -273 250 -51 71 -116 199 -116 226 0 10 -5 22 -10 25 -6 3 -10 21 -10 39 0 17 -4 36 -9 42 -8 8 -24 140 -24 199 0 59 16 191 24 200 5 5 9 21 9 36 0 15 5 31 10 34 6 3 10 15 10 25 0 15 55 131 95 198 28 49 565 810 579 821 9 7 16 18 16 23 0 25 146 208 165 208 7 0 20 -16 29 -35z"/>
 </g>
<g id="layer103" fill="#fffdd3" stroke="none">
 <path d="M0 1250 l0 -1250 1250 0 1250 0 0 1250 0 1250 -1250 0 -1250 0 0 -1250z m1481 995 c457 -650 549 -784 549 -797 0 -11 -45 -25 -167 -52 -561 -126 -703 -161 -750 -183 -64 -30 -155 -111 -188 -168 -144 -245 -39 -553 223 -656 85 -34 208 -37 292 -9 125 42 216 121 270 235 95 200 41 414 -140 558 -24 18 -31 30 -23 35 6 4 94 25 194 47 l182 39 29 -34 c53 -64 113 -208 133 -324 12 -70 6 -231 -11 -307 -39 -174 -143 -335 -285 -445 -316 -243 -783 -211 -1089 74 -218 202 -315 460 -288 761 10 107 52 248 101 333 60 105 782 1128 794 1125 7 -1 85 -105 174 -232z"/>
 </g>
<g id="layer104" fill="#ffffff" stroke="none">
 <path d="M0 1250 l0 -1250 1250 0 1250 0 0 1250 0 1250 -1250 0 -1250 0 0 -1250z m1333 1223 c47 -53 707 -1009 707 -1025 0 -10 -10 -22 -23 -27 -12 -5 -155 -38 -317 -74 -521 -117 -553 -125 -622 -166 -200 -120 -266 -380 -150 -594 14 -27 50 -70 79 -97 206 -188 518 -148 669 86 49 77 67 150 62 258 -5 126 -42 204 -138 296 -46 44 -66 70 -61 79 5 7 46 21 92 32 324 74 299 73 337 17 219 -320 174 -753 -108 -1027 -103 -101 -270 -186 -416 -211 -89 -16 -275 -8 -364 15 -87 23 -252 103 -327 159 -254 191 -397 532 -353 841 21 152 70 276 160 410 133 198 714 1022 728 1033 21 16 26 15 45 -5z"/>
 </g>

</svg>