<!DOCTYPE svg PUBLIC "-//W3C//DTD SVG 20010904//EN" "http://www.w3.org/TR/2001/REC-SVG-20010904/DTD/svg10.dtd">
<svg version="1.0" xmlns="http://www.w3.org/2000/svg" width="1600px" height="768px" viewBox="0 0 16000 7680" preserveAspectRatio="xMidYMid meet">
<g id="layer101" fill="#000000" stroke="none">
 <path d="M10950 6935 l0 -286 -707 1 c-390 1 -739 -1 -778 -5 -76 -7 -190 -35 -270 -66 -28 -10 -54 -19 -58 -19 -12 0 -201 -92 -253 -124 -113 -69 -204 -135 -204 -146 0 -6 -5 -10 -12 -10 -14 0 -206 -196 -533 -545 -225 -240 -253 -269 -480 -507 -39 -40 -145 -152 -235 -248 -174 -185 -266 -283 -340 -360 -25 -25 -94 -99 -155 -164 -178 -190 -273 -250 -485 -309 -74 -21 -90 -21 -1652 -24 l-1577 -3 -6 37 c-12 71 -80 263 -108 306 -9 14 -17 32 -17 39 0 7 -9 24 -20 38 -11 14 -20 29 -20 33 0 20 -152 208 -225 280 -107 105 -110 107 -123 107 -7 0 -12 4 -12 9 0 8 -15 19 -110 78 -246 154 -557 227 -860 202 -355 -29 -639 -161 -902 -421 -60 -60 -168 -199 -168 -217 0 -6 -3 -11 -8 -11 -13 0 -152 -284 -152 -310 0 -6 -8 -39 -19 -73 -79 -259 -61 -627 41 -882 31 -75 90 -195 116 -233 12 -18 22 -35 22 -37 0 -7 90 -126 125 -164 62 -69 82 -88 160 -152 102 -82 147 -112 271 -177 79 -41 166 -73 299 -109 95 -25 112 -27 330 -27 216 0 236 2 325 26 113 31 215 65 250 83 14 7 50 25 80 40 30 15 62 33 71 41 8 8 19 14 23 14 7 0 49 28 101 68 198 151 321 303 431 529 30 61 54 117 54 124 0 7 9 37 19 68 11 31 23 73 26 94 l6 38 527 -4 c495 -3 531 -5 602 -24 120 -34 210 -75 306 -142 28 -20 133 -124 234 -231 184 -195 275 -291 360 -380 94 -98 359 -378 595 -629 27 -29 77 -81 110 -116 71 -74 136 -142 352 -372 89 -94 184 -191 210 -215 75 -69 150 -128 161 -128 6 0 12 -4 14 -9 3 -10 117 -80 175 -108 21 -11 47 -24 58 -30 53 -29 177 -75 288 -108 106 -30 226 -35 958 -35 l725 0 32 -68 c17 -37 43 -85 57 -105 14 -21 25 -42 25 -47 0 -4 3 -10 8 -12 4 -1 25 -24 47 -49 135 -156 322 -253 537 -279 212 -27 463 40 615 164 46 37 153 145 153 154 0 6 4 12 9 14 4 1 21 23 37 48 62 98 99 193 119 310 57 331 -67 647 -330 838 -63 46 -94 64 -175 100 -101 46 -167 57 -335 57 -141 0 -169 -3 -235 -24 -75 -24 -197 -84 -253 -124 -123 -89 -226 -219 -292 -370 l-16 -37 -737 0 -737 0 -93 25 c-88 23 -238 89 -273 121 -8 8 -20 14 -26 14 -13 0 -131 122 -523 540 -90 96 -196 208 -235 248 -227 238 -255 267 -480 507 -87 94 -191 203 -230 244 -38 40 -95 99 -125 130 -30 32 -71 74 -89 94 l-35 37 4297 0 4297 0 0 -350 c0 -192 2 -350 5 -350 2 0 20 9 40 20 19 11 50 29 69 39 18 11 44 25 57 33 13 7 31 18 39 24 8 7 43 27 78 45 34 19 78 43 96 54 19 11 68 40 111 65 42 25 84 50 93 55 10 6 55 32 102 58 47 26 103 59 125 73 22 13 49 29 60 34 11 5 38 21 60 35 22 13 56 33 75 43 35 19 91 51 142 81 50 30 459 266 504 291 24 13 43 29 41 34 -1 4 -23 20 -47 34 -25 14 -58 33 -75 43 -16 10 -46 27 -65 37 -38 20 -99 55 -145 83 -16 10 -68 40 -115 66 -47 26 -92 53 -102 58 -9 6 -49 29 -90 53 -40 24 -89 52 -108 64 -19 11 -60 34 -90 51 -30 16 -66 37 -80 46 -14 8 -34 21 -45 27 -11 6 -37 21 -57 32 -21 12 -55 32 -75 44 -21 11 -47 26 -58 32 -11 6 -31 19 -45 27 -14 9 -50 30 -80 46 -30 17 -69 39 -87 49 -115 69 -214 124 -223 124 -5 0 -10 4 -10 8 0 7 -82 52 -95 52 -3 0 -5 -157 -5 -350 l0 -350 -3241 0 c-3086 0 -3241 1 -3228 18 8 9 17 19 20 22 3 3 79 84 169 180 169 180 250 266 355 375 33 35 83 87 110 116 224 238 486 515 595 629 259 271 346 364 357 380 36 51 278 200 325 200 7 0 42 9 76 20 61 19 93 20 788 20 l724 0 0 -280 0 -280 850 0 850 0 0 850 0 850 -850 0 -850 0 0 -285z"/>
 </g>

</svg>