<!DOCTYPE svg PUBLIC "-//W3C//DTD SVG 20010904//EN" "http://www.w3.org/TR/2001/REC-SVG-20010904/DTD/svg10.dtd">
<svg version="1.0" xmlns="http://www.w3.org/2000/svg" width="120px" height="120px" viewBox="0 0 1200 1200" preserveAspectRatio="xMidYMid meet">
<g id="layer101" fill="#000000" stroke="none">
 <path d="M327 1193 c-4 -3 -7 -37 -7 -74 l0 -69 -39 -19 c-72 -37 -148 -117 -188 -199 l-38 -76 -3 -190 c-4 -221 6 -280 68 -374 45 -70 94 -112 180 -155 l64 -32 213 -3 c244 -4 280 3 381 67 79 52 145 140 173 232 18 60 20 88 17 261 l-3 194 -38 76 c-61 124 -176 213 -306 238 -29 5 -110 10 -178 10 l-125 0 -65 60 c-61 56 -90 70 -106 53z m106 -130 l38 -38 172 -5 c165 -5 174 -6 232 -34 72 -36 144 -106 178 -173 39 -76 50 -154 45 -315 -6 -187 -23 -235 -117 -329 -104 -104 -139 -114 -381 -114 -242 0 -277 10 -381 114 -94 94 -111 142 -117 329 -5 161 6 239 45 315 32 63 104 135 168 167 61 30 65 35 65 83 0 20 3 37 7 37 4 0 24 -17 46 -37z"/>
 <path d="M645 813 c-151 -87 -249 -177 -333 -302 -72 -108 -66 -180 20 -249 28 -23 54 -42 58 -42 16 0 139 147 146 174 5 20 1 35 -15 57 l-21 29 20 39 c21 42 67 83 112 100 21 8 29 6 44 -10 9 -10 29 -19 43 -19 27 0 178 88 195 114 7 10 0 29 -23 65 -70 109 -120 118 -246 44z m145 -13 c5 0 21 -17 34 -37 l25 -37 -57 -38 c-65 -43 -77 -46 -92 -18 -13 25 -36 25 -93 1 -63 -27 -116 -78 -143 -136 -29 -62 -29 -73 -3 -101 24 -26 22 -31 -37 -97 l-41 -46 -31 32 c-21 22 -32 43 -32 63 0 53 122 215 215 285 82 62 218 140 233 134 7 -3 18 -5 22 -5z"/>
 <path d="M885 453 c-39 -90 -118 -169 -208 -208 -55 -24 -67 -34 -67 -52 0 -33 34 -30 118 12 86 43 162 123 204 212 33 69 33 97 3 101 -16 2 -26 -10 -50 -65z"/>
 <path d="M698 475 c-11 -20 -33 -42 -49 -51 -40 -20 -40 -54 0 -54 35 0 84 38 101 80 26 62 -17 83 -52 25z"/>
 <path d="M791 474 c-18 -50 -66 -101 -123 -130 -46 -24 -63 -53 -38 -69 16 -10 103 34 143 73 71 68 102 162 54 162 -17 0 -26 -9 -36 -36z"/>
 </g>

</svg>