<!DOCTYPE svg PUBLIC "-//W3C//DTD SVG 20010904//EN" "http://www.w3.org/TR/2001/REC-SVG-20010904/DTD/svg10.dtd">
<svg version="1.0" xmlns="http://www.w3.org/2000/svg" width="1200px" height="1046px" viewBox="0 0 12000 10460" preserveAspectRatio="xMidYMid meet">
<g id="layer101" fill="#f91600" stroke="none">
 <path d="M2155 10445 c-239 -68 -425 -267 -496 -531 -31 -112 -37 -331 -14 -445 35 -176 123 -341 233 -439 63 -56 183 -120 277 -145 94 -26 265 -31 366 -11 136 27 236 82 345 190 106 106 148 181 189 338 61 230 49 436 -37 633 -66 152 -156 258 -287 335 -121 72 -165 82 -356 86 -125 2 -183 0 -220 -11z m331 -351 c81 -38 168 -161 199 -279 20 -79 19 -232 -3 -316 -35 -133 -135 -254 -233 -283 -133 -40 -255 5 -340 123 -51 71 -79 162 -86 281 -14 249 95 445 274 490 50 12 146 4 189 -16z"/>
 <path d="M3771 10444 c-92 -25 -171 -73 -257 -159 -67 -66 -89 -96 -127 -175 -188 -385 -111 -892 164 -1095 75 -55 184 -109 264 -131 123 -33 296 -28 433 12 l22 6 0 -296 0 -296 195 0 195 0 0 1060 0 1060 -182 -2 -183 -3 -3 -35 c-5 -62 -9 -64 -50 -33 -101 79 -177 103 -316 102 -56 0 -125 -7 -155 -15z m373 -359 c29 -14 69 -41 89 -60 l37 -36 0 -373 0 -374 -82 -22 c-111 -30 -212 -25 -291 14 -64 31 -146 115 -182 187 -61 120 -54 349 14 505 37 83 130 162 216 185 49 13 142 1 199 -26z"/>
 <path d="M5236 10449 c-164 -39 -308 -179 -352 -344 -29 -109 -11 -263 43 -355 60 -103 192 -199 343 -250 52 -17 388 -70 447 -70 16 0 17 -59 2 -115 -22 -78 -118 -135 -228 -135 -99 0 -231 48 -337 121 l-41 28 -67 -140 c-65 -137 -67 -142 -49 -161 42 -47 255 -131 403 -159 81 -15 254 -15 323 1 198 46 335 183 387 386 19 72 20 112 20 626 l0 548 -184 0 -185 0 -6 -55 -7 -55 -35 30 c-44 39 -119 77 -190 95 -63 16 -224 19 -287 4z m379 -353 c30 -14 71 -37 90 -52 l35 -26 0 -150 0 -150 -67 7 c-304 32 -393 83 -401 235 -4 64 -2 69 28 103 62 71 202 85 315 33z"/>
 <path d="M7860 10445 c-226 -63 -400 -234 -480 -473 -41 -124 -53 -216 -47 -362 20 -454 308 -750 731 -750 286 0 523 144 637 385 60 129 93 276 92 420 -1 366 -180 650 -481 763 -60 22 -85 26 -232 28 -125 3 -178 0 -220 -11z m323 -349 c79 -32 161 -139 198 -255 27 -83 29 -246 5 -341 -71 -276 -334 -389 -518 -221 -98 89 -141 205 -141 376 0 292 151 478 371 459 30 -2 68 -10 85 -18z"/>
 <path d="M11202 10449 c-199 -33 -362 -137 -467 -299 -90 -138 -125 -275 -125 -484 0 -277 62 -449 220 -607 150 -151 298 -206 529 -197 140 6 212 26 317 89 75 45 173 152 218 239 60 114 106 332 106 503 l0 67 -494 0 -495 0 5 38 c26 183 126 284 312 312 140 22 345 -24 451 -100 22 -17 43 -30 45 -30 3 0 28 72 57 159 60 180 60 175 -22 217 -147 74 -484 122 -657 93z m382 -1016 c-16 -95 -86 -185 -174 -226 -156 -73 -346 41 -385 231 l-7 32 287 0 286 0 -7 -37z"/>
 <path d="M586 10298 c-30 -73 -175 -416 -320 -763 l-265 -630 211 -3 c156 -2 214 1 219 10 4 6 92 227 196 490 103 263 191 478 194 478 3 0 72 -174 154 -387 81 -214 165 -434 187 -490 l39 -103 205 0 c191 0 205 1 200 18 -4 9 -142 352 -309 762 l-303 745 -176 3 -175 2 -57 -132z"/>
 <path d="M6540 9825 l0 -605 -105 0 -105 0 0 -160 0 -160 105 0 105 0 0 -102 c0 -171 41 -292 135 -395 86 -97 230 -140 434 -130 110 5 252 35 275 57 5 6 0 75 -14 173 l-23 164 -56 -17 c-130 -40 -230 -35 -291 16 -44 37 -59 72 -66 153 l-7 71 167 0 166 0 0 165 0 165 -160 0 -160 0 0 605 0 605 -200 0 -200 0 0 -605z"/>
 <path d="M9010 9665 l0 -765 184 0 c199 0 196 -1 196 55 0 50 9 57 44 30 51 -39 177 -94 251 -110 145 -31 310 -13 425 45 129 65 211 185 252 371 19 87 21 135 25 617 l5 522 -206 0 -205 0 -3 -502 c-3 -485 -4 -505 -24 -554 -31 -76 -70 -120 -130 -150 -107 -52 -242 -20 -366 87 l-48 41 0 539 0 539 -200 0 -200 0 0 -765z"/>
 <path d="M5840 7309 c-538 -32 -1098 -198 -1565 -464 -961 -546 -1622 -1483 -1809 -2565 -48 -280 -65 -707 -38 -970 79 -758 362 -1435 838 -2004 120 -143 370 -389 507 -500 556 -445 1215 -717 1921 -791 265 -28 651 -19 926 21 261 38 633 141 865 240 l90 39 -60 2 c-206 8 -439 26 -560 44 -1492 215 -2646 1298 -2856 2681 -26 173 -36 483 -20 654 99 1060 832 1878 1780 1989 286 34 570 4 860 -91 813 -266 1361 -1010 1361 -1848 0 -665 -278 -1220 -779 -1557 -230 -155 -482 -257 -825 -334 l-29 -6 6 -102 c15 -269 110 -548 264 -782 83 -123 245 -292 361 -375 156 -111 387 -209 536 -226 46 -6 60 -2 123 29 331 167 642 394 924 676 607 608 967 1365 1054 2221 21 202 16 658 -9 835 -36 252 -80 446 -152 668 -436 1335 -1610 2312 -2998 2492 -244 32 -465 39 -716 24z"/>
 </g>

</svg>