<!DOCTYPE svg PUBLIC "-//W3C//DTD SVG 20010904//EN" "http://www.w3.org/TR/2001/REC-SVG-20010904/DTD/svg10.dtd">
<svg version="1.0" xmlns="http://www.w3.org/2000/svg" width="960px" height="707px" viewBox="0 0 9600 7070" preserveAspectRatio="xMidYMid meet">
<g id="layer101" fill="#00000c" stroke="none">
 <path d="M4541 7044 c-68 -30 -134 -77 -203 -142 -54 -51 -81 -92 -40 -61 14 11 13 10 -2 -9 -21 -24 -31 -29 -21 -9 4 6 -3 1 -14 -12 -23 -25 -28 -47 -9 -35 7 4 8 3 4 -5 -4 -6 -11 -9 -16 -6 -19 11 -77 -134 -85 -210 -5 -48 -4 -47 10 14 8 35 17 66 21 70 4 3 4 -5 0 -19 -3 -14 -11 -61 -17 -105 -13 -97 5 -223 45 -310 28 -63 27 -74 -3 -17 -11 20 -20 33 -21 29 -1 -18 51 -107 60 -102 5 3 12 0 16 -6 5 -8 3 -9 -6 -4 -8 5 -11 3 -8 -6 3 -8 10 -14 16 -14 5 0 14 -4 19 -9 5 -5 3 -6 -4 -2 -33 19 -6 -17 60 -80 139 -134 253 -184 427 -190 l105 -3 -102 8 c-58 5 -134 18 -174 31 -87 28 -197 99 -264 171 l-50 53 65 -60 c129 -118 247 -172 405 -181 150 -8 291 33 410 121 l50 37 -38 -34 c-53 -48 -143 -94 -229 -117 -40 -10 -63 -19 -52 -19 40 -1 149 38 212 76 69 42 182 138 182 155 0 6 -7 5 -17 -3 -15 -11 -14 -10 1 9 21 24 31 29 21 10 -4 -7 5 0 19 15 27 29 35 54 14 41 -7 -4 -8 -3 -4 5 4 6 12 9 17 5 13 -8 66 111 84 189 15 62 18 187 6 241 -3 17 -6 -26 -6 -95 0 -91 -5 -139 -18 -183 -10 -32 -20 -56 -22 -54 -2 2 3 26 11 53 8 28 18 88 21 135 5 75 0 117 -22 220 -3 15 1 11 9 -10 24 -59 17 -9 -8 55 -13 33 -29 59 -36 57 -6 -1 -9 2 -5 7 7 12 -19 66 -36 77 -8 5 -9 3 -4 -7 8 -12 6 -12 -8 0 -18 15 -23 26 -7 16 6 -3 10 -2 10 3 0 6 -36 44 -80 86 -78 72 -217 156 -259 156 -9 0 9 -11 41 -24 90 -37 145 -73 216 -143 l67 -65 -72 64 c-147 132 -258 170 -483 167 -128 -2 -155 -6 -199 -25z m31 -8 c-71 -27 -152 -78 -221 -139 -36 -33 -40 -34 -16 -8 63 70 228 170 280 170 11 0 -8 -11 -43 -23z"/>
 <path d="M4143 6450 c0 -30 2 -43 4 -27 2 15 2 39 0 55 -2 15 -4 2 -4 -28z"/>
 <path d="M4151 6364 c1 -16 5 -40 9 -54 6 -17 7 -9 3 25 -6 56 -14 74 -12 29z"/>
 <path d="M3055 5498 c-80 -15 -184 -71 -258 -138 -60 -55 -88 -93 -54 -74 7 4 9 3 4 -2 -5 -5 -14 -9 -19 -9 -6 0 -13 -6 -16 -14 -3 -9 0 -11 8 -6 9 5 11 4 6 -4 -4 -6 -12 -9 -17 -5 -13 8 -67 -115 -74 -168 -5 -41 -4 -40 9 10 7 29 17 56 21 60 5 4 5 -2 1 -12 -4 -11 -12 -52 -18 -92 -13 -83 0 -188 32 -264 13 -29 15 -38 5 -26 -8 11 -15 24 -15 30 0 5 -3 7 -6 4 -8 -9 36 -89 46 -83 5 3 12 0 16 -6 5 -8 3 -9 -6 -4 -8 5 -11 3 -8 -6 3 -8 10 -14 16 -14 5 0 14 -4 19 -9 5 -5 3 -6 -4 -2 -53 30 87 -116 217 -226 138 -117 460 -337 460 -314 0 2 -31 22 -70 45 -38 23 -70 44 -70 47 0 3 15 -3 33 -14 353 -216 692 -336 1122 -398 148 -22 541 -25 690 -6 513 66 968 248 1380 554 44 32 64 45 45 28 -85 -76 -286 -206 -465 -301 -120 -64 -137 -81 -24 -24 179 91 396 233 553 364 113 94 246 220 246 234 0 5 -8 3 -17 -4 -15 -11 -14 -10 1 9 21 24 31 29 21 10 -4 -7 3 -2 14 11 23 26 28 46 9 35 -8 -4 -10 -3 -5 2 5 5 14 9 20 9 15 0 57 108 61 158 2 23 2 33 -1 22 -11 -50 -35 -127 -38 -123 -2 2 3 26 11 53 21 66 21 214 0 280 -8 27 -13 51 -11 53 3 4 27 -73 38 -123 3 -11 3 -1 1 22 -4 50 -46 158 -61 158 -6 0 -15 4 -20 9 -5 5 -3 6 5 2 17 -10 15 5 -4 32 -8 12 -19 20 -24 17 -4 -3 -14 3 -21 13 -13 15 -12 16 4 3 32 -25 17 5 -20 41 -42 40 -151 118 -165 118 -6 0 24 -22 65 -50 41 -27 80 -57 88 -66 7 -9 -22 9 -65 40 -101 72 -188 101 -306 100 -149 -1 -248 -46 -388 -176 -43 -40 -98 -88 -122 -106 -44 -33 -44 -33 5 10 27 23 87 78 134 121 53 49 110 91 155 113 39 19 60 32 46 28 -54 -14 -124 -61 -213 -142 -147 -135 -259 -215 -417 -301 -41 -22 -70 -41 -65 -41 9 0 131 66 210 114 24 14 26 15 10 1 -33 -27 -152 -95 -232 -131 -118 -54 -266 -102 -397 -130 -165 -35 -448 -44 -616 -20 -375 54 -731 222 -974 460 l-81 78 81 -73 c102 -93 314 -246 314 -226 0 3 -20 17 -44 31 -73 43 -201 142 -278 214 -73 69 -183 152 -201 152 -6 0 17 -18 50 -39 33 -21 64 -44 68 -51 4 -6 -16 5 -44 25 -157 113 -390 119 -554 15 -25 -15 -63 -43 -85 -62 -21 -18 -16 -11 12 15 85 80 196 124 356 140 24 3 19 4 -15 4 -27 1 -72 -3 -100 -9z m2825 -332 c0 -3 -15 -14 -32 -26 l-33 -22 30 26 c31 27 35 29 35 22z m-3055 -586 c33 -33 57 -60 54 -60 -2 0 -31 27 -64 60 -33 33 -57 60 -54 60 2 0 31 -27 64 -60z m3995 37 c0 -2 -17 -19 -37 -38 l-38 -34 34 38 c33 34 41 42 41 34z m-120 -112 c-24 -25 -46 -45 -49 -45 -3 0 15 20 39 45 24 25 46 45 49 45 3 0 -15 -20 -39 -45z m-3680 -103 c0 -6 -93 73 -115 99 -11 13 10 -3 48 -36 37 -32 67 -60 67 -63z m160 -119 c0 -6 -82 54 -122 89 -18 16 2 4 45 -28 42 -31 77 -58 77 -61z m90 -60 c0 -7 -61 31 -73 46 -7 8 7 2 31 -14 23 -15 42 -30 42 -32z"/>
 <path d="M6351 5499 c-24 -5 -47 -11 -50 -15 -3 -3 9 -3 27 1 18 4 63 10 100 15 62 7 63 7 17 8 -27 0 -70 -4 -94 -9z"/>
 <path d="M3300 5475 c46 -18 64 -17 25 0 -16 8 -37 14 -45 14 -8 0 1 -7 20 -14z"/>
 <path d="M6590 5475 c46 -18 64 -17 25 0 -16 8 -37 14 -45 14 -8 0 1 -7 20 -14z"/>
 <path d="M3900 5054 c0 -10 209 -104 309 -139 181 -62 320 -86 536 -91 105 -3 217 -2 250 3 41 5 -16 8 -185 8 -227 1 -254 3 -371 27 -151 33 -299 83 -436 148 -57 27 -103 47 -103 44z"/>
 <path d="M2623 4975 c0 -33 2 -45 4 -27 2 18 2 45 0 60 -2 15 -4 0 -4 -33z"/>
 <path d="M6973 4975 c0 -22 2 -30 4 -17 2 12 2 30 0 40 -3 9 -5 -1 -4 -23z"/>
 <path d="M5518 4974 c-50 -27 -242 -86 -353 -110 -60 -12 -99 -23 -85 -23 68 -1 362 83 447 128 21 11 34 20 28 20 -5 0 -22 -6 -37 -15z"/>
 <path d="M2631 4889 c-1 -25 18 -93 24 -87 2 2 -3 28 -10 58 -8 33 -14 45 -14 29z"/>
 <path d="M1752 4202 c-13 -4 34 -7 105 -7 144 0 196 -15 296 -82 28 -19 44 -26 34 -15 -25 27 -121 77 -186 96 -55 16 -203 20 -249 8z"/>
 <path d="M7745 4200 c161 -10 258 -54 360 -162 l50 -53 -55 52 c-115 107 -224 153 -364 153 -164 0 -256 -45 -430 -208 -144 -136 -416 -357 -416 -339 0 3 33 29 72 59 110 80 238 189 352 297 56 53 119 107 139 120 45 28 49 39 5 14 -17 -10 -72 -56 -122 -103 -209 -197 -390 -340 -588 -465 -56 -36 -104 -68 -107 -71 -12 -13 47 21 142 82 53 35 97 61 97 58 0 -6 -178 -120 -275 -176 -853 -486 -1874 -606 -2828 -332 -337 97 -698 265 -1002 467 -103 69 -277 200 -297 224 -7 9 32 -19 87 -62 95 -74 254 -184 340 -235 72 -43 32 -13 -120 88 -179 119 -324 235 -468 372 -96 92 -140 126 -106 83 8 -10 -3 -3 -24 15 -143 123 -375 148 -552 60 -22 -11 -67 -40 -100 -65 l-60 -45 45 41 c25 23 80 59 124 81 43 22 73 40 66 40 -45 0 -260 -151 -260 -182 0 -6 7 -5 18 3 14 11 13 10 -2 -9 -21 -24 -32 -29 -20 -9 5 8 2 8 -9 -2 -20 -16 -23 -36 -4 -25 7 4 9 3 4 -2 -5 -5 -14 -9 -20 -9 -7 0 -27 -36 -46 -79 -27 -64 -35 -97 -38 -165 -3 -47 -1 -101 3 -119 7 -23 9 -3 9 75 0 61 6 127 13 152 20 64 24 45 5 -24 -22 -85 -14 -211 20 -294 14 -35 21 -59 16 -54 -5 5 -18 32 -29 59 -10 27 -19 42 -20 34 0 -25 59 -142 69 -135 5 3 13 0 17 -6 5 -8 3 -9 -6 -4 -8 5 -11 3 -8 -6 3 -8 10 -14 16 -14 6 0 17 -7 24 -15 11 -12 11 -12 -4 -1 -10 7 -18 9 -18 3 0 -5 47 -55 105 -110 280 -270 606 -516 936 -708 113 -65 428 -224 445 -224 5 0 -84 46 -196 103 -450 226 -819 487 -1170 827 -68 66 -58 58 38 -29 399 -363 733 -594 1167 -806 603 -295 1239 -447 1930 -462 631 -14 1203 84 1774 304 283 109 626 282 844 427 15 10 27 16 27 13 0 -3 -22 -19 -50 -37 -27 -18 -50 -34 -50 -37 0 -10 237 149 361 243 192 145 539 452 539 476 0 6 -8 5 -17 -3 -15 -11 -14 -10 1 9 21 24 31 29 21 10 -4 -7 5 0 19 15 27 29 35 53 14 41 -8 -4 -10 -3 -5 2 5 5 14 9 20 9 15 0 66 132 66 170 -1 21 -5 12 -15 -28 -8 -32 -19 -66 -25 -75 -9 -15 -10 -14 -4 3 4 11 13 52 22 90 20 95 12 172 -31 300 -4 11 0 8 9 -7 8 -15 22 -53 30 -85 14 -53 15 -54 10 -13 -7 53 -70 194 -84 186 -5 -4 -13 -1 -17 5 -4 8 -3 9 4 5 28 -17 8 14 -40 64 -117 119 -238 171 -392 168 l-91 -1 110 -7z m-5310 -344 c17 -16 -1 -2 -40 31 -38 34 -90 83 -115 110 -41 43 82 -68 155 -141z m5550 -654 c-50 -48 -119 -111 -155 -141 l-65 -53 70 63 c39 35 106 98 150 141 44 43 82 78 85 78 3 0 -36 -40 -85 -88z m-235 -207 c-22 -26 -338 -262 -390 -290 -33 -18 9 15 120 93 63 45 151 110 195 146 84 68 95 75 75 51z"/>
 <path d="M7555 4181 c-52 -25 -44 -25 25 -1 30 11 46 19 35 19 -11 0 -38 -8 -60 -18z"/>
 <path d="M3430 4114 c0 -7 270 -137 274 -133 2 2 -59 34 -135 71 -76 37 -139 64 -139 62z"/>
 <path d="M5825 3964 c-71 -29 -125 -53 -119 -54 13 0 205 75 242 94 50 27 8 14 -123 -40z"/>
 <path d="M3732 3970 c32 -20 212 -81 342 -115 433 -114 909 -124 1335 -29 62 14 123 30 135 35 25 11 26 12 -139 -26 -495 -111 -1084 -74 -1556 98 -135 50 -138 51 -117 37z"/>
 <path d="M5620 3890 c-30 -10 -51 -18 -47 -19 13 -1 117 30 117 35 0 6 -11 4 -70 -16z"/>
 <path d="M8263 3680 c0 -30 2 -43 4 -27 2 15 2 39 0 55 -2 15 -4 2 -4 -28z"/>
 <path d="M2950 3496 c0 -3 14 -12 30 -21 17 -9 30 -13 30 -11 0 3 -13 12 -30 21 -16 9 -30 13 -30 11z"/>
 <path d="M6598 3474 c-38 -20 -36 -28 2 -9 17 9 30 18 30 20 0 7 -1 6 -32 -11z"/>
 <path d="M3020 3455 c0 -11 303 -156 435 -208 144 -57 343 -122 350 -115 3 2 -44 19 -103 37 -156 48 -366 133 -534 217 -82 41 -148 72 -148 69z"/>
 <path d="M6430 3385 c-69 -35 -122 -64 -117 -64 10 -1 247 118 247 124 0 7 8 11 -130 -60z"/>
 <path d="M6225 3290 c-33 -16 -55 -29 -50 -29 6 0 37 13 70 29 33 15 56 28 50 28 -5 0 -37 -12 -70 -28z"/>
 <path d="M6052 3223 c-24 -8 -41 -17 -39 -19 4 -5 97 26 97 32 0 6 -11 4 -58 -13z"/>
 <path d="M5950 3185 c-19 -7 -28 -14 -20 -14 8 0 29 6 45 14 39 17 21 18 -25 0z"/>
 <path d="M5815 3144 c-38 -13 -55 -21 -36 -18 41 7 142 43 121 42 -8 0 -46 -11 -85 -24z"/>
 <path d="M3820 3126 c0 -8 252 -64 380 -85 161 -27 334 -44 385 -39 35 4 32 5 -15 6 -147 5 -443 50 -638 97 -111 27 -112 27 -112 21z"/>
 <path d="M5670 3105 c-25 -7 -36 -13 -25 -13 11 0 38 5 60 13 52 17 24 17 -35 0z"/>
 <path d="M5500 3070 c-103 -22 -289 -48 -425 -59 -71 -6 -84 -9 -45 -10 77 -2 301 26 455 55 122 24 163 35 119 33 -10 -1 -57 -9 -104 -19z"/>
 <path d="M4713 2993 c48 -2 126 -2 175 0 48 1 8 3 -88 3 -96 0 -136 -2 -87 -3z"/>
 <path d="M550 2861 c41 -5 91 -11 110 -15 31 -5 32 -5 10 5 -14 5 -63 12 -110 14 l-85 4 75 -8z"/>
 <path d="M8961 2859 c-24 -5 -47 -11 -50 -15 -3 -3 10 -3 29 1 19 4 69 11 110 15 l75 7 -60 1 c-33 0 -80 -4 -104 -9z"/>
 <path d="M360 2837 c-36 -13 -85 -36 -110 -52 -50 -32 -170 -143 -170 -158 0 -5 8 -3 18 4 15 13 16 12 3 -3 -7 -10 -17 -15 -22 -12 -5 2 -24 -26 -42 -63 l-35 -68 0 -180 c0 -167 2 -184 24 -233 13 -30 28 -51 33 -48 5 4 13 1 17 -5 5 -8 3 -9 -6 -4 -8 5 -11 3 -8 -6 3 -8 10 -14 16 -14 5 0 14 -4 19 -9 5 -5 3 -6 -4 -2 -37 21 0 -23 120 -140 163 -162 296 -280 482 -429 134 -108 165 -129 150 -105 -10 16 1 11 16 -7 10 -11 10 -14 2 -9 -7 4 -13 5 -13 2 0 -19 543 -380 670 -446 56 -28 -3 11 -125 85 -142 86 -335 213 -335 220 0 3 46 -25 103 -63 845 -568 1882 -946 2892 -1057 265 -29 399 -35 745 -35 447 0 692 19 1070 81 914 151 1813 505 2567 1011 57 38 103 66 103 63 0 -17 -489 -319 -639 -395 -34 -17 -61 -33 -61 -35 0 -16 336 177 530 303 129 84 380 261 380 268 0 3 -6 2 -12 -2 -9 -5 -9 -2 1 9 15 18 26 23 16 7 -15 -24 16 -3 150 105 186 149 319 267 483 429 116 115 157 163 120 140 -7 -4 -8 -3 -4 5 4 6 11 9 16 6 12 -8 33 33 24 47 -4 7 -3 8 5 4 7 -5 18 8 30 36 16 37 19 70 19 223 l0 180 -35 68 c-18 37 -37 65 -42 63 -5 -3 -15 2 -22 12 -13 15 -12 16 4 3 9 -7 17 -9 17 -4 0 15 -120 126 -170 158 -53 34 -165 75 -200 74 -14 0 2 -7 34 -15 91 -22 180 -71 249 -136 l62 -60 -63 55 c-225 195 -523 193 -743 -7 -50 -46 -49 -45 7 11 40 39 89 75 136 98 40 20 62 33 48 29 -76 -21 -149 -74 -307 -226 -386 -369 -786 -652 -1278 -905 -110 -56 -197 -103 -192 -103 14 0 306 150 438 226 232 133 466 293 699 476 41 33 57 43 35 23 -22 -21 -107 -88 -190 -150 -825 -620 -1827 -995 -2874 -1075 -174 -13 -648 -13 -822 0 -1047 80 -2049 455 -2874 1075 -82 62 -168 129 -190 150 -22 20 -6 10 35 -23 406 -320 826 -572 1267 -761 155 -66 363 -144 369 -138 2 2 -49 23 -113 47 -677 246 -1325 651 -1856 1158 -158 152 -231 205 -307 226 -14 4 8 -9 49 -29 49 -25 96 -59 140 -103 64 -64 64 -64 7 -11 -34 30 -82 68 -107 82 -205 120 -454 92 -641 -70 l-63 -55 62 60 c69 65 158 114 249 136 32 8 48 15 34 15 -14 0 -54 -10 -90 -22z m8250 -210 c0 -1 -33 -34 -72 -72 l-73 -70 70 73 c64 67 75 77 75 69z m-7540 -72 c35 -36 62 -65 59 -65 -2 0 -34 29 -69 65 -35 36 -62 65 -59 65 2 0 34 -29 69 -65z m-1044 -66 c-9 -19 -15 -29 -16 -22 0 15 22 64 27 60 2 -2 -3 -19 -11 -38z m9563 -19 c0 -8 -6 0 -14 19 -8 18 -15 36 -15 40 1 13 29 -45 29 -59z m-8309 -107 c0 -7 -114 93 -131 114 -8 10 19 -11 59 -46 39 -35 72 -66 72 -68z m7170 112 c-7 -9 -40 -38 -74 -66 -60 -51 -60 -50 9 14 69 65 90 82 65 52z m-8410 -394 c-1 -13 -29 45 -29 59 0 8 6 0 14 -19 8 -18 15 -36 15 -40z m9535 22 c-9 -15 -13 -19 -10 -8 4 11 10 29 13 40 3 11 7 14 9 8 3 -7 -3 -24 -12 -40z m-9355 -248 c63 -63 112 -115 110 -115 -3 0 -57 52 -120 115 -63 63 -112 115 -110 115 3 0 57 -52 120 -115z m9270 102 c0 -1 -51 -52 -112 -112 l-113 -110 110 113 c102 104 115 117 115 109z m-9095 -267 c27 -27 47 -50 44 -50 -3 0 -27 23 -54 50 -27 28 -47 50 -44 50 3 0 27 -22 54 -50z m8865 47 c0 -1 -24 -25 -52 -52 l-53 -50 50 53 c46 48 55 57 55 49z m-8517 -340 c48 -38 87 -71 87 -73 0 -13 -341 266 -370 302 -8 10 32 -22 90 -72 58 -49 144 -120 193 -157z m8365 199 c-54 -50 -159 -136 -140 -116 20 22 176 159 182 159 3 0 -16 -19 -42 -43z m-167 -140 c-7 -8 -49 -42 -94 -77 -100 -76 -88 -61 19 26 83 66 94 74 75 51z m-7943 -250 c28 -21 52 -40 52 -43 0 -6 -107 70 -145 103 l-30 26 35 -24 c19 -14 59 -42 88 -62z m7697 59 c-39 -32 -153 -112 -140 -97 13 14 159 121 165 121 3 0 -8 -11 -25 -24z"/>
 <path d="M7153 2577 c-40 -24 -76 -47 -80 -51 -10 -11 104 52 138 76 42 30 16 18 -58 -25z"/>
 <path d="M6998 2489 c-32 -16 -58 -32 -58 -34 0 -3 27 8 60 25 33 17 60 32 60 35 0 7 2 8 -62 -26z"/>
 <path d="M6870 2420 c-30 -16 -51 -29 -47 -30 10 0 107 49 107 55 0 7 1 7 -60 -25z"/>
 <path d="M6740 2360 c-30 -16 -50 -29 -45 -29 6 0 35 13 65 29 30 16 51 29 45 29 -5 0 -35 -13 -65 -29z"/>
 <path d="M6560 2283 c-149 -63 -459 -165 -630 -207 -271 -66 -522 -105 -810 -127 -176 -13 -641 -7 -788 11 -51 6 -101 10 -110 8 -44 -10 240 -30 478 -35 540 -11 1027 57 1512 213 147 48 395 141 445 168 51 28 9 14 -97 -31z"/>
 <path d="M2960 2305 c14 -8 30 -14 35 -14 6 0 -1 6 -15 14 -14 8 -29 14 -35 14 -5 0 1 -6 15 -14z"/>
 <path d="M3030 2277 c33 -19 251 -99 256 -94 2 2 -56 26 -128 53 -157 58 -160 59 -128 41z"/>
 <path d="M3301 2176 c18 -19 524 -157 574 -155 11 0 -45 16 -125 35 -117 27 -369 97 -440 122 -8 3 -12 2 -9 -2z"/>
 <path d="M3985 2000 c50 -10 119 -21 155 -24 46 -4 33 0 -45 13 -163 28 -212 33 -110 11z"/>
 <path d="M6965 1549 c-60 -27 -167 -70 -238 -96 -70 -25 -125 -48 -123 -50 9 -9 486 180 486 193 0 7 -15 2 -125 -47z"/>
 <path d="M3020 1392 c31 -20 499 -153 532 -151 7 0 -45 16 -116 35 -71 18 -190 52 -265 75 -75 23 -143 44 -151 46 -13 4 -13 3 0 -5z"/>
 <path d="M6450 1358 c-69 -21 -190 -57 -270 -78 -80 -21 -139 -39 -132 -39 31 -2 497 129 532 150 27 15 -2 8 -130 -33z"/>
 <path d="M3620 1224 c187 -46 555 -99 745 -108 103 -5 100 -4 -40 9 -209 20 -421 51 -593 85 -152 31 -208 38 -112 14z"/>
 <path d="M5885 1214 c-145 -31 -412 -70 -605 -88 -140 -14 -144 -15 -45 -10 190 9 558 62 745 108 91 23 23 15 -95 -10z"/>
 <path d="M4638 1103 c89 -2 235 -2 325 0 89 1 16 3 -163 3 -179 0 -252 -2 -162 -3z"/>
 <path d="M1555 832 c6 -5 51 -31 100 -58 50 -26 86 -43 80 -37 -5 5 -50 32 -100 58 -49 26 -85 43 -80 37z"/>
 <path d="M1770 714 c0 -11 469 -228 476 -221 2 2 -31 19 -74 37 -42 19 -150 69 -239 111 -90 43 -163 75 -163 73z"/>
 <path d="M7715 664 c-60 -30 -167 -80 -237 -111 -70 -31 -126 -59 -124 -60 8 -8 476 210 476 221 0 8 12 13 -115 -50z"/>
 <path d="M2306 466 c72 -34 325 -128 331 -123 2 3 -13 11 -34 17 -21 7 -101 37 -178 67 -164 64 -189 72 -119 39z"/>
 <path d="M7270 465 c-30 -13 -112 -45 -183 -71 -70 -26 -125 -49 -123 -51 5 -5 256 88 330 122 67 31 47 30 -24 0z"/>
 <path d="M2676 326 c104 -49 647 -193 909 -241 247 -45 551 -86 630 -84 22 1 -16 7 -85 15 -432 46 -884 139 -1286 264 -204 63 -205 63 -168 46z"/>
 <path d="M6885 319 c-27 -10 -37 -17 -21 -14 31 7 97 33 81 33 -5 0 -32 -8 -60 -19z"/>
 <path d="M6705 264 c-343 -108 -823 -204 -1235 -248 -69 -8 -107 -14 -85 -15 79 -2 383 39 630 84 232 43 790 186 813 210 10 10 -13 4 -123 -31z"/>
 </g>

</svg>