<!DOCTYPE svg PUBLIC "-//W3C//DTD SVG 20010904//EN" "http://www.w3.org/TR/2001/REC-SVG-20010904/DTD/svg10.dtd">
<svg version="1.0" xmlns="http://www.w3.org/2000/svg" width="128px" height="128px" viewBox="0 0 1280 1280" preserveAspectRatio="xMidYMid meet">
<g id="layer101" fill="#006df0" stroke="none">
 <path d="M990 1245 c-124 -18 -264 -38 -312 -45 l-88 -12 0 -254 0 -254 345 0 345 0 0 300 0 300 -32 -1 c-18 -1 -134 -16 -258 -34z"/>
 <path d="M330 1154 c-91 -13 -202 -28 -248 -35 l-82 -11 0 -214 0 -214 260 0 260 0 0 250 c0 194 -3 250 -12 249 -7 -1 -87 -12 -178 -25z"/>
 <path d="M2 388 l3 -213 235 -32 c129 -18 245 -32 258 -33 l22 0 0 245 0 245 -260 0 -260 0 2 -212z"/>
 <path d="M590 347 l0 -252 333 -48 c182 -26 338 -48 345 -47 9 0 12 67 12 300 l0 300 -345 0 -345 0 0 -253z"/>
 </g>

</svg>