<!DOCTYPE svg PUBLIC "-//W3C//DTD SVG 20010904//EN" "http://www.w3.org/TR/2001/REC-SVG-20010904/DTD/svg10.dtd">
<svg version="1.0" xmlns="http://www.w3.org/2000/svg" width="120px" height="120px" viewBox="0 0 1200 1200" preserveAspectRatio="xMidYMid meet">
<g id="layer101" fill="#006df0" stroke="none">
 <path d="M932 1067 l-133 -133 -67 33 c-197 97 -444 54 -594 -104 -94 -99 -138 -213 -138 -357 0 -148 46 -262 145 -361 98 -98 214 -145 361 -145 153 0 259 43 365 149 158 159 195 403 90 597 l-28 52 133 133 c131 130 134 135 134 177 0 32 -6 49 -25 67 -18 19 -35 25 -67 25 -42 0 -47 -3 -176 -133z m-296 -272 c149 -66 222 -236 169 -395 -25 -76 -108 -158 -190 -189 -245 -93 -498 157 -405 401 66 177 257 259 426 183z"/>
 <path d="M460 651 l0 -90 -92 -3 -93 -3 0 -45 0 -45 92 -3 92 -3 3 -92 3 -92 45 0 45 0 3 93 3 92 90 0 90 0 -3 48 -3 47 -87 3 -87 3 -3 87 -3 87 -47 3 -48 3 0 -90z"/>
 </g>

</svg>